%FSLAX35Y35*%
%MOIN*%
G04 2=Kupferunten/CopperbottomL2(X.Bot)*
%ADD10C,0.00591*%
%ADD11C,0.00038*%
%ADD12C,0.00240*%
%ADD13C,0.00276*%
%ADD14C,0.00358*%
%ADD15C,0.00394*%
%ADD16C,0.00413*%
%ADD17C,0.00787*%
%ADD18C,0.01181*%
%ADD19C,0.01575*%
%ADD20C,0.01969*%
%ADD21C,0.02362*%
%ADD22C,0.03150*%
%ADD23C,0.03543*%
%ADD24C,0.03937*%
%AMR_25*21,1,0.01181,0.01181,0,0,0.000*%
%ADD25R_25*%
%AMR_26*21,1,0.02100,0.02100,0,0,0.000*%
%ADD26R_26*%
%AMR_27*21,1,0.02362,0.02362,0,0,0.000*%
%ADD27R_27*%
%AMR_28*21,1,0.02756,0.07480,0,0,90.000*%
%ADD28R_28*%
%AMR_29*21,1,0.04724,0.08661,0,0,0.000*%
%ADD29R_29*%
%AMR_30*21,1,0.05000,0.05000,0,0,0.000*%
%ADD30R_30*%
%AMR_31*21,1,0.05000,0.05000,0,0,90.000*%
%ADD31R_31*%
%AMR_32*21,1,0.05000,0.05000,0,0,180.000*%
%ADD32R_32*%
%AMR_33*21,1,0.05000,0.05000,0,0,270.000*%
%ADD33R_33*%
%AMR_34*21,1,0.05512,0.10236,0,0,90.000*%
%ADD34R_34*%
%AMR_35*21,1,0.06693,0.07087,0,0,90.000*%
%ADD35R_35*%
%AMR_36*21,1,0.07087,0.07087,0,0,270.000*%
%ADD36R_36*%
%AMOCT_37*4,1,8,0.029528,0.014764,0.014764,0.029528,-0.014764,0.029528,-0.029528,0.014764,-0.029528,-0.014764,-0.014764,-0.029528,0.014764,-0.029528,0.029528,-0.014764,0.029528,0.014764,0.000*%
%ADD37OCT_37*%
%AMOCT_38*4,1,8,0.035433,0.017717,0.017717,0.035433,-0.017717,0.035433,-0.035433,0.017717,-0.035433,-0.017717,-0.017717,-0.035433,0.017717,-0.035433,0.035433,-0.017717,0.035433,0.017717,270.000*%
%ADD38OCT_38*%
%AMOCT_39*4,1,8,0.039370,0.019685,0.019685,0.039370,-0.019685,0.039370,-0.039370,0.019685,-0.039370,-0.019685,-0.019685,-0.039370,0.019685,-0.039370,0.039370,-0.019685,0.039370,0.019685,90.000*%
%ADD39OCT_39*%
%AMOCT_40*4,1,8,0.039370,0.019685,0.019685,0.039370,-0.019685,0.039370,-0.039370,0.019685,-0.039370,-0.019685,-0.019685,-0.039370,0.019685,-0.039370,0.039370,-0.019685,0.039370,0.019685,180.000*%
%ADD40OCT_40*%
%AMOCT_41*4,1,8,0.045276,0.022638,0.022638,0.045276,-0.022638,0.045276,-0.045276,0.022638,-0.045276,-0.022638,-0.022638,-0.045276,0.022638,-0.045276,0.045276,-0.022638,0.045276,0.022638,0.000*%
%ADD41OCT_41*%
%AMOCT_42*4,1,8,0.045276,0.022638,0.022638,0.045276,-0.022638,0.045276,-0.045276,0.022638,-0.045276,-0.022638,-0.022638,-0.045276,0.022638,-0.045276,0.045276,-0.022638,0.045276,0.022638,90.000*%
%ADD42OCT_42*%
%AMOCT_43*4,1,8,0.045276,0.022638,0.022638,0.045276,-0.022638,0.045276,-0.045276,0.022638,-0.045276,-0.022638,-0.022638,-0.045276,0.022638,-0.045276,0.045276,-0.022638,0.045276,0.022638,180.000*%
%ADD43OCT_43*%
%AMOCT_44*4,1,8,0.078740,0.039370,0.039370,0.078740,-0.039370,0.078740,-0.078740,0.039370,-0.078740,-0.039370,-0.039370,-0.078740,0.039370,-0.078740,0.078740,-0.039370,0.078740,0.039370,0.000*%
%ADD44OCT_44*%
%ADD45O,0.04724X0.06299*%
%ADD46O,0.06299X0.04724*%
%ADD47O,0.04724X0.08661*%
%ADD48O,0.14173X0.08661*%
%AMRR_49*21,1,0.03543,0.05591,0,0,90.000*21,1,0.02835,0.06299,0,0,90.000*1,1,0.00709,-0.02795,0.01417*1,1,0.00709,0.02795,-0.01417*1,1,0.00709,0.02795,0.01417*1,1,0.00709,-0.02795,-0.01417*%
%ADD49RR_49*%
G54D17*
X155432Y174182D02*
X155000Y173750D01*
X84356Y79888D02*
X57528Y53061D01*
X50000Y53061D01*
X30000Y53061D01*
X135000Y115000D02*
X65187Y45187D01*
X50000Y45187D01*
X30000Y45187D01*
X13973Y41213D02*
X10000Y45187D01*
X13973Y41213D02*
X69065Y41213D01*
X96151Y68300D01*
X169944Y68300D02*
X96151Y68300D01*
X169944Y68300D02*
X210522Y108877D01*
X216896Y108877D01*
X223018Y115000D01*
X225000Y115000D01*
X219685Y105764D02*
X211615Y105764D01*
X167775Y61924D01*
X98096Y61924D01*
X62067Y25894D01*
X7743Y25894D01*
X4035Y29602D02*
X7743Y25894D01*
X4035Y29602D02*
X4035Y34585D01*
X4062Y34559D01*
X4062Y49687D01*
X7436Y53061D01*
X10000Y53061D01*
X201996Y168689D02*
X95815Y168689D01*
X201996Y168689D02*
X235000Y135686D01*
X235000Y115000D01*
X92874Y150000D02*
X92874Y165748D01*
X95815Y168689D01*
X155000Y143750D02*
X166250Y143750D01*
X195000Y115000D01*
X165000Y115000D02*
X179025Y100974D01*
X179025Y92674D01*
X213069Y49862D02*
X218638Y55431D01*
X190557Y49862D02*
X213069Y49862D01*
X190557Y49862D02*
X187390Y53028D01*
X187390Y60690D01*
X157778Y96931D02*
X155000Y99709D01*
X155000Y115000D01*
X140072Y112992D02*
X143989Y109075D01*
X140072Y112992D02*
X140072Y116251D01*
X124138Y132185D01*
X112185Y132185D01*
X95000Y115000D01*
X155000Y153750D02*
X150000Y148750D01*
X140703Y148750D01*
X124138Y132185D01*
X175000Y15000D02*
X152954Y37045D01*
X78163Y37045D01*
X171920Y74483D02*
X155118Y74483D01*
X171920Y74483D02*
X210000Y112562D01*
X210000Y130102D01*
X216076Y136179D01*
X145000Y79459D02*
X172764Y79459D01*
X200000Y106694D01*
X200000Y126722D01*
X210993Y137715D01*
X171353Y83054D02*
X174089Y83054D01*
X185000Y93964D01*
X185000Y115000D01*
X234162Y150548D02*
X239270Y150548D01*
X247339Y150548D01*
X263149Y166358D01*
X195203Y80396D02*
X206570Y80396D01*
X239270Y113096D01*
X239270Y150548D01*
X99455Y46531D02*
X193468Y46531D01*
X225000Y15000D01*
X115000Y115000D02*
X98750Y98750D01*
X20625Y98750D01*
X15625Y93750D01*
X15625Y93750D01*
X125000Y115000D02*
X98491Y88491D01*
X20366Y88491D01*
X15625Y83750D01*
X15625Y83750D01*
G54D18*
X274409Y181342D02*
X269670Y176604D01*
X260329Y176604D01*
X255354Y181579D01*
X255354Y190920D01*
X260102Y195669D01*
X16147Y195669D01*
X20895Y190920D01*
X20895Y181579D01*
X15920Y176604D01*
X6579Y176604D01*
X1604Y181579D01*
X1604Y190920D01*
X6352Y195669D01*
X1181Y195669D01*
X1181Y1181D01*
X274409Y1181D01*
X274409Y181342D01*
X262789Y10275D02*
X260275Y12789D01*
X260275Y17210D01*
X262789Y19724D01*
X267210Y19724D01*
X269724Y17210D01*
X269724Y12789D01*
X267210Y10275D01*
X262789Y10275D01*
X252789Y10275D02*
X250275Y12789D01*
X250275Y17210D01*
X252789Y19724D01*
X257210Y19724D01*
X259724Y17210D01*
X259724Y12789D01*
X257210Y10275D01*
X252789Y10275D01*
X242789Y10275D02*
X240275Y12789D01*
X240275Y17210D01*
X242789Y19724D01*
X247210Y19724D01*
X249724Y17210D01*
X249724Y12789D01*
X247210Y10275D01*
X242789Y10275D01*
X232789Y10275D02*
X230275Y12789D01*
X230275Y17210D01*
X232789Y19724D01*
X237210Y19724D01*
X239724Y17210D01*
X239724Y12789D01*
X237210Y10275D01*
X232789Y10275D01*
X212789Y10275D02*
X210275Y12789D01*
X210275Y17210D01*
X212789Y19724D01*
X217210Y19724D01*
X219724Y17210D01*
X219724Y12789D01*
X217210Y10275D01*
X212789Y10275D01*
X202789Y10275D02*
X200275Y12789D01*
X200275Y17210D01*
X202789Y19724D01*
X207210Y19724D01*
X209724Y17210D01*
X209724Y12789D01*
X207210Y10275D01*
X202789Y10275D01*
X192789Y10275D02*
X190275Y12789D01*
X190275Y17210D01*
X192789Y19724D01*
X197210Y19724D01*
X199724Y17210D01*
X199724Y12789D01*
X197210Y10275D01*
X192789Y10275D01*
X182789Y10275D02*
X180275Y12789D01*
X180275Y17210D01*
X182789Y19724D01*
X187210Y19724D01*
X189724Y17210D01*
X189724Y12789D01*
X187210Y10275D01*
X182789Y10275D01*
X162789Y10275D02*
X160275Y12789D01*
X160275Y17210D01*
X162789Y19724D01*
X167210Y19724D01*
X169724Y17210D01*
X169724Y12789D01*
X167210Y10275D01*
X162789Y10275D01*
X152789Y10275D02*
X150275Y12789D01*
X150275Y17210D01*
X152789Y19724D01*
X157210Y19724D01*
X159724Y17210D01*
X159724Y12789D01*
X157210Y10275D01*
X152789Y10275D01*
X142789Y10275D02*
X140275Y12789D01*
X140275Y17210D01*
X142789Y19724D01*
X147210Y19724D01*
X149724Y17210D01*
X149724Y12789D01*
X147210Y10275D01*
X142789Y10275D01*
X132789Y10275D02*
X130275Y12789D01*
X130275Y17210D01*
X132789Y19724D01*
X137210Y19724D01*
X139724Y17210D01*
X139724Y12789D01*
X137210Y10275D01*
X132789Y10275D01*
X122789Y10275D02*
X120275Y12789D01*
X120275Y17210D01*
X122789Y19724D01*
X127210Y19724D01*
X129724Y17210D01*
X129724Y12789D01*
X127210Y10275D01*
X122789Y10275D01*
X112789Y10275D02*
X110275Y12789D01*
X110275Y17210D01*
X112789Y19724D01*
X117210Y19724D01*
X119724Y17210D01*
X119724Y12789D01*
X117210Y10275D01*
X112789Y10275D01*
X102789Y10275D02*
X100275Y12789D01*
X100275Y17210D01*
X102789Y19724D01*
X107210Y19724D01*
X109724Y17210D01*
X109724Y12789D01*
X107210Y10275D01*
X102789Y10275D01*
X92789Y10275D02*
X90275Y12789D01*
X90275Y17210D01*
X92789Y19724D01*
X97210Y19724D01*
X99724Y17210D01*
X99724Y12789D01*
X97210Y10275D01*
X92789Y10275D01*
X82789Y10275D02*
X80275Y12789D01*
X80275Y17210D01*
X82789Y19724D01*
X87210Y19724D01*
X89724Y17210D01*
X89724Y12789D01*
X87210Y10275D01*
X82789Y10275D01*
X6579Y1604D02*
X1604Y6579D01*
X1604Y15920D01*
X6579Y20895D01*
X15920Y20895D01*
X20895Y15920D01*
X20895Y6579D01*
X15920Y1604D01*
X6579Y1604D01*
X255625Y40671D02*
X254515Y40847D01*
X253514Y41357D01*
X252720Y42151D01*
X252210Y43152D01*
X252034Y44261D01*
X252210Y45371D01*
X252720Y46371D01*
X253514Y47166D01*
X254515Y47676D01*
X255625Y47851D01*
X256734Y47676D01*
X257735Y47166D01*
X258529Y46371D01*
X259039Y45371D01*
X259215Y44261D01*
X259039Y43152D01*
X258529Y42151D01*
X257735Y41357D01*
X256734Y40847D01*
X255625Y40671D01*
X255625Y71972D02*
X254558Y72125D01*
X253578Y72573D01*
X252764Y73278D01*
X252181Y74185D01*
X251877Y75219D01*
X251877Y76296D01*
X252181Y77330D01*
X252764Y78236D01*
X253578Y78942D01*
X254558Y79390D01*
X255625Y79543D01*
X256691Y79390D01*
X257671Y78942D01*
X258485Y78236D01*
X259068Y77330D01*
X259372Y76296D01*
X259372Y75219D01*
X259068Y74185D01*
X258485Y73278D01*
X257671Y72573D01*
X256691Y72125D01*
X255625Y71972D01*
X82789Y110275D02*
X80275Y112789D01*
X80275Y117210D01*
X82789Y119724D01*
X87210Y119724D01*
X89724Y117210D01*
X89724Y112789D01*
X87210Y110275D01*
X82789Y110275D01*
X102789Y110275D02*
X100275Y112789D01*
X100275Y117210D01*
X102789Y119724D01*
X107210Y119724D01*
X109724Y117210D01*
X109724Y112789D01*
X107210Y110275D01*
X102789Y110275D01*
X252789Y110275D02*
X250275Y112789D01*
X250275Y117210D01*
X252789Y119724D01*
X257210Y119724D01*
X259724Y117210D01*
X259724Y112789D01*
X257210Y110275D01*
X252789Y110275D01*
X262789Y110275D02*
X260275Y112789D01*
X260275Y117210D01*
X262789Y119724D01*
X267210Y119724D01*
X269724Y117210D01*
X269724Y112789D01*
X267210Y110275D01*
X262789Y110275D01*
X13119Y78435D02*
X10310Y81244D01*
X10310Y86255D01*
X12804Y88750D01*
X10310Y91244D01*
X10310Y96255D01*
X12804Y98750D01*
X10310Y101244D01*
X10310Y106255D01*
X12804Y108750D01*
X10310Y111244D01*
X10310Y116255D01*
X12804Y118750D01*
X10310Y121244D01*
X10310Y126255D01*
X13119Y129064D01*
X18130Y129064D01*
X20625Y126570D01*
X23119Y129064D01*
X28130Y129064D01*
X30939Y126255D01*
X30939Y121244D01*
X28445Y118750D01*
X30939Y116255D01*
X30939Y111244D01*
X28445Y108750D01*
X30939Y106255D01*
X30939Y101244D01*
X30217Y100521D01*
X98016Y100521D01*
X110279Y112785D01*
X110275Y112789D01*
X110275Y117210D01*
X112789Y119724D01*
X117210Y119724D01*
X119724Y117210D01*
X119724Y112789D01*
X117210Y110275D01*
X112789Y110275D01*
X112785Y110279D01*
X99483Y96978D01*
X30217Y96978D01*
X30939Y96255D01*
X30939Y91244D01*
X29958Y90262D01*
X97757Y90262D01*
X120279Y112785D01*
X120275Y112789D01*
X120275Y117210D01*
X122789Y119724D01*
X127210Y119724D01*
X129724Y117210D01*
X129724Y112789D01*
X127210Y110275D01*
X122789Y110275D01*
X122785Y110279D01*
X99225Y86719D01*
X30475Y86719D01*
X30939Y86255D01*
X30939Y81244D01*
X28130Y78435D01*
X23119Y78435D01*
X20625Y80929D01*
X18130Y78435D01*
X13119Y78435D01*
X250309Y137421D02*
X247007Y140722D01*
X247007Y146718D01*
X250309Y150019D01*
X256304Y150019D01*
X257440Y148883D01*
X257440Y151344D01*
X260447Y154350D01*
X265851Y154350D01*
X268858Y151344D01*
X268858Y145939D01*
X265851Y142933D01*
X260447Y142933D01*
X259606Y143774D01*
X259606Y140722D01*
X256304Y137421D01*
X250309Y137421D01*
X36672Y149916D02*
X33666Y152922D01*
X33666Y158327D01*
X36672Y161333D01*
X42077Y161333D01*
X45083Y158327D01*
X45083Y152922D01*
X42077Y149916D01*
X36672Y149916D01*
X90594Y171092D02*
X87293Y174394D01*
X87293Y180389D01*
X90594Y183690D01*
X96590Y183690D01*
X99891Y180389D01*
X99891Y174394D01*
X96590Y171092D01*
X90594Y171092D01*
X70909Y171092D02*
X67608Y174394D01*
X67608Y180389D01*
X70909Y183690D01*
X76905Y183690D01*
X80206Y180389D01*
X80206Y174394D01*
X76905Y171092D01*
X70909Y171092D01*
X36672Y179916D02*
X33666Y182922D01*
X33666Y188327D01*
X36672Y191333D01*
X42077Y191333D01*
X45083Y188327D01*
X45083Y182922D01*
X42077Y179916D01*
X36672Y179916D01*
X172789Y10275D02*
X170275Y12789D01*
X170275Y17210D01*
X170279Y17214D01*
X152220Y35274D01*
X81022Y35274D01*
X80908Y35051D01*
X80158Y34300D01*
X79212Y33818D01*
X78163Y33652D01*
X77115Y33818D01*
X76169Y34300D01*
X75418Y35051D01*
X74936Y35997D01*
X74900Y36222D01*
X62801Y24123D01*
X7009Y24123D01*
X2264Y28868D01*
X2264Y35319D01*
X2290Y35346D01*
X2290Y50421D01*
X5075Y53206D01*
X5075Y53655D01*
X5410Y54797D01*
X6054Y55797D01*
X6953Y56576D01*
X8035Y57071D01*
X9170Y57234D01*
X10829Y57234D01*
X11964Y57071D01*
X13046Y56576D01*
X13945Y55797D01*
X14589Y54797D01*
X14924Y53655D01*
X14924Y52466D01*
X14589Y51324D01*
X13945Y50324D01*
X13046Y49545D01*
X12124Y49124D01*
X13046Y48702D01*
X13945Y47923D01*
X14589Y46923D01*
X14924Y45781D01*
X14924Y44592D01*
X14589Y43450D01*
X14453Y43239D01*
X14707Y42985D01*
X25710Y42985D01*
X25410Y43450D01*
X25075Y44592D01*
X25075Y45781D01*
X25410Y46923D01*
X26054Y47923D01*
X26953Y48702D01*
X27875Y49124D01*
X26953Y49545D01*
X26054Y50324D01*
X25410Y51324D01*
X25075Y52466D01*
X25075Y53655D01*
X25410Y54797D01*
X26054Y55797D01*
X26953Y56576D01*
X28035Y57071D01*
X29170Y57234D01*
X30829Y57234D01*
X31964Y57071D01*
X33046Y56576D01*
X33945Y55797D01*
X34566Y54832D01*
X45433Y54832D01*
X46054Y55797D01*
X46953Y56576D01*
X48035Y57071D01*
X49170Y57234D01*
X50829Y57234D01*
X51964Y57071D01*
X53046Y56576D01*
X53945Y55797D01*
X54566Y54832D01*
X56794Y54832D01*
X81084Y79122D01*
X80963Y79888D01*
X81129Y80937D01*
X81611Y81883D01*
X82361Y82633D01*
X83307Y83115D01*
X84356Y83281D01*
X85404Y83115D01*
X86350Y82633D01*
X87101Y81883D01*
X87583Y80937D01*
X87749Y79888D01*
X87583Y78840D01*
X87101Y77894D01*
X86350Y77143D01*
X85404Y76661D01*
X84356Y76495D01*
X83589Y76616D01*
X58262Y51289D01*
X54566Y51289D01*
X53945Y50324D01*
X53046Y49545D01*
X52124Y49124D01*
X53046Y48702D01*
X53945Y47923D01*
X54566Y46958D01*
X64453Y46958D01*
X130279Y112785D01*
X130275Y112789D01*
X130275Y117210D01*
X132789Y119724D01*
X134094Y119724D01*
X123404Y130413D01*
X112919Y130413D01*
X99720Y117214D01*
X99724Y117210D01*
X99724Y112789D01*
X97210Y110275D01*
X92789Y110275D01*
X90275Y112789D01*
X90275Y117210D01*
X92789Y119724D01*
X97210Y119724D01*
X97214Y119720D01*
X111451Y133957D01*
X123404Y133957D01*
X139969Y150521D01*
X140407Y150521D01*
X139685Y151244D01*
X139685Y156255D01*
X140211Y156781D01*
X111489Y156781D01*
X110336Y157934D01*
X110336Y157934D01*
X108612Y159659D01*
X108612Y145896D01*
X97540Y134825D01*
X80896Y134825D01*
X74825Y140896D01*
X74825Y145773D01*
X74389Y146054D01*
X73610Y146953D01*
X73115Y148035D01*
X72952Y149170D01*
X72952Y150829D01*
X73115Y151964D01*
X73610Y153046D01*
X74389Y153945D01*
X75389Y154589D01*
X76531Y154924D01*
X77720Y154924D01*
X78862Y154589D01*
X79862Y153945D01*
X80641Y153046D01*
X81062Y152124D01*
X81484Y153046D01*
X82263Y153945D01*
X83263Y154589D01*
X84405Y154924D01*
X85594Y154924D01*
X86736Y154589D01*
X87736Y153945D01*
X88515Y153046D01*
X88937Y152124D01*
X89358Y153046D01*
X90137Y153945D01*
X90708Y154313D01*
X90708Y166644D01*
X94918Y170855D01*
X96712Y170855D01*
X97106Y170461D01*
X102894Y170461D01*
X100546Y172809D01*
X100546Y178804D01*
X103847Y182106D01*
X106899Y182106D01*
X106058Y182947D01*
X106058Y188351D01*
X109064Y191358D01*
X114469Y191358D01*
X117475Y188351D01*
X117475Y182947D01*
X114469Y179940D01*
X112008Y179940D01*
X113144Y178804D01*
X113144Y172809D01*
X110796Y170461D01*
X130453Y170461D01*
X128105Y172809D01*
X128105Y178804D01*
X129241Y179940D01*
X126780Y179940D01*
X123774Y182947D01*
X123774Y188351D01*
X126780Y191358D01*
X132185Y191358D01*
X135191Y188351D01*
X135191Y182947D01*
X134350Y182106D01*
X137402Y182106D01*
X140583Y178925D01*
X140722Y179064D01*
X149277Y179064D01*
X150314Y178027D01*
X150314Y176885D01*
X152494Y179064D01*
X157505Y179064D01*
X160025Y176544D01*
X188000Y176544D01*
X188383Y176927D01*
X189329Y177409D01*
X190377Y177575D01*
X191426Y177409D01*
X192372Y176927D01*
X193122Y176177D01*
X193604Y175231D01*
X193770Y174182D01*
X193604Y173134D01*
X193122Y172188D01*
X192372Y171437D01*
X191426Y170955D01*
X190377Y170789D01*
X189329Y170955D01*
X188383Y171437D01*
X188000Y171820D01*
X160314Y171820D01*
X160314Y171244D01*
X159531Y170461D01*
X202730Y170461D01*
X236771Y136420D01*
X236771Y119724D01*
X237210Y119724D01*
X237498Y119436D01*
X237498Y148776D01*
X237020Y148776D01*
X236907Y148553D01*
X236156Y147802D01*
X235210Y147320D01*
X234162Y147154D01*
X233113Y147320D01*
X232167Y147802D01*
X231417Y148553D01*
X230935Y149499D01*
X230769Y150548D01*
X230935Y151596D01*
X231417Y152542D01*
X232167Y153293D01*
X233113Y153775D01*
X234162Y153941D01*
X235210Y153775D01*
X236156Y153293D01*
X236907Y152542D01*
X237020Y152319D01*
X246605Y152319D01*
X257691Y163405D01*
X257440Y163655D01*
X257440Y166116D01*
X256304Y164980D01*
X250309Y164980D01*
X247007Y168281D01*
X247007Y174277D01*
X250309Y177578D01*
X256304Y177578D01*
X259606Y174277D01*
X259606Y171225D01*
X260447Y172066D01*
X265851Y172066D01*
X268858Y169060D01*
X268858Y163655D01*
X265851Y160649D01*
X260447Y160649D01*
X260196Y160900D01*
X248073Y148776D01*
X241041Y148776D01*
X241041Y117976D01*
X242789Y119724D01*
X247210Y119724D01*
X249724Y117210D01*
X249724Y112789D01*
X247210Y110275D01*
X242789Y110275D01*
X240872Y112192D01*
X207304Y78624D01*
X198062Y78624D01*
X197948Y78401D01*
X197198Y77651D01*
X196252Y77169D01*
X195203Y77003D01*
X194154Y77169D01*
X193992Y77251D01*
X193992Y72426D01*
X194522Y72426D01*
X195675Y71273D01*
X195675Y71273D01*
X204809Y62138D01*
X205335Y62221D01*
X206384Y62055D01*
X207330Y61573D01*
X208080Y60823D01*
X208562Y59877D01*
X208729Y58828D01*
X208562Y57780D01*
X208080Y56834D01*
X207360Y56114D01*
X208259Y56114D01*
X215923Y63777D01*
X215916Y63823D01*
X216082Y64871D01*
X216564Y65817D01*
X217314Y66568D01*
X218260Y67050D01*
X219309Y67216D01*
X220358Y67050D01*
X221303Y66568D01*
X222054Y65817D01*
X222536Y64871D01*
X222702Y63823D01*
X222536Y62774D01*
X222054Y61828D01*
X221303Y61078D01*
X220358Y60596D01*
X219309Y60430D01*
X219264Y60437D01*
X217376Y58549D01*
X217589Y58658D01*
X218638Y58824D01*
X219686Y58658D01*
X220632Y58176D01*
X221383Y57425D01*
X221865Y56479D01*
X222031Y55431D01*
X221865Y54382D01*
X221383Y53436D01*
X220632Y52685D01*
X219686Y52203D01*
X218638Y52037D01*
X217871Y52159D01*
X213802Y48090D01*
X194415Y48090D01*
X222785Y19720D01*
X222789Y19724D01*
X227210Y19724D01*
X229724Y17210D01*
X229724Y12789D01*
X227210Y10275D01*
X222789Y10275D01*
X220275Y12789D01*
X220275Y17210D01*
X220279Y17214D01*
X192734Y44759D01*
X102314Y44759D01*
X102200Y44537D01*
X101450Y43786D01*
X100504Y43304D01*
X99455Y43138D01*
X98407Y43304D01*
X97461Y43786D01*
X96710Y44537D01*
X96228Y45482D01*
X96062Y46531D01*
X96228Y47580D01*
X96710Y48525D01*
X97461Y49276D01*
X98407Y49758D01*
X99455Y49924D01*
X100504Y49758D01*
X101450Y49276D01*
X102200Y48525D01*
X102314Y48303D01*
X189610Y48303D01*
X185619Y52294D01*
X185619Y57832D01*
X185396Y57945D01*
X184645Y58696D01*
X184163Y59642D01*
X183997Y60690D01*
X184163Y61739D01*
X184645Y62685D01*
X185396Y63436D01*
X186342Y63918D01*
X187390Y64084D01*
X188439Y63918D01*
X189385Y63436D01*
X190136Y62685D01*
X190618Y61739D01*
X190784Y60690D01*
X190618Y59642D01*
X190136Y58696D01*
X189385Y57945D01*
X189162Y57832D01*
X189162Y55492D01*
X189291Y55746D01*
X190042Y56497D01*
X190988Y56979D01*
X192037Y57145D01*
X193085Y56979D01*
X194031Y56497D01*
X194414Y56114D01*
X203310Y56114D01*
X202590Y56834D01*
X202108Y57780D01*
X201942Y58828D01*
X202025Y59354D01*
X192891Y68489D01*
X186778Y68489D01*
X186764Y68463D01*
X186014Y67712D01*
X185068Y67230D01*
X184019Y67064D01*
X182971Y67230D01*
X182025Y67712D01*
X181274Y68463D01*
X180792Y69409D01*
X180626Y70457D01*
X180792Y71506D01*
X181274Y72452D01*
X182025Y73203D01*
X182971Y73684D01*
X184019Y73851D01*
X185068Y73684D01*
X186014Y73203D01*
X186764Y72452D01*
X186778Y72426D01*
X190055Y72426D01*
X190055Y81699D01*
X168509Y60152D01*
X98830Y60152D01*
X78986Y40308D01*
X79212Y40272D01*
X80158Y39790D01*
X80908Y39040D01*
X81022Y38817D01*
X153688Y38817D01*
X172785Y19720D01*
X172789Y19724D01*
X177210Y19724D01*
X179724Y17210D01*
X179724Y12789D01*
X177210Y10275D01*
X172789Y10275D01*
X80752Y180935D02*
X77450Y184236D01*
X77450Y190231D01*
X80752Y193533D01*
X86747Y193533D01*
X90049Y190231D01*
X90049Y184236D01*
X86747Y180935D01*
X80752Y180935D01*
X103887Y147853D02*
X103887Y162427D01*
X103504Y162810D01*
X103022Y163756D01*
X102856Y164805D01*
X103022Y165853D01*
X103504Y166799D01*
X103623Y166918D01*
X97106Y166918D01*
X95039Y164851D01*
X95039Y154313D01*
X95610Y153945D01*
X96389Y153046D01*
X96884Y151964D01*
X97047Y150829D01*
X97047Y149170D01*
X96884Y148035D01*
X96389Y146953D01*
X95610Y146054D01*
X94610Y145410D01*
X93468Y145075D01*
X92279Y145075D01*
X91137Y145410D01*
X90137Y146054D01*
X89358Y146953D01*
X88937Y147875D01*
X88515Y146953D01*
X87736Y146054D01*
X86736Y145410D01*
X85594Y145075D01*
X84405Y145075D01*
X83263Y145410D01*
X82263Y146054D01*
X81484Y146953D01*
X81062Y147875D01*
X80641Y146953D01*
X79862Y146054D01*
X79549Y145852D01*
X79549Y142853D01*
X82853Y139549D01*
X95584Y139549D01*
X103887Y147853D01*
X68331Y42985D02*
X95418Y70071D01*
X169210Y70071D01*
X171850Y72711D01*
X157976Y72711D01*
X157863Y72489D01*
X157112Y71738D01*
X156166Y71256D01*
X155118Y71090D01*
X154069Y71256D01*
X153123Y71738D01*
X152372Y72489D01*
X151891Y73434D01*
X151724Y74483D01*
X151891Y75532D01*
X152372Y76477D01*
X153123Y77228D01*
X154025Y77688D01*
X147858Y77688D01*
X147745Y77465D01*
X146994Y76714D01*
X146048Y76232D01*
X145000Y76066D01*
X143951Y76232D01*
X143005Y76714D01*
X142254Y77465D01*
X141772Y78411D01*
X141606Y79459D01*
X141772Y80508D01*
X142254Y81454D01*
X143005Y82204D01*
X143951Y82686D01*
X145000Y82853D01*
X146048Y82686D01*
X146994Y82204D01*
X147745Y81454D01*
X147858Y81231D01*
X168521Y81231D01*
X168126Y82005D01*
X167960Y83054D01*
X168126Y84102D01*
X168608Y85048D01*
X169359Y85799D01*
X170305Y86281D01*
X171353Y86447D01*
X172402Y86281D01*
X173348Y85799D01*
X173838Y85309D01*
X177977Y89447D01*
X177031Y89929D01*
X176280Y90680D01*
X175798Y91626D01*
X175632Y92674D01*
X175798Y93723D01*
X176280Y94669D01*
X177031Y95419D01*
X177254Y95533D01*
X177254Y100240D01*
X167214Y110279D01*
X167210Y110275D01*
X162789Y110275D01*
X160275Y112789D01*
X160275Y117210D01*
X162789Y119724D01*
X167210Y119724D01*
X169724Y117210D01*
X169724Y112789D01*
X169720Y112785D01*
X180797Y101707D01*
X180797Y95533D01*
X181020Y95419D01*
X181771Y94669D01*
X182253Y93723D01*
X183228Y94698D01*
X183228Y110275D01*
X182789Y110275D01*
X180275Y112789D01*
X180275Y117210D01*
X182789Y119724D01*
X187210Y119724D01*
X189724Y117210D01*
X189724Y112789D01*
X187210Y110275D01*
X186771Y110275D01*
X186771Y95972D01*
X198228Y107428D01*
X198228Y111293D01*
X197210Y110275D01*
X192789Y110275D01*
X190275Y112789D01*
X190275Y117210D01*
X190279Y117214D01*
X165516Y141978D01*
X160314Y141978D01*
X160314Y141244D01*
X157505Y138435D01*
X152494Y138435D01*
X150000Y140929D01*
X147505Y138435D01*
X142494Y138435D01*
X139685Y141244D01*
X139685Y145226D01*
X126644Y132185D01*
X140947Y117882D01*
X142789Y119724D01*
X147210Y119724D01*
X149724Y117210D01*
X149724Y112789D01*
X147210Y110275D01*
X147139Y110275D01*
X147216Y110123D01*
X147382Y109075D01*
X147216Y108026D01*
X146734Y107080D01*
X145984Y106330D01*
X145038Y105848D01*
X143989Y105682D01*
X142941Y105848D01*
X141995Y106330D01*
X141244Y107080D01*
X140762Y108026D01*
X140596Y109075D01*
X140717Y109841D01*
X138747Y111812D01*
X137210Y110275D01*
X132789Y110275D01*
X132785Y110279D01*
X65920Y43415D01*
X54566Y43415D01*
X54289Y42985D01*
X68331Y42985D01*
X157778Y93537D02*
X156729Y93703D01*
X155783Y94185D01*
X155033Y94936D01*
X154551Y95882D01*
X154385Y96931D01*
X154506Y97697D01*
X153228Y98975D01*
X153228Y110275D01*
X152789Y110275D01*
X150275Y112789D01*
X150275Y117210D01*
X152789Y119724D01*
X157210Y119724D01*
X159724Y117210D01*
X159724Y112789D01*
X157210Y110275D01*
X156771Y110275D01*
X156771Y100443D01*
X157012Y100202D01*
X157778Y100324D01*
X158826Y100158D01*
X159772Y99676D01*
X160523Y98925D01*
X161005Y97979D01*
X161171Y96931D01*
X161005Y95882D01*
X160523Y94936D01*
X159772Y94185D01*
X158826Y93703D01*
X157778Y93537D01*
X172789Y110275D02*
X170275Y112789D01*
X170275Y117210D01*
X172789Y119724D01*
X177210Y119724D01*
X179724Y117210D01*
X179724Y112789D01*
X177210Y110275D01*
X172789Y110275D01*
X184019Y70457D02*
X192024Y70457D01*
X192024Y82610D02*
X192024Y70457D01*
X194594Y85180D02*
X192024Y82610D01*
X194594Y85180D02*
X203653Y85180D01*
X230106Y111633D01*
X230106Y127242D01*
X222024Y135324D01*
X222024Y138621D02*
X222024Y135324D01*
X222024Y138621D02*
X201895Y158750D01*
X112305Y158750D01*
X106250Y164805D01*
X30000Y37312D02*
X50000Y37312D01*
X205335Y58828D02*
X193706Y70457D01*
X192024Y70457D01*
X25625Y123750D02*
X25625Y123750D01*
X25625Y123750D01*
X77187Y149938D02*
X77187Y141875D01*
X77187Y149938D02*
X77125Y150000D01*
X77187Y141875D02*
X81875Y137187D01*
X96562Y137187D01*
X106250Y146875D01*
X106250Y164805D01*
X30000Y37312D02*
X10000Y37312D01*
X192037Y53751D02*
X209238Y53751D01*
X219309Y63823D01*
G54D20*
X129483Y185649D02*
X123256Y191876D01*
X108077Y191876D01*
X93592Y177391D01*
X86693Y170492D01*
X54507Y170492D01*
X39375Y185625D01*
X30000Y29438D02*
X10000Y29438D01*
X145000Y173750D02*
X145000Y175642D01*
X134992Y185649D01*
X129483Y185649D01*
X30000Y29438D02*
X50000Y29438D01*
X39375Y185625D02*
X39375Y185625D01*
X129483Y185649D02*
X129483Y185649D01*
X190377Y174182D02*
X155432Y174182D01*
G54D24*
X184019Y70457D03*
X222024Y135324D03*
X106250Y164805D03*
X205335Y58828D03*
X190377Y174182D03*
X84356Y79888D03*
X219685Y105764D03*
X179025Y92674D03*
X187390Y60690D03*
X218638Y55431D03*
X157778Y96931D03*
X143989Y109075D03*
X219309Y63823D03*
X192037Y53751D03*
X78163Y37045D03*
X155118Y74483D03*
X216076Y136179D03*
X145000Y79459D03*
X210993Y137715D03*
X171353Y83054D03*
X195203Y80396D03*
X234162Y150548D03*
X99455Y46531D03*
G54D36*
X145000Y173750D03*
G54D37*
X85000Y15000D03*
X265000Y115000D03*
X95000Y15000D03*
X255000Y115000D03*
X105000Y15000D03*
X245000Y115000D03*
X115000Y15000D03*
X235000Y115000D03*
X125000Y15000D03*
X225000Y115000D03*
X135000Y15000D03*
X215000Y115000D03*
X145000Y15000D03*
X205000Y115000D03*
X155000Y15000D03*
X195000Y115000D03*
X165000Y15000D03*
X185000Y115000D03*
X175000Y15000D03*
X175000Y115000D03*
X185000Y15000D03*
X165000Y115000D03*
X195000Y15000D03*
X155000Y115000D03*
X205000Y15000D03*
X145000Y115000D03*
X215000Y15000D03*
X135000Y115000D03*
X225000Y15000D03*
X125000Y115000D03*
X235000Y15000D03*
X115000Y115000D03*
X245000Y15000D03*
X105000Y115000D03*
X255000Y15000D03*
X95000Y115000D03*
X265000Y15000D03*
X85000Y115000D03*
G54D38*
X155000Y173750D03*
X145000Y163750D03*
X155000Y163750D03*
X145000Y153750D03*
X155000Y153750D03*
X145000Y143750D03*
X155000Y143750D03*
X15625Y123750D03*
X25625Y123750D03*
X15625Y113750D03*
X25625Y113750D03*
X15625Y103750D03*
X25625Y103750D03*
X25625Y93750D03*
X15625Y93750D03*
X15625Y83750D03*
X25625Y83750D03*
G54D39*
X39375Y155625D03*
X39375Y185625D03*
X263149Y148641D03*
X263149Y166358D03*
G54D40*
X129483Y185649D03*
X111766Y185649D03*
G54D41*
X73907Y177391D03*
X93592Y177391D03*
X83750Y187234D03*
G54D42*
X253307Y143720D03*
X253307Y171279D03*
G54D43*
X134404Y175807D03*
X106845Y175807D03*
G54D44*
X265000Y186250D03*
X11250Y11250D03*
X11250Y186250D03*
G54D45*
X92874Y150000D03*
X85000Y150000D03*
X77125Y150000D03*
G54D46*
X10000Y29438D03*
X10000Y37312D03*
X10000Y45187D03*
X10000Y53061D03*
X30000Y29438D03*
X30000Y37312D03*
X30000Y45187D03*
X30000Y53061D03*
X50000Y29438D03*
X50000Y37312D03*
X50000Y45187D03*
X50000Y53061D03*
G36*
X84409Y150000D02*
X85590Y150000D01*
X85590Y154968D01*
X84409Y154968D01*
X84409Y150000D01*
G37*
G36*
X84409Y145031D02*
X85590Y145031D01*
X85590Y150000D01*
X84409Y150000D01*
X84409Y145031D01*
G37*
G36*
X215000Y13950D02*
X219771Y13950D01*
X219771Y16049D01*
X215000Y16049D01*
X215000Y13950D01*
G37*
G36*
X210228Y13950D02*
X215000Y13950D01*
X215000Y16049D01*
X210228Y16049D01*
X210228Y13950D01*
G37*
G36*
X213950Y15000D02*
X216049Y15000D01*
X216049Y19771D01*
X213950Y19771D01*
X213950Y15000D01*
G37*
G36*
X213950Y10228D02*
X216049Y10228D01*
X216049Y15000D01*
X213950Y15000D01*
X213950Y10228D01*
G37*
G36*
X145000Y113950D02*
X149771Y113950D01*
X149771Y116049D01*
X145000Y116049D01*
X145000Y113950D01*
G37*
G36*
X143950Y115000D02*
X146049Y115000D01*
X146049Y119771D01*
X143950Y119771D01*
X143950Y115000D01*
G37*
G36*
X85000Y113950D02*
X89771Y113950D01*
X89771Y116049D01*
X85000Y116049D01*
X85000Y113950D01*
G37*
G36*
X80228Y113950D02*
X85000Y113950D01*
X85000Y116049D01*
X80228Y116049D01*
X80228Y113950D01*
G37*
G36*
X83950Y115000D02*
X86049Y115000D01*
X86049Y119771D01*
X83950Y119771D01*
X83950Y115000D01*
G37*
G36*
X83950Y110228D02*
X86049Y110228D01*
X86049Y115000D01*
X83950Y115000D01*
X83950Y110228D01*
G37*
G36*
X261968Y148641D02*
X264330Y148641D01*
X264330Y154397D01*
X261968Y154397D01*
X261968Y148641D01*
G37*
G36*
X261968Y142885D02*
X264330Y142885D01*
X264330Y148641D01*
X261968Y148641D01*
X261968Y142885D01*
G37*
G36*
X257393Y148051D02*
X263149Y148051D01*
X263149Y149232D01*
X257393Y149232D01*
X257393Y148051D01*
G37*
G36*
X263149Y147460D02*
X268905Y147460D01*
X268905Y149822D01*
X263149Y149822D01*
X263149Y147460D01*
G37*
G36*
X14443Y123750D02*
X16806Y123750D01*
X16806Y129112D01*
X14443Y129112D01*
X14443Y123750D01*
G37*
G36*
X10262Y122568D02*
X15625Y122568D01*
X15625Y124931D01*
X10262Y124931D01*
X10262Y122568D01*
G37*
G36*
X24443Y78387D02*
X26806Y78387D01*
X26806Y83750D01*
X24443Y83750D01*
X24443Y78387D01*
G37*
G36*
X25625Y82568D02*
X30987Y82568D01*
X30987Y84931D01*
X25625Y84931D01*
X25625Y82568D01*
G37*
G36*
X80750Y193385D02*
X260251Y195523D01*
X260249Y195816D01*
X16002Y195816D01*
X15997Y195526D01*
X80750Y193385D01*
X80750Y193385D01*
G37*
G36*
X86748Y193385D02*
X260252Y195523D01*
X260248Y195818D01*
X80603Y193679D01*
X80605Y193385D01*
X86748Y193385D01*
X86748Y193385D01*
G37*
G36*
X109059Y191210D02*
X260253Y195525D01*
X260247Y195818D01*
X86606Y193679D01*
X86594Y193400D01*
X109059Y191210D01*
X109059Y191210D01*
G37*
G36*
X114471Y191210D02*
X260254Y195526D01*
X260245Y195821D01*
X108914Y191501D01*
X108918Y191210D01*
X114471Y191210D01*
X114471Y191210D01*
G37*
G36*
X126783Y191210D02*
X260254Y195526D01*
X260245Y195821D01*
X114319Y191501D01*
X114323Y191210D01*
X126783Y191210D01*
X126783Y191210D01*
G37*
G36*
X132188Y191210D02*
X260255Y195526D01*
X260245Y195821D01*
X126630Y191501D01*
X126635Y191210D01*
X132188Y191210D01*
X132188Y191210D01*
G37*
G36*
X36660Y191185D02*
X80901Y193393D01*
X80898Y193676D01*
X16016Y195821D01*
X15984Y195552D01*
X36660Y191185D01*
X36660Y191185D01*
G37*
G36*
X42081Y191186D02*
X80907Y193394D01*
X80891Y193688D01*
X36521Y191473D01*
X36528Y191186D01*
X42081Y191186D01*
X42081Y191186D01*
G37*
G36*
X1642Y190750D02*
X6526Y195634D01*
X6451Y195816D01*
X1019Y195816D01*
X1465Y190814D01*
X1642Y190750D01*
X1642Y190750D01*
G37*
G36*
X20836Y190771D02*
X36807Y191189D01*
X36831Y191450D01*
X16070Y195836D01*
X15964Y195642D01*
X20836Y190771D01*
X20836Y190771D01*
G37*
G36*
X255415Y190772D02*
X260278Y195635D01*
X260198Y195820D01*
X132035Y191500D01*
X132040Y191211D01*
X255415Y190772D01*
X255415Y190772D01*
G37*
G36*
X77510Y190082D02*
X80928Y193500D01*
X80845Y193686D01*
X41927Y191473D01*
X41931Y191190D01*
X77510Y190082D01*
X77510Y190082D01*
G37*
G36*
X89991Y190080D02*
X109209Y191218D01*
X109214Y191491D01*
X86658Y193690D01*
X86569Y193502D01*
X89991Y190080D01*
X89991Y190080D01*
G37*
G36*
X106111Y188196D02*
X109240Y191325D01*
X109157Y191511D01*
X89905Y190371D01*
X89897Y190101D01*
X106111Y188196D01*
X106111Y188196D01*
G37*
G36*
X117434Y188183D02*
X126946Y191256D01*
X126907Y191505D01*
X114370Y191505D01*
X114294Y191323D01*
X117434Y188183D01*
X117434Y188183D01*
G37*
G36*
X123835Y188204D02*
X126967Y191336D01*
X126846Y191534D01*
X117309Y188453D01*
X117349Y188204D01*
X123835Y188204D01*
X123835Y188204D01*
G37*
G36*
X135132Y188203D02*
X255503Y190776D01*
X255500Y191067D01*
X132087Y191506D01*
X132011Y191323D01*
X135132Y188203D01*
X135132Y188203D01*
G37*
G36*
X33714Y188166D02*
X36847Y191300D01*
X36768Y191483D01*
X20760Y191064D01*
X20737Y190802D01*
X33714Y188166D01*
X33714Y188166D01*
G37*
G36*
X45026Y188176D02*
X77600Y190092D01*
X77596Y190375D01*
X41981Y191484D01*
X41902Y191300D01*
X45026Y188176D01*
X45026Y188176D01*
G37*
G36*
X77598Y184069D02*
X77598Y190388D01*
X44940Y188466D01*
X44931Y188197D01*
X77598Y184069D01*
X77598Y184069D01*
G37*
G36*
X89901Y184046D02*
X106213Y188239D01*
X106197Y188484D01*
X89901Y190397D01*
X89901Y184046D01*
X89901Y184046D01*
G37*
G36*
X70902Y183542D02*
X77595Y184100D01*
X77601Y184366D01*
X44959Y188491D01*
X44915Y188207D01*
X70902Y183542D01*
X70902Y183542D01*
G37*
G36*
X76966Y183543D02*
X77628Y184205D01*
X77541Y184392D01*
X70756Y183826D01*
X70768Y183543D01*
X76966Y183543D01*
X76966Y183543D01*
G37*
G36*
X90552Y183524D02*
X106239Y188252D01*
X106161Y188530D01*
X89929Y184358D01*
X89884Y184192D01*
X90552Y183524D01*
X90552Y183524D01*
G37*
G36*
X96624Y183543D02*
X106245Y188279D01*
X106145Y188532D01*
X90430Y183795D01*
X90467Y183543D01*
X96624Y183543D01*
X96624Y183543D01*
G37*
G36*
X106205Y182787D02*
X106205Y188589D01*
X96423Y183773D01*
X96466Y183552D01*
X106205Y182787D01*
X106205Y182787D01*
G37*
G36*
X117499Y182773D02*
X123948Y188306D01*
X123877Y188499D01*
X117327Y188499D01*
X117327Y182852D01*
X117499Y182773D01*
X117499Y182773D01*
G37*
G36*
X123922Y182799D02*
X123922Y188446D01*
X123750Y188525D01*
X117301Y182992D01*
X117372Y182799D01*
X123922Y182799D01*
X123922Y182799D01*
G37*
G36*
X135044Y182789D02*
X255508Y190783D01*
X255495Y191071D01*
X135044Y188496D01*
X135044Y182789D01*
X135044Y182789D01*
G37*
G36*
X33661Y182751D02*
X33813Y182835D01*
X33813Y188448D01*
X20804Y191090D01*
X20712Y190861D01*
X33661Y182751D01*
X33661Y182751D01*
G37*
G36*
X44936Y182770D02*
X71047Y183547D01*
X71066Y183812D01*
X44936Y188503D01*
X44936Y182770D01*
X44936Y182770D01*
G37*
G36*
X103859Y181952D02*
X106221Y182851D01*
X106187Y183085D01*
X96464Y183848D01*
X96423Y183576D01*
X103859Y181952D01*
X103859Y181952D01*
G37*
G36*
X106997Y181958D02*
X107073Y182140D01*
X106094Y183119D01*
X103680Y182200D01*
X103724Y181958D01*
X106997Y181958D01*
X106997Y181958D01*
G37*
G36*
X134259Y181951D02*
X255511Y190784D01*
X255491Y191077D01*
X135126Y183090D01*
X134174Y182138D01*
X134259Y181951D01*
X134259Y181951D01*
G37*
G36*
X137407Y181958D02*
X255512Y190784D01*
X255490Y191078D01*
X134198Y182243D01*
X134208Y181958D01*
X137407Y181958D01*
X137407Y181958D01*
G37*
G36*
X1461Y181429D02*
X1751Y181433D01*
X1751Y190927D01*
X1315Y195825D01*
X1029Y195808D01*
X1461Y181429D01*
X1461Y181429D01*
G37*
G36*
X20748Y181415D02*
X33786Y182786D01*
X33833Y182991D01*
X20900Y191092D01*
X20748Y191007D01*
X20748Y181415D01*
X20748Y181415D01*
G37*
G36*
X255501Y181430D02*
X255501Y191079D01*
X137249Y182242D01*
X137259Y181959D01*
X255501Y181430D01*
X255501Y181430D01*
G37*
G36*
X80776Y180735D02*
X80952Y180943D01*
X77450Y184445D01*
X76677Y183672D01*
X80776Y180735D01*
X80776Y180735D01*
G37*
G36*
X86723Y180735D02*
X90822Y183672D01*
X90049Y184445D01*
X86547Y180943D01*
X86723Y180735D01*
X86723Y180735D01*
G37*
G36*
X67662Y180234D02*
X71085Y183657D01*
X71005Y183841D01*
X44941Y183066D01*
X44930Y182791D01*
X67662Y180234D01*
X67662Y180234D01*
G37*
G36*
X80206Y180180D02*
X80979Y180953D01*
X76880Y183890D01*
X76704Y183682D01*
X80206Y180180D01*
X80206Y180180D01*
G37*
G36*
X80116Y180233D02*
X86901Y180799D01*
X86889Y181082D01*
X80691Y181082D01*
X80029Y180420D01*
X80116Y180233D01*
X80116Y180233D01*
G37*
G36*
X87293Y180180D02*
X90795Y183682D01*
X90619Y183890D01*
X86520Y180953D01*
X87293Y180180D01*
X87293Y180180D01*
G37*
G36*
X87391Y180241D02*
X87467Y180423D01*
X86803Y181087D01*
X80053Y180524D01*
X80065Y180241D01*
X87391Y180241D01*
X87391Y180241D01*
G37*
G36*
X99858Y180213D02*
X104005Y182013D01*
X103984Y182227D01*
X96513Y183858D01*
X96407Y183664D01*
X99858Y180213D01*
X99858Y180213D01*
G37*
G36*
X114403Y179764D02*
X123940Y182845D01*
X123900Y183094D01*
X117414Y183094D01*
X114282Y179963D01*
X114403Y179764D01*
X114403Y179764D01*
G37*
G36*
X126879Y179793D02*
X126955Y179975D01*
X123815Y183115D01*
X114303Y180042D01*
X114342Y179793D01*
X126879Y179793D01*
X126879Y179793D01*
G37*
G36*
X111860Y179793D02*
X129389Y179793D01*
X129389Y180088D01*
X114469Y180088D01*
X111860Y180088D01*
X111860Y179793D01*
X111860Y179793D01*
G37*
G36*
X36760Y179758D02*
X36850Y179946D01*
X33720Y183076D01*
X20748Y181712D01*
X20748Y181446D01*
X36760Y179758D01*
X36760Y179758D01*
G37*
G36*
X41980Y179766D02*
X67749Y180244D01*
X67762Y180520D01*
X45029Y183077D01*
X41902Y179950D01*
X41980Y179766D01*
X41980Y179766D01*
G37*
G36*
X140666Y178916D02*
X255503Y181434D01*
X255500Y181726D01*
X137301Y182254D01*
X137227Y182065D01*
X140666Y178916D01*
X140666Y178916D01*
G37*
G36*
X149278Y178917D02*
X255505Y181435D01*
X255498Y181729D01*
X140573Y179209D01*
X140576Y178917D01*
X149278Y178917D01*
X149278Y178917D01*
G37*
G36*
X152496Y178917D02*
X255505Y181435D01*
X255498Y181730D01*
X149127Y179209D01*
X149131Y178917D01*
X152496Y178917D01*
X152496Y178917D01*
G37*
G36*
X157507Y178917D02*
X255505Y181435D01*
X255498Y181730D01*
X152345Y179208D01*
X152348Y178917D01*
X157507Y178917D01*
X157507Y178917D01*
G37*
G36*
X140583Y178716D02*
X140936Y179069D01*
X137395Y182312D01*
X137195Y182104D01*
X140583Y178716D01*
X140583Y178716D01*
G37*
G36*
X100494Y178543D02*
X104038Y182088D01*
X103901Y182290D01*
X99699Y180467D01*
X100494Y178543D01*
X100494Y178543D01*
G37*
G36*
X113087Y178652D02*
X129394Y179803D01*
X129384Y180088D01*
X111909Y180088D01*
X111834Y179906D01*
X113087Y178652D01*
X113087Y178652D01*
G37*
G36*
X128166Y178657D02*
X129418Y179909D01*
X129333Y180095D01*
X112992Y178941D01*
X113002Y178657D01*
X128166Y178657D01*
X128166Y178657D01*
G37*
G36*
X150284Y177849D02*
X152664Y178982D01*
X152612Y179212D01*
X149178Y179212D01*
X149102Y179030D01*
X150284Y177849D01*
X150284Y177849D01*
G37*
G36*
X250359Y177430D02*
X255529Y181529D01*
X255456Y181729D01*
X157357Y179208D01*
X157358Y178919D01*
X250359Y177430D01*
X250359Y177430D01*
G37*
G36*
X256491Y177431D02*
X255444Y181838D01*
X250135Y177629D01*
X250204Y177431D01*
X256491Y177431D01*
X256491Y177431D01*
G37*
G36*
X190374Y177428D02*
X250455Y177431D01*
X250458Y177724D01*
X157362Y179214D01*
X157353Y178924D01*
X190374Y177428D01*
X190374Y177428D01*
G37*
G36*
X189336Y177261D02*
X190532Y177450D01*
X190517Y177717D01*
X157365Y179219D01*
X157350Y178925D01*
X189336Y177261D01*
X189336Y177261D01*
G37*
G36*
X191414Y177262D02*
X250457Y177431D01*
X250456Y177726D01*
X190241Y177723D01*
X190219Y177451D01*
X191414Y177262D01*
X191414Y177262D01*
G37*
G36*
X188413Y176777D02*
X189497Y177329D01*
X189449Y177551D01*
X157366Y179219D01*
X157349Y178927D01*
X188413Y176777D01*
X188413Y176777D01*
G37*
G36*
X192337Y176779D02*
X250458Y177432D01*
X250456Y177726D01*
X191309Y177557D01*
X191255Y177331D01*
X192337Y176779D01*
X192337Y176779D01*
G37*
G36*
X150349Y176711D02*
X152686Y179048D01*
X152543Y179251D01*
X150167Y178120D01*
X150167Y176786D01*
X150349Y176711D01*
X150349Y176711D01*
G37*
G36*
X15838Y176441D02*
X36823Y179790D01*
X36816Y180049D01*
X20841Y181733D01*
X15740Y176632D01*
X15838Y176441D01*
X15838Y176441D01*
G37*
G36*
X15795Y176439D02*
X42233Y179787D01*
X42215Y180063D01*
X36660Y180063D01*
X15754Y176727D01*
X15795Y176439D01*
X15795Y176439D01*
G37*
G36*
X15788Y176446D02*
X67762Y180252D01*
X67749Y180539D01*
X42066Y180063D01*
X15759Y176732D01*
X15788Y176446D01*
X15788Y176446D01*
G37*
G36*
X260403Y176434D02*
X260512Y176629D01*
X255379Y181762D01*
X255184Y181653D01*
X256181Y177456D01*
X260403Y176434D01*
X260403Y176434D01*
G37*
G36*
X159965Y176396D02*
X188526Y176782D01*
X188534Y177065D01*
X157413Y179219D01*
X157328Y179032D01*
X159965Y176396D01*
X159965Y176396D01*
G37*
G36*
X188061Y176397D02*
X188557Y176893D01*
X188480Y177076D01*
X159876Y176690D01*
X159878Y176397D01*
X188061Y176397D01*
X188061Y176397D01*
G37*
G36*
X193063Y176028D02*
X250459Y177434D01*
X250454Y177728D01*
X192272Y177074D01*
X192198Y176892D01*
X193063Y176028D01*
X193063Y176028D01*
G37*
G36*
X193516Y175079D02*
X250461Y177437D01*
X250452Y177729D01*
X192884Y176318D01*
X193516Y175079D01*
X193516Y175079D01*
G37*
G36*
X67755Y174240D02*
X67755Y180548D01*
X15771Y176741D01*
X15775Y176462D01*
X67755Y174240D01*
X67755Y174240D01*
G37*
G36*
X67749Y174241D02*
X67761Y174535D01*
X15924Y176751D01*
X6434Y176751D01*
X6428Y176462D01*
X67749Y174241D01*
X67749Y174241D01*
G37*
G36*
X80230Y174220D02*
X87467Y180343D01*
X87396Y180536D01*
X80059Y180536D01*
X80059Y174299D01*
X80230Y174220D01*
X80230Y174220D01*
G37*
G36*
X87440Y174246D02*
X87440Y180483D01*
X87269Y180562D01*
X80032Y174440D01*
X80103Y174246D01*
X87440Y174246D01*
X87440Y174246D01*
G37*
G36*
X100017Y174236D02*
X100698Y178823D01*
X99981Y180557D01*
X99744Y180510D01*
X99744Y174256D01*
X100017Y174236D01*
X100017Y174236D01*
G37*
G36*
X247067Y174128D02*
X250485Y177545D01*
X250404Y177730D01*
X193455Y175372D01*
X193458Y175086D01*
X247067Y174128D01*
X247067Y174128D01*
G37*
G36*
X259674Y173999D02*
X260516Y176710D01*
X256230Y177748D01*
X256121Y177553D01*
X259674Y173999D01*
X259674Y173999D01*
G37*
G36*
X259556Y174114D02*
X269832Y176490D01*
X269802Y176751D01*
X260220Y176751D01*
X259439Y174239D01*
X259556Y174114D01*
X259556Y174114D01*
G37*
G36*
X193644Y174034D02*
X247154Y174129D01*
X247156Y174422D01*
X193431Y175381D01*
X193644Y174034D01*
X193644Y174034D01*
G37*
G36*
X193431Y172982D02*
X247157Y174132D01*
X247153Y174425D01*
X193644Y174330D01*
X193431Y172982D01*
X193431Y172982D01*
G37*
G36*
X100456Y172641D02*
X100693Y172688D01*
X100693Y178941D01*
X100420Y178962D01*
X99739Y174375D01*
X100456Y172641D01*
X100456Y172641D01*
G37*
G36*
X112997Y172591D02*
X128273Y178713D01*
X128227Y178952D01*
X112997Y178952D01*
X112997Y172591D01*
X112997Y172591D01*
G37*
G36*
X128252Y172661D02*
X128252Y179022D01*
X112976Y172901D01*
X113022Y172661D01*
X128252Y172661D01*
X128252Y172661D01*
G37*
G36*
X192876Y172030D02*
X247159Y174135D01*
X247151Y174427D01*
X193513Y173279D01*
X192876Y172030D01*
X192876Y172030D01*
G37*
G36*
X260366Y171862D02*
X269854Y176529D01*
X269765Y176777D01*
X259408Y174382D01*
X260366Y171862D01*
X260366Y171862D01*
G37*
G36*
X265920Y171919D02*
X269860Y176600D01*
X269713Y176789D01*
X260276Y172147D01*
X260330Y171919D01*
X265920Y171919D01*
X265920Y171919D01*
G37*
G36*
X265862Y171860D02*
X274616Y181349D01*
X274407Y181549D01*
X269561Y176704D01*
X265646Y172051D01*
X265862Y171860D01*
X265862Y171860D01*
G37*
G36*
X188480Y171288D02*
X188557Y171471D01*
X188061Y171968D01*
X160168Y171968D01*
X160166Y171674D01*
X188480Y171288D01*
X188480Y171288D01*
G37*
G36*
X192278Y171284D02*
X247162Y174137D01*
X247148Y174430D01*
X193059Y172333D01*
X192195Y171470D01*
X192278Y171284D01*
X192278Y171284D01*
G37*
G36*
X160167Y171095D02*
X188530Y171290D01*
X188531Y171583D01*
X160167Y171970D01*
X160167Y171095D01*
X160167Y171095D01*
G37*
G36*
X259640Y171051D02*
X260619Y172030D01*
X259700Y174444D01*
X259458Y174400D01*
X259458Y171127D01*
X259640Y171051D01*
X259640Y171051D01*
G37*
G36*
X71000Y170936D02*
X71087Y171123D01*
X67671Y174539D01*
X6440Y176757D01*
X6423Y176469D01*
X71000Y170936D01*
X71000Y170936D01*
G37*
G36*
X76839Y170916D02*
X87458Y174291D01*
X87419Y174541D01*
X80145Y174541D01*
X76718Y171114D01*
X76839Y170916D01*
X76839Y170916D01*
G37*
G36*
X90693Y170944D02*
X90769Y171127D01*
X87334Y174562D01*
X76739Y171194D01*
X76778Y170944D01*
X90693Y170944D01*
X90693Y170944D01*
G37*
G36*
X96536Y170908D02*
X100738Y172731D01*
X99943Y174654D01*
X96399Y171110D01*
X96536Y170908D01*
X96536Y170908D01*
G37*
G36*
X189444Y170806D02*
X189500Y171034D01*
X188418Y171585D01*
X160167Y171391D01*
X160167Y171098D01*
X189444Y170806D01*
X189444Y170806D01*
G37*
G36*
X191315Y170801D02*
X247163Y174138D01*
X247147Y174432D01*
X192332Y171583D01*
X191252Y171032D01*
X191315Y170801D01*
X191315Y170801D01*
G37*
G36*
X94928Y170707D02*
X96747Y170965D01*
X96727Y171240D01*
X70762Y171240D01*
X70761Y170946D01*
X94928Y170707D01*
X94928Y170707D01*
G37*
G36*
X96955Y170707D02*
X96673Y171253D01*
X94761Y170981D01*
X94781Y170707D01*
X96955Y170707D01*
X96955Y170707D01*
G37*
G36*
X96648Y170656D02*
X100740Y172742D01*
X100618Y173001D01*
X96386Y171165D01*
X96648Y170656D01*
X96648Y170656D01*
G37*
G36*
X190512Y170639D02*
X190536Y170913D01*
X189341Y171103D01*
X160169Y171393D01*
X160165Y171099D01*
X190512Y170639D01*
X190512Y170639D01*
G37*
G36*
X190246Y170633D02*
X247164Y174138D01*
X247146Y174433D01*
X191410Y171102D01*
X190215Y170913D01*
X190246Y170633D01*
X190246Y170633D01*
G37*
G36*
X159434Y170312D02*
X190524Y170643D01*
X190525Y170934D01*
X160254Y171393D01*
X159357Y170495D01*
X159434Y170312D01*
X159434Y170312D01*
G37*
G36*
X97088Y170270D02*
X100743Y172765D01*
X100602Y173003D01*
X96464Y170894D01*
X97088Y170270D01*
X97088Y170270D01*
G37*
G36*
X102992Y170313D02*
X103068Y170496D01*
X100564Y173000D01*
X96933Y170521D01*
X96997Y170313D01*
X102992Y170313D01*
X102992Y170313D01*
G37*
G36*
X110711Y170300D02*
X128261Y172681D01*
X128243Y172957D01*
X113083Y172957D01*
X110617Y170490D01*
X110711Y170300D01*
X110711Y170300D01*
G37*
G36*
X130551Y170313D02*
X130627Y170496D01*
X128157Y172965D01*
X110640Y170589D01*
X110658Y170313D01*
X130551Y170313D01*
X130551Y170313D01*
G37*
G36*
X202876Y170313D02*
X202879Y170605D01*
X190378Y170937D01*
X159383Y170607D01*
X159385Y170313D01*
X202876Y170313D01*
X202876Y170313D01*
G37*
G36*
X202734Y170313D02*
X247165Y174142D01*
X247144Y174433D01*
X190227Y170928D01*
X190232Y170645D01*
X202734Y170313D01*
X202734Y170313D01*
G37*
G36*
X268904Y168805D02*
X274595Y181396D01*
X274386Y181535D01*
X265647Y172062D01*
X268904Y168805D01*
X268904Y168805D01*
G37*
G36*
X247155Y168126D02*
X247155Y174438D01*
X202580Y170596D01*
X202585Y170320D01*
X247155Y168126D01*
X247155Y168126D01*
G37*
G36*
X90755Y166483D02*
X95092Y170820D01*
X95018Y171001D01*
X70778Y171241D01*
X70747Y170977D01*
X90755Y166483D01*
X90755Y166483D01*
G37*
G36*
X90830Y166481D02*
X90877Y166758D01*
X70932Y171238D01*
X6447Y176763D01*
X6417Y176474D01*
X90830Y166481D01*
X90830Y166481D01*
G37*
G36*
X250396Y164821D02*
X250488Y165010D01*
X247072Y168426D01*
X202594Y170615D01*
X202571Y170331D01*
X250396Y164821D01*
X250396Y164821D01*
G37*
G36*
X257395Y163481D02*
X257588Y163553D01*
X257588Y166215D01*
X257406Y166290D01*
X256103Y164988D01*
X257395Y163481D01*
X257395Y163481D01*
G37*
G36*
X257516Y163491D02*
X257621Y163672D01*
X256372Y165127D01*
X250174Y165127D01*
X250150Y164859D01*
X257516Y163491D01*
X257516Y163491D01*
G37*
G36*
X257564Y163491D02*
X257608Y163774D01*
X250331Y165126D01*
X202601Y170624D01*
X202566Y170333D01*
X257564Y163491D01*
X257564Y163491D01*
G37*
G36*
X268961Y163490D02*
X274591Y181431D01*
X274332Y181530D01*
X268710Y169092D01*
X268710Y163529D01*
X268961Y163490D01*
X268961Y163490D01*
G37*
G36*
X257777Y163245D02*
X257870Y163435D01*
X257509Y163796D01*
X202602Y170626D01*
X202565Y170333D01*
X257777Y163245D01*
X257777Y163245D01*
G37*
G36*
X36644Y161182D02*
X90854Y166510D01*
X90857Y166775D01*
X6473Y176765D01*
X6402Y176528D01*
X36644Y161182D01*
X36644Y161182D01*
G37*
G36*
X42085Y161186D02*
X90870Y166514D01*
X90840Y166806D01*
X36518Y161466D01*
X36532Y161186D01*
X42085Y161186D01*
X42085Y161186D01*
G37*
G36*
X33684Y158136D02*
X36920Y161373D01*
X6522Y176798D01*
X6381Y176559D01*
X33684Y158136D01*
X33684Y158136D01*
G37*
G36*
X45033Y158168D02*
X90875Y166525D01*
X90834Y166807D01*
X41968Y161470D01*
X41907Y161294D01*
X45033Y158168D01*
X45033Y158168D01*
G37*
G36*
X139745Y156106D02*
X140385Y156746D01*
X140309Y156929D01*
X111343Y156929D01*
X111340Y156636D01*
X139745Y156106D01*
X139745Y156106D01*
G37*
G36*
X76577Y154770D02*
X90890Y166603D01*
X90794Y166810D01*
X44931Y158449D01*
X44940Y158194D01*
X76577Y154770D01*
X76577Y154770D01*
G37*
G36*
X77777Y154776D02*
X90914Y166632D01*
X90725Y166850D01*
X76357Y154971D01*
X76427Y154776D01*
X77777Y154776D01*
X77777Y154776D01*
G37*
G36*
X84493Y154776D02*
X90897Y166684D01*
X90701Y166837D01*
X77546Y154965D01*
X77619Y154776D01*
X84493Y154776D01*
X84493Y154776D01*
G37*
G36*
X85691Y154776D02*
X90900Y166715D01*
X90645Y166839D01*
X84158Y154776D01*
X85691Y154776D01*
X85691Y154776D01*
G37*
G36*
X75402Y154438D02*
X76689Y154816D01*
X76667Y155057D01*
X44953Y158489D01*
X44920Y158198D01*
X75402Y154438D01*
X75402Y154438D01*
G37*
G36*
X78845Y154440D02*
X84557Y154785D01*
X84548Y155071D01*
X77592Y155071D01*
X77556Y154818D01*
X78845Y154440D01*
X78845Y154440D01*
G37*
G36*
X83285Y154441D02*
X84573Y154819D01*
X84527Y155079D01*
X78710Y154727D01*
X78718Y154441D01*
X83285Y154441D01*
X83285Y154441D01*
G37*
G36*
X86831Y154407D02*
X90892Y166732D01*
X90629Y166833D01*
X85392Y154829D01*
X86831Y154407D01*
X86831Y154407D01*
G37*
G36*
X260459Y154143D02*
X269064Y163663D01*
X268855Y163862D01*
X265743Y160750D01*
X260240Y154335D01*
X260459Y154143D01*
X260459Y154143D01*
G37*
G36*
X260492Y154176D02*
X266025Y160625D01*
X265946Y160797D01*
X260299Y160797D01*
X260299Y154247D01*
X260492Y154176D01*
X260492Y154176D01*
G37*
G36*
X260305Y154200D02*
X260594Y154205D01*
X260594Y160710D01*
X260230Y161075D01*
X260045Y160995D01*
X260305Y154200D01*
X260305Y154200D01*
G37*
G36*
X265959Y154202D02*
X269035Y163724D01*
X268828Y163843D01*
X260273Y154378D01*
X260351Y154202D01*
X265959Y154202D01*
X265959Y154202D01*
G37*
G36*
X90856Y154154D02*
X90856Y166770D01*
X90607Y166810D01*
X86536Y154454D01*
X90856Y154154D01*
X90856Y154154D01*
G37*
G36*
X74422Y153791D02*
X75556Y154520D01*
X75510Y154722D01*
X44957Y158491D01*
X44917Y158202D01*
X74422Y153791D01*
X74422Y153791D01*
G37*
G36*
X79832Y153789D02*
X83423Y154468D01*
X83398Y154736D01*
X78751Y154736D01*
X78689Y154524D01*
X79832Y153789D01*
X79832Y153789D01*
G37*
G36*
X82306Y153798D02*
X83446Y154530D01*
X83355Y154756D01*
X79703Y154065D01*
X79728Y153798D01*
X82306Y153798D01*
X82306Y153798D01*
G37*
G36*
X87701Y153792D02*
X90859Y154183D01*
X90852Y154451D01*
X86632Y154744D01*
X86559Y154526D01*
X87701Y153792D01*
X87701Y153792D01*
G37*
G36*
X90180Y153798D02*
X90887Y154252D01*
X90807Y154474D01*
X87580Y154075D01*
X87598Y153798D01*
X90180Y153798D01*
X90180Y153798D01*
G37*
G36*
X234153Y153778D02*
X257852Y163311D01*
X257823Y163537D01*
X202626Y170623D01*
X202552Y170388D01*
X234153Y153778D01*
X234153Y153778D01*
G37*
G36*
X233086Y153621D02*
X234290Y153812D01*
X234325Y154022D01*
X202669Y170660D01*
X202531Y170402D01*
X233086Y153621D01*
X233086Y153621D01*
G37*
G36*
X235229Y153622D02*
X257883Y163327D01*
X257771Y163596D01*
X234002Y154036D01*
X234028Y153812D01*
X235229Y153622D01*
X235229Y153622D01*
G37*
G36*
X232162Y153125D02*
X233259Y153683D01*
X233262Y153861D01*
X202673Y170660D01*
X202530Y170407D01*
X232162Y153125D01*
X232162Y153125D01*
G37*
G36*
X236154Y153128D02*
X257885Y163333D01*
X257766Y163598D01*
X235066Y153873D01*
X235060Y153686D01*
X236154Y153128D01*
X236154Y153128D01*
G37*
G36*
X73666Y152886D02*
X74557Y153915D01*
X74497Y154079D01*
X44961Y158494D01*
X44914Y158208D01*
X73666Y152886D01*
X73666Y152886D01*
G37*
G36*
X80608Y152859D02*
X82434Y153872D01*
X82377Y154093D01*
X79767Y154093D01*
X79689Y153920D01*
X80608Y152859D01*
X80608Y152859D01*
G37*
G36*
X81551Y152899D02*
X82455Y153942D01*
X82299Y154135D01*
X80470Y153120D01*
X80527Y152899D01*
X81551Y152899D01*
X81551Y152899D01*
G37*
G36*
X88482Y152859D02*
X90308Y153872D01*
X90251Y154093D01*
X87641Y154093D01*
X87563Y153920D01*
X88482Y152859D01*
X88482Y152859D01*
G37*
G36*
X89425Y152899D02*
X90329Y153942D01*
X90173Y154135D01*
X88344Y153120D01*
X88401Y152899D01*
X89425Y152899D01*
X89425Y152899D01*
G37*
G36*
X33640Y152748D02*
X33813Y152827D01*
X33813Y158405D01*
X6546Y176804D01*
X6377Y176584D01*
X33640Y152748D01*
X33640Y152748D01*
G37*
G36*
X44936Y152774D02*
X73745Y152899D01*
X73769Y153167D01*
X44936Y158504D01*
X44936Y152774D01*
X44936Y152774D01*
G37*
G36*
X231438Y152355D02*
X232407Y153324D01*
X202679Y170662D01*
X202528Y170413D01*
X231438Y152355D01*
X231438Y152355D01*
G37*
G36*
X236879Y152361D02*
X257887Y163341D01*
X257759Y163600D01*
X235903Y153337D01*
X236879Y152361D01*
X236879Y152361D01*
G37*
G36*
X236957Y152118D02*
X257890Y163344D01*
X257753Y163604D01*
X236709Y152605D01*
X236957Y152118D01*
X236957Y152118D01*
G37*
G36*
X246666Y152172D02*
X257885Y163391D01*
X257733Y163595D01*
X236849Y152395D01*
X236905Y152172D01*
X246666Y152172D01*
X246666Y152172D01*
G37*
G36*
X81157Y151977D02*
X81713Y153194D01*
X80412Y153194D01*
X80968Y151977D01*
X81157Y151977D01*
X81157Y151977D01*
G37*
G36*
X88842Y151977D02*
X89031Y151977D01*
X89587Y153194D01*
X88286Y153194D01*
X88842Y151977D01*
X88842Y151977D01*
G37*
G36*
X73209Y151813D02*
X73840Y153195D01*
X44938Y153069D01*
X44933Y152780D01*
X73209Y151813D01*
X73209Y151813D01*
G37*
G36*
X230991Y151381D02*
X231610Y152596D01*
X202685Y170663D01*
X202527Y170419D01*
X230991Y151381D01*
X230991Y151381D01*
G37*
G36*
X257464Y151158D02*
X260597Y154291D01*
X260339Y161031D01*
X260089Y161061D01*
X257267Y151275D01*
X257464Y151158D01*
X257464Y151158D01*
G37*
G36*
X268823Y151169D02*
X269005Y151245D01*
X269005Y163782D01*
X268756Y163821D01*
X265683Y154309D01*
X268823Y151169D01*
X268823Y151169D01*
G37*
G36*
X268978Y151184D02*
X274579Y181452D01*
X274310Y181519D01*
X268710Y163678D01*
X268710Y151209D01*
X268978Y151184D01*
X268978Y151184D01*
G37*
G36*
X139832Y151065D02*
X139832Y156400D01*
X111357Y156931D01*
X111328Y156662D01*
X139832Y151065D01*
X139832Y151065D01*
G37*
G36*
X73079Y150672D02*
X73285Y152106D01*
X44944Y153075D01*
X44928Y152786D01*
X73079Y150672D01*
X73079Y150672D01*
G37*
G36*
X230877Y150289D02*
X231095Y151666D01*
X202691Y170665D01*
X202526Y170425D01*
X230877Y150289D01*
X230877Y150289D01*
G37*
G36*
X140024Y150358D02*
X140139Y150493D01*
X139792Y151373D01*
X111374Y156954D01*
X111315Y156668D01*
X140024Y150358D01*
X140024Y150358D01*
G37*
G36*
X140506Y150374D02*
X140581Y150556D01*
X139704Y151433D01*
X139503Y151302D01*
X139868Y150374D01*
X140506Y150374D01*
X140506Y150374D01*
G37*
G36*
X250232Y149855D02*
X257557Y151215D01*
X260371Y160971D01*
X260166Y161086D01*
X250128Y150040D01*
X250232Y149855D01*
X250232Y149855D01*
G37*
G36*
X256372Y149872D02*
X257621Y151327D01*
X257516Y151508D01*
X250150Y150140D01*
X250174Y149872D01*
X256372Y149872D01*
X256372Y149872D01*
G37*
G36*
X36681Y149710D02*
X36878Y149919D01*
X33767Y153030D01*
X6565Y176812D01*
X6371Y176591D01*
X36681Y149710D01*
X36681Y149710D01*
G37*
G36*
X41981Y149765D02*
X73097Y150686D01*
X73103Y150966D01*
X45027Y153074D01*
X41902Y149949D01*
X41981Y149765D01*
X41981Y149765D01*
G37*
G36*
X230926Y149321D02*
X231096Y149424D01*
X230905Y150632D01*
X202696Y170666D01*
X202525Y170430D01*
X230926Y149321D01*
X230926Y149321D01*
G37*
G36*
X73100Y149019D02*
X73100Y150981D01*
X41929Y150059D01*
X41930Y149772D01*
X73100Y149019D01*
X73100Y149019D01*
G37*
G36*
X73097Y149019D02*
X73103Y149314D01*
X42079Y150063D01*
X36526Y150063D01*
X36523Y149771D01*
X73097Y149019D01*
X73097Y149019D01*
G37*
G36*
X257406Y148709D02*
X257588Y148784D01*
X257588Y151446D01*
X257395Y151518D01*
X256103Y150012D01*
X257406Y148709D01*
X257406Y148709D01*
G37*
G36*
X248032Y148584D02*
X250402Y149902D01*
X260403Y160907D01*
X260194Y161106D01*
X247878Y148789D01*
X248032Y148584D01*
X248032Y148584D01*
G37*
G36*
X231421Y148364D02*
X231602Y148515D01*
X231050Y149597D01*
X202700Y170667D01*
X202524Y170433D01*
X231421Y148364D01*
X231421Y148364D01*
G37*
G36*
X236864Y148379D02*
X237665Y148681D01*
X237621Y148924D01*
X236930Y148924D01*
X236729Y148530D01*
X236864Y148379D01*
X236864Y148379D01*
G37*
G36*
X73287Y147878D02*
X73081Y149315D01*
X36530Y150066D01*
X36519Y149776D01*
X73287Y147878D01*
X73287Y147878D01*
G37*
G36*
X232187Y147601D02*
X232369Y147809D01*
X231514Y148664D01*
X202702Y170668D01*
X202523Y170434D01*
X232187Y147601D01*
X232187Y147601D01*
G37*
G36*
X236132Y147603D02*
X237689Y148732D01*
X237567Y148960D01*
X236825Y148680D01*
X235955Y147810D01*
X236132Y147603D01*
X236132Y147603D01*
G37*
G36*
X73848Y146785D02*
X73213Y148177D01*
X36534Y150071D01*
X36515Y149780D01*
X73848Y146785D01*
X73848Y146785D01*
G37*
G36*
X247022Y146524D02*
X250504Y150006D01*
X250349Y150211D01*
X247962Y148883D01*
X246818Y146673D01*
X247022Y146524D01*
X247022Y146524D01*
G37*
G36*
X247080Y146536D02*
X248315Y148924D01*
X240916Y148924D01*
X240875Y148677D01*
X247080Y146536D01*
X247080Y146536D01*
G37*
G36*
X74473Y145897D02*
X74566Y146074D01*
X73682Y147095D01*
X36538Y150075D01*
X36512Y149784D01*
X74473Y145897D01*
X74473Y145897D01*
G37*
G36*
X268982Y145781D02*
X274577Y181463D01*
X274290Y181512D01*
X268710Y151357D01*
X268710Y145802D01*
X268982Y145781D01*
X268982Y145781D01*
G37*
G36*
X108721Y145733D02*
X111654Y156825D01*
X108646Y159833D01*
X108464Y159757D01*
X108464Y145766D01*
X108721Y145733D01*
X108721Y145733D01*
G37*
G36*
X108412Y145717D02*
X140112Y150393D01*
X140121Y150639D01*
X111383Y156956D01*
X108412Y145717D01*
X108412Y145717D01*
G37*
G36*
X74925Y145614D02*
X75003Y145834D01*
X74439Y146197D01*
X36541Y150078D01*
X36510Y149785D01*
X74925Y145614D01*
X74925Y145614D01*
G37*
G36*
X74972Y140709D02*
X74972Y145906D01*
X36550Y150078D01*
X36503Y149804D01*
X74972Y140709D01*
X74972Y140709D01*
G37*
G36*
X246952Y140549D02*
X247155Y140616D01*
X247155Y146823D01*
X240987Y148951D01*
X240858Y148775D01*
X246952Y140549D01*
X246952Y140549D01*
G37*
G36*
X259700Y140555D02*
X260619Y142969D01*
X259640Y143948D01*
X259458Y143872D01*
X259458Y140599D01*
X259700Y140555D01*
X259700Y140555D01*
G37*
G36*
X259566Y140552D02*
X266018Y142835D01*
X265976Y143080D01*
X260345Y143080D01*
X259434Y140687D01*
X259566Y140552D01*
X259566Y140552D01*
G37*
G36*
X256266Y137228D02*
X266042Y142872D01*
X265929Y143117D01*
X259525Y140850D01*
X256108Y137434D01*
X256266Y137228D01*
X256266Y137228D01*
G37*
G36*
X236752Y136230D02*
X236953Y136363D01*
X232289Y147895D01*
X202710Y170662D01*
X202528Y170454D01*
X236752Y136230D01*
X236752Y136230D01*
G37*
G36*
X236688Y136232D02*
X236957Y136331D01*
X233234Y147425D01*
X232143Y147980D01*
X231992Y147842D01*
X236688Y136232D01*
X236688Y136232D01*
G37*
G36*
X236676Y136239D02*
X236948Y136317D01*
X234282Y147285D01*
X232896Y147504D01*
X236676Y136239D01*
X236676Y136239D01*
G37*
G36*
X236661Y136248D02*
X236937Y136301D01*
X235335Y147490D01*
X233980Y147275D01*
X236661Y136248D01*
X236661Y136248D01*
G37*
G36*
X236645Y136259D02*
X236926Y136287D01*
X236291Y148037D01*
X235049Y147404D01*
X236645Y136259D01*
X236645Y136259D01*
G37*
G36*
X236910Y136272D02*
X237651Y148861D01*
X237487Y148950D01*
X236004Y147875D01*
X236631Y136272D01*
X236910Y136272D01*
X236910Y136272D01*
G37*
G36*
X80959Y134647D02*
X81083Y134846D01*
X74900Y141030D01*
X36569Y150092D01*
X36491Y149822D01*
X80959Y134647D01*
X80959Y134647D01*
G37*
G36*
X97480Y134645D02*
X140145Y150429D01*
X140079Y150687D01*
X108542Y146035D01*
X97352Y134845D01*
X97480Y134645D01*
X97480Y134645D01*
G37*
G36*
X111487Y133806D02*
X140160Y150462D01*
X140045Y150707D01*
X97377Y134922D01*
X97412Y134685D01*
X111487Y133806D01*
X111487Y133806D01*
G37*
G36*
X111592Y133805D02*
X111605Y134095D01*
X97545Y134972D01*
X80750Y134972D01*
X80746Y134681D01*
X111592Y133805D01*
X111592Y133805D01*
G37*
G36*
X123465Y133809D02*
X140165Y150508D01*
X140007Y150714D01*
X111279Y134027D01*
X111338Y133809D01*
X123465Y133809D01*
X123465Y133809D01*
G37*
G36*
X12981Y128910D02*
X111600Y133816D01*
X111597Y134100D01*
X80892Y134973D01*
X12962Y129199D01*
X12981Y128910D01*
X12981Y128910D01*
G37*
G36*
X13025Y128908D02*
X81028Y134688D01*
X81057Y134926D01*
X36639Y150083D01*
X12941Y129104D01*
X13025Y128908D01*
X13025Y128908D01*
G37*
G36*
X13151Y128895D02*
X36895Y149916D01*
X6600Y176783D01*
X6418Y176686D01*
X12985Y128957D01*
X13151Y128895D01*
X13151Y128895D01*
G37*
G36*
X13005Y128894D02*
X13285Y128944D01*
X6718Y176673D01*
X1630Y181761D01*
X1436Y181655D01*
X13005Y128894D01*
X13005Y128894D01*
G37*
G36*
X18134Y128917D02*
X111606Y133817D01*
X111591Y134111D01*
X12968Y129205D01*
X12975Y128917D01*
X18134Y128917D01*
X18134Y128917D01*
G37*
G36*
X23123Y128917D02*
X111606Y133817D01*
X111591Y134112D01*
X17979Y129204D01*
X17986Y128917D01*
X23123Y128917D01*
X23123Y128917D01*
G37*
G36*
X28134Y128917D02*
X111607Y133818D01*
X111590Y134112D01*
X22967Y129204D01*
X22975Y128917D01*
X28134Y128917D01*
X28134Y128917D01*
G37*
G36*
X20625Y126361D02*
X23293Y129030D01*
X23218Y129212D01*
X18031Y129212D01*
X17956Y129030D01*
X20625Y126361D01*
X20625Y126361D01*
G37*
G36*
X10350Y126087D02*
X13281Y129017D01*
X1717Y181750D01*
X1436Y181697D01*
X10178Y126143D01*
X10350Y126087D01*
X10350Y126087D01*
G37*
G36*
X30884Y126101D02*
X111609Y133823D01*
X111587Y134112D01*
X28026Y129206D01*
X27958Y129028D01*
X30884Y126101D01*
X30884Y126101D01*
G37*
G36*
X10183Y121087D02*
X10457Y121107D01*
X10457Y126267D01*
X1727Y181747D01*
X1437Y181703D01*
X10183Y121087D01*
X10183Y121087D01*
G37*
G36*
X30792Y121071D02*
X111616Y133833D01*
X111580Y134117D01*
X30792Y126389D01*
X30792Y121071D01*
X30792Y121071D01*
G37*
G36*
X134139Y119535D02*
X134287Y119739D01*
X123465Y130561D01*
X112802Y130561D01*
X112748Y130334D01*
X134139Y119535D01*
X134139Y119535D01*
G37*
G36*
X82822Y119575D02*
X111630Y133881D01*
X111553Y134122D01*
X30784Y121369D01*
X30801Y121100D01*
X82822Y119575D01*
X82822Y119575D01*
G37*
G36*
X87250Y119576D02*
X111649Y133901D01*
X111513Y134152D01*
X82619Y119804D01*
X82672Y119576D01*
X87250Y119576D01*
X87250Y119576D01*
G37*
G36*
X92839Y119576D02*
X111651Y133923D01*
X111496Y134154D01*
X87038Y119794D01*
X87097Y119576D01*
X92839Y119576D01*
X92839Y119576D01*
G37*
G36*
X97271Y119576D02*
X111653Y133950D01*
X111471Y134158D01*
X92615Y119777D01*
X92683Y119576D01*
X97271Y119576D01*
X97271Y119576D01*
G37*
G36*
X102692Y119576D02*
X134210Y119576D01*
X134264Y119803D01*
X112887Y130595D01*
X102615Y119755D01*
X102692Y119576D01*
X102692Y119576D01*
G37*
G36*
X107210Y119576D02*
X134241Y119576D01*
X134241Y119872D01*
X102642Y119872D01*
X102642Y119576D01*
X107210Y119576D01*
X107210Y119576D01*
G37*
G36*
X112789Y119576D02*
X134241Y119576D01*
X134241Y119872D01*
X107062Y119872D01*
X107062Y119576D01*
X112789Y119576D01*
X112789Y119576D01*
G37*
G36*
X117210Y119576D02*
X134241Y119576D01*
X134241Y119872D01*
X112642Y119872D01*
X112642Y119576D01*
X117210Y119576D01*
X117210Y119576D01*
G37*
G36*
X122789Y119576D02*
X134241Y119576D01*
X134241Y119872D01*
X117062Y119872D01*
X117062Y119576D01*
X122789Y119576D01*
X122789Y119576D01*
G37*
G36*
X127210Y119576D02*
X134241Y119576D01*
X134241Y119872D01*
X122642Y119872D01*
X122642Y119576D01*
X127210Y119576D01*
X127210Y119576D01*
G37*
G36*
X132789Y119576D02*
X134241Y119576D01*
X134241Y119872D01*
X127062Y119872D01*
X127062Y119576D01*
X132789Y119576D01*
X132789Y119576D01*
G37*
G36*
X236915Y119574D02*
X237649Y148917D01*
X237359Y148929D01*
X236624Y136424D01*
X236624Y119578D01*
X236915Y119574D01*
X236915Y119574D01*
G37*
G36*
X237356Y119576D02*
X237647Y148921D01*
X237354Y148926D01*
X236620Y119576D01*
X237356Y119576D01*
X237356Y119576D01*
G37*
G36*
X242790Y119515D02*
X269066Y145939D01*
X268858Y146148D01*
X265747Y143037D01*
X242581Y119723D01*
X242790Y119515D01*
X242790Y119515D01*
G37*
G36*
X242796Y119522D02*
X266047Y142920D01*
X265890Y143125D01*
X256205Y137534D01*
X242588Y119704D01*
X242796Y119522D01*
X242796Y119522D01*
G37*
G36*
X242828Y119531D02*
X256477Y137404D01*
X256396Y137568D01*
X250211Y137568D01*
X242602Y119662D01*
X242828Y119531D01*
X242828Y119531D01*
G37*
G36*
X242873Y119543D02*
X250484Y137455D01*
X247049Y140889D01*
X246880Y140838D01*
X242618Y119622D01*
X242873Y119543D01*
X242873Y119543D01*
G37*
G36*
X242908Y119568D02*
X247165Y140758D01*
X241094Y148952D01*
X240887Y148877D01*
X242650Y119586D01*
X242908Y119568D01*
X242908Y119568D01*
G37*
G36*
X247279Y119576D02*
X269061Y145954D01*
X268852Y146143D01*
X242615Y119758D01*
X242691Y119576D01*
X247279Y119576D01*
X247279Y119576D01*
G37*
G36*
X252872Y119576D02*
X269056Y145979D01*
X268832Y146139D01*
X247036Y119746D01*
X247116Y119576D01*
X252872Y119576D01*
X252872Y119576D01*
G37*
G36*
X257306Y119576D02*
X269049Y146005D01*
X268804Y146134D01*
X252618Y119727D01*
X252703Y119576D01*
X257306Y119576D01*
X257306Y119576D01*
G37*
G36*
X262907Y119576D02*
X269032Y146036D01*
X268777Y146121D01*
X256983Y119576D01*
X262907Y119576D01*
X262907Y119576D01*
G37*
G36*
X267348Y119576D02*
X269014Y146065D01*
X268745Y146105D01*
X262604Y119576D01*
X267348Y119576D01*
X267348Y119576D01*
G37*
G36*
X267340Y119564D02*
X274572Y181469D01*
X274286Y181508D01*
X268711Y145955D01*
X267053Y119590D01*
X267340Y119564D01*
X267340Y119564D01*
G37*
G36*
X97214Y119511D02*
X111660Y133957D01*
X111451Y134165D01*
X97001Y119724D01*
X97214Y119511D01*
X97214Y119511D01*
G37*
G36*
X237463Y119262D02*
X237646Y119337D01*
X237646Y148923D01*
X237352Y148924D01*
X237061Y119663D01*
X237463Y119262D01*
X237463Y119262D01*
G37*
G36*
X28348Y118600D02*
X82936Y119579D01*
X82938Y119867D01*
X30880Y121393D01*
X28270Y118783D01*
X28348Y118600D01*
X28348Y118600D01*
G37*
G36*
X241076Y117802D02*
X242941Y119666D01*
X241180Y148928D01*
X240894Y148919D01*
X240894Y117877D01*
X241076Y117802D01*
X241076Y117802D01*
G37*
G36*
X99704Y117011D02*
X102890Y119616D01*
X113126Y130417D01*
X112917Y130621D01*
X99516Y117219D01*
X99704Y117011D01*
X99704Y117011D01*
G37*
G36*
X80334Y117060D02*
X82964Y119690D01*
X82886Y119873D01*
X28298Y118895D01*
X28296Y118606D01*
X80334Y117060D01*
X80334Y117060D01*
G37*
G36*
X89714Y117011D02*
X92963Y119676D01*
X92893Y119872D01*
X87111Y119872D01*
X87036Y119689D01*
X89714Y117011D01*
X89714Y117011D01*
G37*
G36*
X90336Y117062D02*
X92993Y119719D01*
X92804Y119927D01*
X89550Y117258D01*
X89620Y117062D01*
X90336Y117062D01*
X90336Y117062D01*
G37*
G36*
X99714Y117011D02*
X102997Y119703D01*
X102810Y119932D01*
X99500Y117225D01*
X99714Y117011D01*
X99714Y117011D01*
G37*
G36*
X100336Y117062D02*
X102993Y119719D01*
X102804Y119927D01*
X99550Y117258D01*
X99620Y117062D01*
X100336Y117062D01*
X100336Y117062D01*
G37*
G36*
X109714Y117011D02*
X112963Y119676D01*
X112893Y119872D01*
X107111Y119872D01*
X107036Y119689D01*
X109714Y117011D01*
X109714Y117011D01*
G37*
G36*
X110336Y117062D02*
X112993Y119719D01*
X112804Y119927D01*
X109550Y117258D01*
X109620Y117062D01*
X110336Y117062D01*
X110336Y117062D01*
G37*
G36*
X119714Y117011D02*
X122963Y119676D01*
X122893Y119872D01*
X117111Y119872D01*
X117036Y119689D01*
X119714Y117011D01*
X119714Y117011D01*
G37*
G36*
X120336Y117062D02*
X122993Y119719D01*
X122804Y119927D01*
X119550Y117258D01*
X119620Y117062D01*
X120336Y117062D01*
X120336Y117062D01*
G37*
G36*
X129714Y117011D02*
X132963Y119676D01*
X132893Y119872D01*
X127111Y119872D01*
X127036Y119689D01*
X129714Y117011D01*
X129714Y117011D01*
G37*
G36*
X130336Y117062D02*
X132993Y119719D01*
X132804Y119927D01*
X129550Y117258D01*
X129620Y117062D01*
X130336Y117062D01*
X130336Y117062D01*
G37*
G36*
X249714Y117011D02*
X252963Y119676D01*
X252893Y119872D01*
X247111Y119872D01*
X247036Y119689D01*
X249714Y117011D01*
X249714Y117011D01*
G37*
G36*
X250336Y117062D02*
X252993Y119719D01*
X252804Y119927D01*
X249550Y117258D01*
X249620Y117062D01*
X250336Y117062D01*
X250336Y117062D01*
G37*
G36*
X259714Y117011D02*
X262963Y119676D01*
X262893Y119872D01*
X257111Y119872D01*
X257036Y119689D01*
X259714Y117011D01*
X259714Y117011D01*
G37*
G36*
X260336Y117062D02*
X262993Y119719D01*
X262804Y119927D01*
X259550Y117258D01*
X259620Y117062D01*
X260336Y117062D01*
X260336Y117062D01*
G37*
G36*
X269687Y117038D02*
X269864Y117104D01*
X274567Y181476D01*
X274279Y181503D01*
X267055Y119670D01*
X269687Y117038D01*
X269687Y117038D01*
G37*
G36*
X10344Y116081D02*
X13013Y118750D01*
X10344Y121418D01*
X10162Y121343D01*
X10162Y116156D01*
X10344Y116081D01*
X10344Y116081D01*
G37*
G36*
X10181Y116099D02*
X10457Y116117D01*
X10457Y121255D01*
X1729Y181745D01*
X1438Y181705D01*
X10181Y116099D01*
X10181Y116099D01*
G37*
G36*
X30879Y116106D02*
X80422Y117065D01*
X80423Y117353D01*
X28349Y118900D01*
X28270Y118716D01*
X30879Y116106D01*
X30879Y116106D01*
G37*
G36*
X80423Y112631D02*
X80423Y117360D01*
X30795Y116400D01*
X30788Y116118D01*
X80423Y112631D01*
X80423Y112631D01*
G37*
G36*
X89853Y112633D02*
X90442Y117357D01*
X89576Y117357D01*
X89576Y112651D01*
X89853Y112633D01*
X89853Y112633D01*
G37*
G36*
X90423Y112642D02*
X90423Y117348D01*
X90146Y117366D01*
X89557Y112642D01*
X90423Y112642D01*
X90423Y112642D01*
G37*
G36*
X99853Y112633D02*
X100442Y117357D01*
X99576Y117357D01*
X99576Y112651D01*
X99853Y112633D01*
X99853Y112633D01*
G37*
G36*
X100423Y112642D02*
X100423Y117348D01*
X100146Y117366D01*
X99557Y112642D01*
X100423Y112642D01*
X100423Y112642D01*
G37*
G36*
X109853Y112633D02*
X110442Y117357D01*
X109576Y117357D01*
X109576Y112651D01*
X109853Y112633D01*
X109853Y112633D01*
G37*
G36*
X110423Y112642D02*
X110423Y117348D01*
X110146Y117366D01*
X109557Y112642D01*
X110423Y112642D01*
X110423Y112642D01*
G37*
G36*
X119853Y112633D02*
X120442Y117357D01*
X119576Y117357D01*
X119576Y112651D01*
X119853Y112633D01*
X119853Y112633D01*
G37*
G36*
X120423Y112642D02*
X120423Y117348D01*
X120146Y117366D01*
X119557Y112642D01*
X120423Y112642D01*
X120423Y112642D01*
G37*
G36*
X129853Y112633D02*
X130442Y117357D01*
X129576Y117357D01*
X129576Y112651D01*
X129853Y112633D01*
X129853Y112633D01*
G37*
G36*
X130423Y112642D02*
X130423Y117348D01*
X130146Y117366D01*
X129557Y112642D01*
X130423Y112642D01*
X130423Y112642D01*
G37*
G36*
X249853Y112633D02*
X250442Y117357D01*
X249576Y117357D01*
X249576Y112651D01*
X249853Y112633D01*
X249853Y112633D01*
G37*
G36*
X250423Y112642D02*
X250423Y117348D01*
X250146Y117366D01*
X249557Y112642D01*
X250423Y112642D01*
X250423Y112642D01*
G37*
G36*
X259853Y112633D02*
X260442Y117357D01*
X259576Y117357D01*
X259576Y112651D01*
X259853Y112633D01*
X259853Y112633D01*
G37*
G36*
X260423Y112642D02*
X260423Y117348D01*
X260146Y117366D01*
X259557Y112642D01*
X260423Y112642D01*
X260423Y112642D01*
G37*
G36*
X269861Y112637D02*
X274566Y181479D01*
X274272Y181500D01*
X269576Y117215D01*
X269576Y112647D01*
X269861Y112637D01*
X269861Y112637D01*
G37*
G36*
X110377Y112637D02*
X110454Y112819D01*
X110336Y112937D01*
X109577Y112937D01*
X109576Y112643D01*
X110377Y112637D01*
X110377Y112637D01*
G37*
G36*
X120377Y112637D02*
X120454Y112819D01*
X120336Y112937D01*
X119577Y112937D01*
X119576Y112643D01*
X120377Y112637D01*
X120377Y112637D01*
G37*
G36*
X130377Y112637D02*
X130454Y112819D01*
X130336Y112937D01*
X129577Y112937D01*
X129576Y112643D01*
X130377Y112637D01*
X130377Y112637D01*
G37*
G36*
X10180Y111088D02*
X10457Y111105D01*
X10457Y116265D01*
X1731Y181744D01*
X1439Y181706D01*
X10180Y111088D01*
X10180Y111088D01*
G37*
G36*
X30792Y111092D02*
X80420Y112646D01*
X80425Y112927D01*
X30792Y116413D01*
X30792Y111092D01*
X30792Y111092D01*
G37*
G36*
X82886Y110126D02*
X82964Y110309D01*
X80334Y112939D01*
X30791Y111387D01*
X30793Y111099D01*
X82886Y110126D01*
X82886Y110126D01*
G37*
G36*
X87195Y110072D02*
X90449Y112741D01*
X90379Y112937D01*
X89663Y112937D01*
X87006Y110280D01*
X87195Y110072D01*
X87195Y110072D01*
G37*
G36*
X92888Y110127D02*
X92963Y110310D01*
X90285Y112988D01*
X87036Y110323D01*
X87106Y110127D01*
X92888Y110127D01*
X92888Y110127D01*
G37*
G36*
X97195Y110072D02*
X100449Y112741D01*
X100379Y112937D01*
X99663Y112937D01*
X97006Y110280D01*
X97195Y110072D01*
X97195Y110072D01*
G37*
G36*
X102888Y110127D02*
X102963Y110310D01*
X100285Y112988D01*
X97036Y110323D01*
X97106Y110127D01*
X102888Y110127D01*
X102888Y110127D01*
G37*
G36*
X107194Y110072D02*
X110453Y112736D01*
X110384Y112932D01*
X109663Y112937D01*
X107006Y110280D01*
X107194Y110072D01*
X107194Y110072D01*
G37*
G36*
X117194Y110072D02*
X120453Y112736D01*
X120384Y112932D01*
X119663Y112937D01*
X117006Y110280D01*
X117194Y110072D01*
X117194Y110072D01*
G37*
G36*
X127194Y110072D02*
X130453Y112736D01*
X130384Y112932D01*
X129663Y112937D01*
X127006Y110280D01*
X127194Y110072D01*
X127194Y110072D01*
G37*
G36*
X247195Y110072D02*
X250449Y112741D01*
X250379Y112937D01*
X249663Y112937D01*
X247006Y110280D01*
X247195Y110072D01*
X247195Y110072D01*
G37*
G36*
X252888Y110127D02*
X252963Y110310D01*
X250285Y112988D01*
X247036Y110323D01*
X247106Y110127D01*
X252888Y110127D01*
X252888Y110127D01*
G37*
G36*
X257195Y110072D02*
X260449Y112741D01*
X260379Y112937D01*
X259663Y112937D01*
X257006Y110280D01*
X257195Y110072D01*
X257195Y110072D01*
G37*
G36*
X262888Y110127D02*
X262963Y110310D01*
X260285Y112988D01*
X257036Y110323D01*
X257106Y110127D01*
X262888Y110127D01*
X262888Y110127D01*
G37*
G36*
X28349Y108599D02*
X82938Y110132D01*
X82936Y110420D01*
X30879Y111393D01*
X28270Y108783D01*
X28349Y108599D01*
X28349Y108599D01*
G37*
G36*
X28301Y108599D02*
X107359Y110130D01*
X107356Y110423D01*
X82787Y110423D01*
X28294Y108893D01*
X28301Y108599D01*
X28301Y108599D01*
G37*
G36*
X10344Y106081D02*
X13013Y108750D01*
X10344Y111418D01*
X10162Y111343D01*
X10162Y106156D01*
X10344Y106081D01*
X10344Y106081D01*
G37*
G36*
X10179Y106100D02*
X10457Y106116D01*
X10457Y111253D01*
X1732Y181743D01*
X1440Y181708D01*
X10179Y106100D01*
X10179Y106100D01*
G37*
G36*
X30882Y106104D02*
X107362Y110135D01*
X107352Y110426D01*
X28344Y108895D01*
X28272Y108714D01*
X30882Y106104D01*
X30882Y106104D01*
G37*
G36*
X10178Y101089D02*
X10457Y101104D01*
X10457Y106264D01*
X1734Y181742D01*
X1441Y181709D01*
X10178Y101089D01*
X10178Y101089D01*
G37*
G36*
X30792Y101078D02*
X107369Y110145D01*
X107345Y110430D01*
X30792Y106395D01*
X30792Y101078D01*
X30792Y101078D01*
G37*
G36*
X30131Y100361D02*
X107374Y110147D01*
X107338Y110439D01*
X30871Y101385D01*
X30038Y100551D01*
X30131Y100361D01*
X30131Y100361D01*
G37*
G36*
X98079Y100374D02*
X107388Y110249D01*
X107294Y110435D01*
X30061Y100650D01*
X30078Y100374D01*
X98079Y100374D01*
X98079Y100374D01*
G37*
G36*
X98017Y100314D02*
X110483Y112780D01*
X110295Y112988D01*
X107109Y110383D01*
X97808Y100517D01*
X98017Y100314D01*
X98017Y100314D01*
G37*
G36*
X99483Y96769D02*
X112998Y110275D01*
X112785Y110488D01*
X99275Y96978D01*
X99483Y96769D01*
X99483Y96769D01*
G37*
G36*
X99462Y96777D02*
X117383Y110221D01*
X117316Y110423D01*
X112728Y110423D01*
X99282Y96985D01*
X99462Y96777D01*
X99462Y96777D01*
G37*
G36*
X10344Y96081D02*
X13013Y98750D01*
X10344Y101418D01*
X10162Y101343D01*
X10162Y96156D01*
X10344Y96081D01*
X10344Y96081D01*
G37*
G36*
X10177Y96100D02*
X10457Y96115D01*
X10457Y101252D01*
X1735Y181741D01*
X1442Y181710D01*
X10177Y96100D01*
X10177Y96100D01*
G37*
G36*
X30879Y96107D02*
X99632Y96832D01*
X99630Y97125D01*
X30118Y97125D01*
X30042Y96943D01*
X30879Y96107D01*
X30879Y96107D01*
G37*
G36*
X10176Y91090D02*
X10457Y91103D01*
X10457Y96263D01*
X1736Y181740D01*
X1443Y181711D01*
X10176Y91090D01*
X10176Y91090D01*
G37*
G36*
X30792Y91084D02*
X99638Y96843D01*
X99624Y97127D01*
X30792Y96401D01*
X30792Y91084D01*
X30792Y91084D01*
G37*
G36*
X29869Y90106D02*
X99644Y96845D01*
X99617Y97137D01*
X30873Y91387D01*
X29780Y90293D01*
X29869Y90106D01*
X29869Y90106D01*
G37*
G36*
X97871Y90115D02*
X99679Y97145D01*
X29804Y90396D01*
X29817Y90115D01*
X97871Y90115D01*
X97871Y90115D01*
G37*
G36*
X97784Y90078D02*
X117411Y110270D01*
X117230Y110475D01*
X99353Y97065D01*
X97586Y90189D01*
X97784Y90078D01*
X97784Y90078D01*
G37*
G36*
X97758Y90054D02*
X120483Y112780D01*
X120295Y112988D01*
X117110Y110384D01*
X97549Y90260D01*
X97758Y90054D01*
X97758Y90054D01*
G37*
G36*
X99225Y86510D02*
X122998Y110275D01*
X122785Y110488D01*
X99016Y86719D01*
X99225Y86510D01*
X99225Y86510D01*
G37*
G36*
X99212Y86515D02*
X127384Y110229D01*
X127313Y110423D01*
X122728Y110423D01*
X99020Y86724D01*
X99212Y86515D01*
X99212Y86515D01*
G37*
G36*
X99207Y86511D02*
X130487Y112766D01*
X130300Y112992D01*
X127115Y110389D01*
X99017Y86737D01*
X99207Y86511D01*
X99207Y86511D01*
G37*
G36*
X10344Y86081D02*
X13013Y88750D01*
X10344Y91418D01*
X10162Y91343D01*
X10162Y86156D01*
X10344Y86081D01*
X10344Y86081D01*
G37*
G36*
X10175Y86101D02*
X10457Y86114D01*
X10457Y91251D01*
X1737Y181739D01*
X1443Y181712D01*
X10175Y86101D01*
X10175Y86101D01*
G37*
G36*
X30879Y86107D02*
X99373Y86573D01*
X99372Y86867D01*
X30377Y86867D01*
X30301Y86685D01*
X30879Y86107D01*
X30879Y86107D01*
G37*
G36*
X84369Y83133D02*
X99387Y86605D01*
X99356Y86868D01*
X30795Y86402D01*
X30788Y86116D01*
X84369Y83133D01*
X84369Y83133D01*
G37*
G36*
X83314Y82967D02*
X84510Y83156D01*
X84497Y83421D01*
X30801Y86411D01*
X30784Y86116D01*
X83314Y82967D01*
X83314Y82967D01*
G37*
G36*
X85412Y82965D02*
X99403Y86613D01*
X99333Y86896D01*
X84204Y83398D01*
X84213Y83154D01*
X85412Y82965D01*
X85412Y82965D01*
G37*
G36*
X82392Y82483D02*
X83475Y83035D01*
X83429Y83256D01*
X30802Y86411D01*
X30783Y86118D01*
X82392Y82483D01*
X82392Y82483D01*
G37*
G36*
X86337Y82474D02*
X99406Y86622D01*
X99327Y86898D01*
X85269Y83232D01*
X85247Y83030D01*
X86337Y82474D01*
X86337Y82474D01*
G37*
G36*
X81666Y81730D02*
X82533Y82596D01*
X82466Y82774D01*
X30804Y86413D01*
X30781Y86121D01*
X81666Y81730D01*
X81666Y81730D01*
G37*
G36*
X87065Y81709D02*
X99412Y86635D01*
X99316Y86903D01*
X86074Y82701D01*
X87065Y81709D01*
X87065Y81709D01*
G37*
G36*
X10175Y81090D02*
X10457Y81103D01*
X10457Y86262D01*
X1737Y181739D01*
X1444Y181713D01*
X10175Y81090D01*
X10175Y81090D01*
G37*
G36*
X30792Y81094D02*
X81753Y81737D01*
X81763Y82018D01*
X30792Y86416D01*
X30792Y81094D01*
X30792Y81094D01*
G37*
G36*
X81219Y80788D02*
X81853Y82033D01*
X30791Y81390D01*
X30792Y81097D01*
X81219Y80788D01*
X81219Y80788D01*
G37*
G36*
X87518Y80739D02*
X99417Y86650D01*
X99302Y86909D01*
X86896Y81960D01*
X87518Y80739D01*
X87518Y80739D01*
G37*
G36*
X81088Y79737D02*
X81301Y81083D01*
X30794Y81393D01*
X30789Y81100D01*
X81088Y79737D01*
X81088Y79737D01*
G37*
G36*
X87637Y79650D02*
X99422Y86665D01*
X99286Y86915D01*
X87420Y81021D01*
X87637Y79650D01*
X87637Y79650D01*
G37*
G36*
X255704Y79352D02*
X269907Y112844D01*
X269706Y112980D01*
X267083Y110357D01*
X255435Y79460D01*
X255704Y79352D01*
X255704Y79352D01*
G37*
G36*
X255527Y79394D02*
X255727Y79397D01*
X267423Y110423D01*
X242568Y110423D01*
X255527Y79394D01*
X255527Y79394D01*
G37*
G36*
X255550Y79350D02*
X255817Y79466D01*
X242914Y110359D01*
X240889Y112384D01*
X240687Y112244D01*
X255550Y79350D01*
X255550Y79350D01*
G37*
G36*
X254466Y79227D02*
X255840Y79425D01*
X240947Y112386D01*
X240680Y112270D01*
X254466Y79227D01*
X254466Y79227D01*
G37*
G36*
X256786Y79227D02*
X269914Y112871D01*
X269645Y112981D01*
X255414Y79424D01*
X256786Y79227D01*
X256786Y79227D01*
G37*
G36*
X81258Y78967D02*
X81089Y80032D01*
X30797Y81396D01*
X30787Y81103D01*
X81258Y78967D01*
X81258Y78967D01*
G37*
G36*
X253496Y78742D02*
X254749Y79315D01*
X240952Y112383D01*
X240682Y112276D01*
X253496Y78742D01*
X253496Y78742D01*
G37*
G36*
X257756Y78741D02*
X269912Y112877D01*
X269639Y112978D01*
X256503Y79313D01*
X257756Y78741D01*
X257756Y78741D01*
G37*
G36*
X87585Y78663D02*
X99426Y86677D01*
X99272Y86919D01*
X87614Y79980D01*
X87422Y78767D01*
X87585Y78663D01*
X87585Y78663D01*
G37*
G36*
X207206Y78476D02*
X253792Y78796D01*
X240929Y112458D01*
X207129Y78659D01*
X207206Y78476D01*
X207206Y78476D01*
G37*
G36*
X23218Y78287D02*
X23293Y78469D01*
X20625Y81138D01*
X17956Y78469D01*
X18031Y78287D01*
X23218Y78287D01*
X23218Y78287D01*
G37*
G36*
X28033Y78286D02*
X81230Y78976D01*
X81234Y79263D01*
X30881Y81394D01*
X27955Y78469D01*
X28033Y78286D01*
X28033Y78286D01*
G37*
G36*
X197704Y78248D02*
X207453Y78480D01*
X207450Y78772D01*
X197971Y78772D01*
X197704Y78248D01*
X197704Y78248D01*
G37*
G36*
X197803Y78252D02*
X253727Y78796D01*
X253724Y79091D01*
X207302Y78772D01*
X197798Y78546D01*
X197803Y78252D01*
X197803Y78252D01*
G37*
G36*
X252818Y78089D02*
X253752Y78898D01*
X253679Y79091D01*
X197800Y78548D01*
X197801Y78254D01*
X252818Y78089D01*
X252818Y78089D01*
G37*
G36*
X258557Y77979D02*
X269909Y112882D01*
X269634Y112976D01*
X257498Y78897D01*
X258557Y77979D01*
X258557Y77979D01*
G37*
G36*
X87094Y77706D02*
X99429Y86685D01*
X99262Y86923D01*
X87469Y78940D01*
X86917Y77857D01*
X87094Y77706D01*
X87094Y77706D01*
G37*
G36*
X197100Y77502D02*
X252912Y78090D01*
X252911Y78384D01*
X197887Y78549D01*
X197023Y77685D01*
X197100Y77502D01*
X197100Y77502D01*
G37*
G36*
X252261Y77182D02*
X252935Y78231D01*
X252850Y78385D01*
X197050Y77797D01*
X197050Y77504D01*
X252261Y77182D01*
X252261Y77182D01*
G37*
G36*
X258995Y77171D02*
X259182Y77197D01*
X269907Y112887D01*
X269629Y112974D01*
X258323Y78215D01*
X258995Y77171D01*
X258995Y77171D01*
G37*
G36*
X196135Y77021D02*
X252328Y77183D01*
X252329Y77477D01*
X197162Y77799D01*
X196081Y77247D01*
X196135Y77021D01*
X196135Y77021D01*
G37*
G36*
X86328Y76943D02*
X99431Y86688D01*
X99257Y86925D01*
X87005Y78006D01*
X86149Y77150D01*
X86328Y76943D01*
X86328Y76943D01*
G37*
G36*
X195067Y76854D02*
X252329Y77183D01*
X252328Y77478D01*
X196240Y77316D01*
X195045Y77127D01*
X195067Y76854D01*
X195067Y76854D01*
G37*
G36*
X251988Y76147D02*
X252379Y77479D01*
X195056Y77150D01*
X195055Y76857D01*
X251988Y76147D01*
X251988Y76147D01*
G37*
G36*
X259261Y76148D02*
X259483Y76149D01*
X269906Y112890D01*
X269625Y112972D01*
X258914Y77330D01*
X259261Y76148D01*
X259261Y76148D01*
G37*
G36*
X252025Y75066D02*
X252025Y76442D01*
X195059Y77152D01*
X195052Y76860D01*
X252025Y75066D01*
X252025Y75066D01*
G37*
G36*
X259480Y75055D02*
X269905Y112892D01*
X269622Y112971D01*
X259224Y76317D01*
X259224Y75090D01*
X259480Y75055D01*
X259480Y75055D01*
G37*
G36*
X252381Y74027D02*
X251989Y75363D01*
X195061Y77155D01*
X195050Y76863D01*
X252381Y74027D01*
X252381Y74027D01*
G37*
G36*
X182891Y73522D02*
X184100Y73714D01*
X190259Y81722D01*
X190039Y81903D01*
X182791Y73704D01*
X182891Y73522D01*
X182891Y73522D01*
G37*
G36*
X185141Y73523D02*
X190255Y81740D01*
X190024Y81900D01*
X183751Y73744D01*
X185141Y73523D01*
X185141Y73523D01*
G37*
G36*
X252845Y73125D02*
X252937Y73282D01*
X252264Y74328D01*
X195064Y77157D01*
X195047Y76865D01*
X252845Y73125D01*
X252845Y73125D01*
G37*
G36*
X181981Y73015D02*
X183063Y73566D01*
X190262Y81710D01*
X190048Y81906D01*
X181832Y73214D01*
X181981Y73015D01*
X181981Y73015D01*
G37*
G36*
X186082Y73002D02*
X190249Y81761D01*
X190004Y81895D01*
X184857Y73626D01*
X186082Y73002D01*
X186082Y73002D01*
G37*
G36*
X253673Y72417D02*
X253755Y72614D01*
X252823Y73422D01*
X195066Y77160D01*
X195045Y76867D01*
X253673Y72417D01*
X253673Y72417D01*
G37*
G36*
X181275Y72244D02*
X182131Y73100D01*
X190264Y81704D01*
X190050Y81907D01*
X181067Y72448D01*
X181275Y72244D01*
X181275Y72244D01*
G37*
G36*
X186825Y72182D02*
X190241Y81781D01*
X189982Y81889D01*
X185836Y73172D01*
X186825Y72182D01*
X186825Y72182D01*
G37*
G36*
X186690Y72272D02*
X186884Y72285D01*
X190244Y81789D01*
X189966Y81887D01*
X186604Y72441D01*
X186690Y72272D01*
X186690Y72272D01*
G37*
G36*
X190203Y72278D02*
X190203Y81823D01*
X189958Y81865D01*
X186569Y72278D01*
X190203Y72278D01*
X190203Y72278D01*
G37*
G36*
X194135Y72276D02*
X194305Y77258D01*
X193845Y77492D01*
X193845Y72281D01*
X194135Y72276D01*
X194135Y72276D01*
G37*
G36*
X194101Y72261D02*
X195388Y77123D01*
X194013Y77341D01*
X193840Y72299D01*
X194101Y72261D01*
X194101Y72261D01*
G37*
G36*
X193801Y72278D02*
X253720Y72425D01*
X253731Y72709D01*
X195092Y77159D01*
X193801Y72278D01*
X193801Y72278D01*
G37*
G36*
X194522Y72278D02*
X253726Y72425D01*
X253725Y72721D01*
X193845Y72573D01*
X193845Y72278D01*
X194522Y72278D01*
X194522Y72278D01*
G37*
G36*
X254677Y71977D02*
X254728Y72210D01*
X253610Y72720D01*
X194374Y72573D01*
X194374Y72279D01*
X254677Y71977D01*
X254677Y71977D01*
G37*
G36*
X255761Y71823D02*
X255782Y72098D01*
X254569Y72273D01*
X194375Y72574D01*
X194373Y72279D01*
X255761Y71823D01*
X255761Y71823D01*
G37*
G36*
X186523Y68314D02*
X193039Y68342D01*
X193038Y68637D01*
X186687Y68637D01*
X186523Y68314D01*
X186523Y68314D01*
G37*
G36*
X185926Y67554D02*
X193046Y68358D01*
X193030Y68637D01*
X186703Y68610D01*
X185835Y67743D01*
X185926Y67554D01*
X185926Y67554D01*
G37*
G36*
X184967Y67064D02*
X193057Y68366D01*
X193018Y68652D01*
X185970Y67856D01*
X184888Y67304D01*
X184967Y67064D01*
X184967Y67064D01*
G37*
G36*
X219303Y67066D02*
X255780Y71843D01*
X255763Y72118D01*
X194389Y72575D01*
X194360Y72309D01*
X219303Y67066D01*
X219303Y67066D01*
G37*
G36*
X218255Y66900D02*
X219453Y67089D01*
X219460Y67335D01*
X194409Y72600D01*
X194346Y72314D01*
X218255Y66900D01*
X218255Y66900D01*
G37*
G36*
X220356Y66901D02*
X255791Y71846D01*
X255751Y72137D01*
X219163Y67346D01*
X219160Y67090D01*
X220356Y66901D01*
X220356Y66901D01*
G37*
G36*
X217332Y66411D02*
X218420Y66965D01*
X218394Y67171D01*
X194412Y72602D01*
X194344Y72319D01*
X217332Y66411D01*
X217332Y66411D01*
G37*
G36*
X221279Y66415D02*
X255792Y71849D01*
X255749Y72138D01*
X220230Y67181D01*
X220194Y66967D01*
X221279Y66415D01*
X221279Y66415D01*
G37*
G36*
X221181Y66399D02*
X256859Y72002D01*
X256815Y72292D01*
X255603Y72118D01*
X221135Y66691D01*
X221181Y66399D01*
X221181Y66399D01*
G37*
G36*
X216606Y65650D02*
X217480Y66524D01*
X217434Y66690D01*
X194418Y72605D01*
X194341Y72326D01*
X216606Y65650D01*
X216606Y65650D01*
G37*
G36*
X222004Y65658D02*
X256861Y72006D01*
X256812Y72294D01*
X221191Y66700D01*
X221135Y66527D01*
X222004Y65658D01*
X222004Y65658D01*
G37*
G36*
X216155Y64689D02*
X216776Y65908D01*
X194426Y72609D01*
X194337Y72334D01*
X216155Y64689D01*
X216155Y64689D01*
G37*
G36*
X222456Y64703D02*
X256864Y72011D01*
X256808Y72296D01*
X221832Y65927D01*
X222456Y64703D01*
X222456Y64703D01*
G37*
G36*
X187363Y63872D02*
X193072Y68445D01*
X192980Y68653D01*
X184805Y67338D01*
X187363Y63872D01*
X187363Y63872D01*
G37*
G36*
X187392Y63885D02*
X187588Y64064D01*
X185133Y67390D01*
X183904Y67195D01*
X183851Y67016D01*
X187392Y63885D01*
X187392Y63885D01*
G37*
G36*
X187419Y63882D02*
X187593Y64101D01*
X184085Y67203D01*
X182878Y67394D01*
X182790Y67178D01*
X187419Y63882D01*
X187419Y63882D01*
G37*
G36*
X187429Y63880D02*
X187595Y64119D01*
X183047Y67357D01*
X181968Y67907D01*
X181827Y67668D01*
X187429Y63880D01*
X187429Y63880D01*
G37*
G36*
X186297Y63761D02*
X187513Y63954D01*
X187556Y64150D01*
X181993Y67912D01*
X181823Y67693D01*
X186297Y63761D01*
X186297Y63761D01*
G37*
G36*
X188491Y63760D02*
X193093Y68485D01*
X192907Y68691D01*
X187223Y64139D01*
X187272Y63953D01*
X188491Y63760D01*
X188491Y63760D01*
G37*
G36*
X216033Y63617D02*
X216247Y64970D01*
X194434Y72613D01*
X194333Y72343D01*
X216033Y63617D01*
X216033Y63617D01*
G37*
G36*
X222581Y63641D02*
X256867Y72016D01*
X256803Y72300D01*
X222368Y64987D01*
X222581Y63641D01*
X222581Y63641D01*
G37*
G36*
X215947Y63608D02*
X216082Y63715D01*
X216048Y63928D01*
X194440Y72618D01*
X194329Y72344D01*
X215947Y63608D01*
X215947Y63608D01*
G37*
G36*
X185355Y63249D02*
X186603Y63885D01*
X182021Y67912D01*
X181825Y67727D01*
X185355Y63249D01*
X185355Y63249D01*
G37*
G36*
X185375Y63229D02*
X185602Y63412D01*
X182135Y67810D01*
X181279Y68667D01*
X181071Y68478D01*
X185375Y63229D01*
X185375Y63229D01*
G37*
G36*
X189433Y63246D02*
X193090Y68516D01*
X192880Y68689D01*
X188193Y63877D01*
X189433Y63246D01*
X189433Y63246D01*
G37*
G36*
X222354Y62571D02*
X256870Y72021D01*
X256797Y72303D01*
X222572Y63943D01*
X222354Y62571D01*
X222354Y62571D01*
G37*
G36*
X184614Y62445D02*
X185595Y63426D01*
X181302Y68662D01*
X181078Y68506D01*
X184614Y62445D01*
X184614Y62445D01*
G37*
G36*
X190179Y62433D02*
X193083Y68548D01*
X192847Y68685D01*
X189193Y63418D01*
X190179Y62433D01*
X190179Y62433D01*
G37*
G36*
X205286Y62065D02*
X216056Y63648D01*
X216083Y63872D01*
X194463Y72609D01*
X194331Y72403D01*
X205286Y62065D01*
X205286Y62065D01*
G37*
G36*
X204758Y61981D02*
X205449Y62090D01*
X205504Y62266D01*
X194517Y72633D01*
X194314Y72424D01*
X204758Y61981D01*
X204758Y61981D01*
G37*
G36*
X206385Y61906D02*
X216092Y63658D01*
X216045Y63945D01*
X205188Y62349D01*
X205187Y62095D01*
X206385Y61906D01*
X206385Y61906D01*
G37*
G36*
X222003Y61659D02*
X256873Y72025D01*
X256793Y72306D01*
X222434Y62899D01*
X221878Y61809D01*
X222003Y61659D01*
X222003Y61659D01*
G37*
G36*
X184252Y61588D02*
X184813Y62690D01*
X181332Y68657D01*
X181084Y68532D01*
X184065Y61595D01*
X184252Y61588D01*
X184252Y61588D01*
G37*
G36*
X184087Y61545D02*
X184357Y61662D01*
X181408Y68526D01*
X180858Y69604D01*
X180599Y69481D01*
X184087Y61545D01*
X184087Y61545D01*
G37*
G36*
X190531Y61585D02*
X190726Y61599D01*
X193075Y68574D01*
X192817Y68678D01*
X189971Y62683D01*
X190531Y61585D01*
X190531Y61585D01*
G37*
G36*
X207312Y61417D02*
X216098Y63670D01*
X216037Y63948D01*
X206253Y62182D01*
X206222Y61972D01*
X207312Y61417D01*
X207312Y61417D01*
G37*
G36*
X221237Y60902D02*
X256875Y72028D01*
X256790Y72308D01*
X221976Y61959D01*
X221117Y61100D01*
X221237Y60902D01*
X221237Y60902D01*
G37*
G36*
X208043Y60651D02*
X216106Y63689D01*
X216022Y63955D01*
X207210Y61695D01*
X207165Y61530D01*
X208043Y60651D01*
X208043Y60651D01*
G37*
G36*
X183898Y60532D02*
X184125Y60555D01*
X184316Y61759D01*
X180870Y69599D01*
X180604Y69492D01*
X183898Y60532D01*
X183898Y60532D01*
G37*
G36*
X190895Y60537D02*
X193071Y68589D01*
X192797Y68672D01*
X190466Y61752D01*
X190656Y60549D01*
X190895Y60537D01*
X190895Y60537D01*
G37*
G36*
X220273Y60414D02*
X256876Y72029D01*
X256788Y72310D01*
X221248Y61215D01*
X220169Y60665D01*
X220273Y60414D01*
X220273Y60414D01*
G37*
G36*
X168506Y59944D02*
X181379Y72348D01*
X190263Y81703D01*
X190054Y81906D01*
X168301Y60153D01*
X168506Y59944D01*
X168506Y59944D01*
G37*
G36*
X168501Y59944D02*
X180912Y71415D01*
X181462Y72496D01*
X181262Y72645D01*
X168301Y60157D01*
X168501Y59944D01*
X168501Y59944D01*
G37*
G36*
X168494Y59946D02*
X180763Y70380D01*
X180954Y71587D01*
X180769Y71686D01*
X168302Y60162D01*
X168494Y59946D01*
X168494Y59946D01*
G37*
G36*
X168483Y59948D02*
X180952Y69344D01*
X180758Y70566D01*
X180596Y70626D01*
X168304Y60171D01*
X168483Y59948D01*
X168483Y59948D01*
G37*
G36*
X168405Y60001D02*
X184206Y60550D01*
X180862Y69646D01*
X168333Y60205D01*
X168405Y60001D01*
X168405Y60001D01*
G37*
G36*
X208499Y59676D02*
X216114Y63712D01*
X216001Y63964D01*
X207874Y60903D01*
X208499Y59676D01*
X208499Y59676D01*
G37*
G36*
X184337Y59489D02*
X184123Y60843D01*
X168361Y60294D01*
X168361Y60009D01*
X184337Y59489D01*
X184337Y59489D01*
G37*
G36*
X184308Y59493D02*
X184314Y59785D01*
X168511Y60300D01*
X98683Y60300D01*
X98682Y60005D01*
X184308Y59493D01*
X184308Y59493D01*
G37*
G36*
X190726Y59469D02*
X193070Y68594D01*
X192787Y68669D01*
X190639Y60721D01*
X190450Y59526D01*
X190726Y59469D01*
X190726Y59469D01*
G37*
G36*
X202122Y59204D02*
X202201Y59388D01*
X192935Y68654D01*
X192769Y68609D01*
X190428Y59499D01*
X202122Y59204D01*
X202122Y59204D01*
G37*
G36*
X202067Y58671D02*
X202198Y59498D01*
X190477Y59793D01*
X190463Y59505D01*
X202067Y58671D01*
X202067Y58671D01*
G37*
G36*
X208619Y58574D02*
X216121Y63735D01*
X215977Y63973D01*
X208400Y59958D01*
X208619Y58574D01*
X208619Y58574D01*
G37*
G36*
X218576Y58646D02*
X256877Y72034D01*
X256785Y72310D01*
X220277Y60725D01*
X218450Y58843D01*
X218576Y58646D01*
X218576Y58646D01*
G37*
G36*
X218658Y58633D02*
X220538Y60569D01*
X220440Y60758D01*
X219205Y60562D01*
X218454Y58768D01*
X218658Y58633D01*
X218658Y58633D01*
G37*
G36*
X218718Y58632D02*
X219518Y60546D01*
X219169Y60601D01*
X218447Y58741D01*
X218718Y58632D01*
X218718Y58632D01*
G37*
G36*
X184888Y58544D02*
X184254Y59789D01*
X98684Y60300D01*
X98681Y60007D01*
X184888Y58544D01*
X184888Y58544D01*
G37*
G36*
X189893Y58546D02*
X202085Y58682D01*
X202094Y58965D01*
X190530Y59796D01*
X189893Y58546D01*
X189893Y58546D01*
G37*
G36*
X217508Y58495D02*
X218745Y58691D01*
X219445Y60497D01*
X219239Y60626D01*
X217409Y58682D01*
X217508Y58495D01*
X217508Y58495D01*
G37*
G36*
X219701Y58506D02*
X256879Y72037D01*
X256781Y72313D01*
X218480Y58925D01*
X218501Y58696D01*
X219701Y58506D01*
X219701Y58506D01*
G37*
G36*
X217331Y58360D02*
X217679Y58538D01*
X219471Y60441D01*
X219262Y60644D01*
X217183Y58565D01*
X217331Y58360D01*
X217331Y58360D01*
G37*
G36*
X220624Y58014D02*
X256881Y72040D01*
X256778Y72314D01*
X219545Y58763D01*
X219533Y58570D01*
X220624Y58014D01*
X220624Y58014D01*
G37*
G36*
X185492Y57795D02*
X185571Y57979D01*
X184707Y58843D01*
X98686Y60302D01*
X98679Y60008D01*
X185492Y57795D01*
X185492Y57795D01*
G37*
G36*
X189293Y57791D02*
X202095Y58691D01*
X202084Y58977D01*
X190074Y58843D01*
X189208Y57977D01*
X189293Y57791D01*
X189293Y57791D01*
G37*
G36*
X185733Y57681D02*
X185791Y57910D01*
X185433Y58092D01*
X98686Y60303D01*
X98679Y60008D01*
X185733Y57681D01*
X185733Y57681D01*
G37*
G36*
X189053Y57675D02*
X202100Y58692D01*
X202079Y58986D01*
X189345Y58090D01*
X188987Y57908D01*
X189053Y57675D01*
X189053Y57675D01*
G37*
G36*
X202281Y57631D02*
X202067Y58986D01*
X189009Y57968D01*
X189020Y57685D01*
X202281Y57631D01*
X202281Y57631D01*
G37*
G36*
X208577Y57601D02*
X216126Y63752D01*
X215956Y63979D01*
X208593Y58914D01*
X208401Y57702D01*
X208577Y57601D01*
X208577Y57601D01*
G37*
G36*
X221348Y57251D02*
X256882Y72045D01*
X256774Y72315D01*
X220367Y58232D01*
X221348Y57251D01*
X221348Y57251D01*
G37*
G36*
X9106Y57060D02*
X81250Y79018D01*
X81210Y79271D01*
X28063Y78581D01*
X8985Y57249D01*
X9106Y57060D01*
X9106Y57060D01*
G37*
G36*
X9205Y57052D02*
X28304Y78407D01*
X28226Y78582D01*
X12996Y78582D01*
X9004Y57151D01*
X9205Y57052D01*
X9205Y57052D01*
G37*
G36*
X9290Y57071D02*
X13278Y78484D01*
X10346Y81416D01*
X10167Y81347D01*
X9016Y57103D01*
X9290Y57071D01*
X9290Y57071D01*
G37*
G36*
X9031Y57085D02*
X9311Y57087D01*
X10457Y81247D01*
X1738Y181737D01*
X1448Y181715D01*
X9031Y57085D01*
X9031Y57085D01*
G37*
G36*
X10852Y57086D02*
X81268Y79025D01*
X81182Y79306D01*
X9005Y57338D01*
X9043Y57086D01*
X10852Y57086D01*
X10852Y57086D01*
G37*
G36*
X29200Y57086D02*
X81271Y79040D01*
X81174Y79305D01*
X10664Y57337D01*
X10702Y57086D01*
X29200Y57086D01*
X29200Y57086D01*
G37*
G36*
X30860Y57086D02*
X81278Y79045D01*
X81162Y79315D01*
X29001Y57323D01*
X29049Y57086D01*
X30860Y57086D01*
X30860Y57086D01*
G37*
G36*
X49216Y57086D02*
X81278Y79076D01*
X81148Y79311D01*
X30660Y57321D01*
X30709Y57086D01*
X49216Y57086D01*
X49216Y57086D01*
G37*
G36*
X50877Y57086D02*
X81289Y79088D01*
X81121Y79326D01*
X48997Y57294D01*
X49061Y57086D01*
X50877Y57086D01*
X50877Y57086D01*
G37*
G36*
X192024Y56996D02*
X202260Y57641D01*
X202252Y57927D01*
X189031Y57980D01*
X189000Y57719D01*
X192024Y56996D01*
X192024Y56996D01*
G37*
G36*
X7896Y56901D02*
X9325Y57107D01*
X1742Y181734D01*
X1449Y181718D01*
X7896Y56901D01*
X7896Y56901D01*
G37*
G36*
X11954Y56923D02*
X29318Y57088D01*
X29317Y57381D01*
X10692Y57381D01*
X10672Y57107D01*
X11954Y56923D01*
X11954Y56923D01*
G37*
G36*
X28045Y56923D02*
X29328Y57107D01*
X29307Y57383D01*
X11816Y57217D01*
X11817Y56923D01*
X28045Y56923D01*
X28045Y56923D01*
G37*
G36*
X31954Y56923D02*
X49318Y57088D01*
X49317Y57381D01*
X30692Y57381D01*
X30672Y57107D01*
X31954Y56923D01*
X31954Y56923D01*
G37*
G36*
X48045Y56923D02*
X49328Y57107D01*
X49307Y57383D01*
X31816Y57217D01*
X31817Y56923D01*
X48045Y56923D01*
X48045Y56923D01*
G37*
G36*
X52004Y56916D02*
X81290Y79092D01*
X81116Y79327D01*
X50662Y57295D01*
X50710Y57102D01*
X52004Y56916D01*
X52004Y56916D01*
G37*
G36*
X190966Y56826D02*
X192179Y57018D01*
X192189Y57260D01*
X189067Y58006D01*
X188979Y57754D01*
X190966Y56826D01*
X190966Y56826D01*
G37*
G36*
X193080Y56830D02*
X202266Y57646D01*
X202244Y57936D01*
X191895Y57284D01*
X191883Y57020D01*
X193080Y56830D01*
X193080Y56830D01*
G37*
G36*
X202833Y56682D02*
X202194Y57936D01*
X192932Y57113D01*
X192943Y56833D01*
X202833Y56682D01*
X202833Y56682D01*
G37*
G36*
X208087Y56642D02*
X216129Y63763D01*
X215942Y63983D01*
X208445Y57874D01*
X207893Y56792D01*
X208087Y56642D01*
X208087Y56642D01*
G37*
G36*
X6814Y56351D02*
X8187Y56978D01*
X1744Y181733D01*
X1450Y181719D01*
X6814Y56351D01*
X6814Y56351D01*
G37*
G36*
X13017Y56428D02*
X28185Y56928D01*
X28180Y57218D01*
X11845Y57218D01*
X11795Y56986D01*
X13017Y56428D01*
X13017Y56428D01*
G37*
G36*
X26985Y56429D02*
X28206Y56987D01*
X28151Y57222D01*
X12896Y56719D01*
X12901Y56429D01*
X26985Y56429D01*
X26985Y56429D01*
G37*
G36*
X33017Y56428D02*
X48185Y56928D01*
X48180Y57218D01*
X31845Y57218D01*
X31795Y56986D01*
X33017Y56428D01*
X33017Y56428D01*
G37*
G36*
X46985Y56429D02*
X48206Y56987D01*
X48151Y57222D01*
X32896Y56719D01*
X32901Y56429D01*
X46985Y56429D01*
X46985Y56429D01*
G37*
G36*
X53068Y56404D02*
X81290Y79098D01*
X81111Y79327D01*
X51678Y57039D01*
X53068Y56404D01*
X53068Y56404D01*
G37*
G36*
X189991Y56305D02*
X191137Y56889D01*
X191134Y57073D01*
X189123Y58013D01*
X188977Y57844D01*
X189991Y56305D01*
X189991Y56305D01*
G37*
G36*
X193998Y56348D02*
X202740Y56692D01*
X202736Y56979D01*
X192970Y57128D01*
X192914Y56900D01*
X193998Y56348D01*
X193998Y56348D01*
G37*
G36*
X221797Y56287D02*
X256884Y72050D01*
X256769Y72317D01*
X221179Y57500D01*
X221797Y56287D01*
X221797Y56287D01*
G37*
G36*
X203405Y55962D02*
X203486Y56147D01*
X202649Y56984D01*
X193883Y56639D01*
X193883Y56355D01*
X203405Y55962D01*
X203405Y55962D01*
G37*
G36*
X194353Y55966D02*
X203455Y55966D01*
X203461Y56255D01*
X193936Y56648D01*
X193855Y56464D01*
X194353Y55966D01*
X194353Y55966D01*
G37*
G36*
X207352Y55908D02*
X216131Y63766D01*
X215935Y63986D01*
X207979Y56941D01*
X207154Y56117D01*
X207352Y55908D01*
X207352Y55908D01*
G37*
G36*
X208320Y55966D02*
X216129Y63775D01*
X215931Y63983D01*
X207186Y56156D01*
X207259Y55966D01*
X208320Y55966D01*
X208320Y55966D01*
G37*
G36*
X6080Y55625D02*
X7103Y56511D01*
X1745Y181732D01*
X1451Y181720D01*
X5909Y55699D01*
X6080Y55625D01*
X6080Y55625D01*
G37*
G36*
X13894Y55646D02*
X27104Y56438D01*
X27096Y56724D01*
X12944Y56724D01*
X12872Y56532D01*
X13894Y55646D01*
X13894Y55646D01*
G37*
G36*
X26109Y55650D02*
X27129Y56534D01*
X27049Y56730D01*
X13794Y55936D01*
X13802Y55650D01*
X26109Y55650D01*
X26109Y55650D01*
G37*
G36*
X33894Y55646D02*
X47104Y56438D01*
X47096Y56724D01*
X32944Y56724D01*
X32872Y56532D01*
X33894Y55646D01*
X33894Y55646D01*
G37*
G36*
X46109Y55650D02*
X47129Y56534D01*
X47049Y56730D01*
X33794Y55936D01*
X33802Y55650D01*
X46109Y55650D01*
X46109Y55650D01*
G37*
G36*
X53945Y55602D02*
X81290Y79104D01*
X81105Y79328D01*
X52816Y56581D01*
X53945Y55602D01*
X53945Y55602D01*
G37*
G36*
X189328Y55574D02*
X190232Y56477D01*
X189223Y58008D01*
X189008Y57936D01*
X189150Y55642D01*
X189328Y55574D01*
X189328Y55574D01*
G37*
G36*
X189241Y55322D02*
X189441Y55715D01*
X189301Y57984D01*
X189014Y57975D01*
X189014Y55376D01*
X189241Y55322D01*
X189241Y55322D01*
G37*
G36*
X221916Y55211D02*
X256886Y72055D01*
X256763Y72319D01*
X221701Y56568D01*
X221916Y55211D01*
X221916Y55211D01*
G37*
G36*
X221962Y55234D02*
X257867Y72503D01*
X257743Y72768D01*
X256628Y72259D01*
X221834Y55500D01*
X221962Y55234D01*
X221962Y55234D01*
G37*
G36*
X34490Y54678D02*
X46207Y55662D01*
X46195Y55945D01*
X33858Y55945D01*
X33774Y55791D01*
X34490Y54678D01*
X34490Y54678D01*
G37*
G36*
X45514Y54685D02*
X46227Y55795D01*
X46133Y55952D01*
X34412Y54967D01*
X34424Y54685D01*
X45514Y54685D01*
X45514Y54685D01*
G37*
G36*
X54536Y54605D02*
X81291Y79111D01*
X81098Y79328D01*
X53752Y55826D01*
X54536Y54605D01*
X54536Y54605D01*
G37*
G36*
X56856Y54685D02*
X81291Y79119D01*
X81091Y79328D01*
X54392Y54873D01*
X54465Y54685D01*
X56856Y54685D01*
X56856Y54685D01*
G37*
G36*
X5476Y54625D02*
X6203Y55756D01*
X1746Y181731D01*
X1452Y181721D01*
X5266Y54683D01*
X5476Y54625D01*
X5476Y54625D01*
G37*
G36*
X5267Y54645D02*
X5562Y54654D01*
X1751Y181583D01*
X1324Y195821D01*
X1029Y195812D01*
X5267Y54645D01*
X5267Y54645D01*
G37*
G36*
X14513Y54642D02*
X26207Y55663D01*
X26195Y55945D01*
X13858Y55945D01*
X13774Y55791D01*
X14513Y54642D01*
X14513Y54642D01*
G37*
G36*
X25491Y54649D02*
X26228Y55795D01*
X26132Y55952D01*
X14435Y54931D01*
X14447Y54649D01*
X25491Y54649D01*
X25491Y54649D01*
G37*
G36*
X221851Y54209D02*
X257868Y72507D01*
X257739Y72769D01*
X221897Y55530D01*
X221705Y54316D01*
X221851Y54209D01*
X221851Y54209D01*
G37*
G36*
X5181Y53493D02*
X5559Y54778D01*
X1324Y195821D01*
X1029Y195812D01*
X4931Y53525D01*
X5181Y53493D01*
X5181Y53493D01*
G37*
G36*
X14817Y53495D02*
X25565Y54665D01*
X25550Y54944D01*
X14391Y54944D01*
X14817Y53495D01*
X14817Y53495D01*
G37*
G36*
X25186Y53508D02*
X25614Y54967D01*
X14769Y53787D01*
X14784Y53508D01*
X25186Y53508D01*
X25186Y53508D01*
G37*
G36*
X221356Y53255D02*
X257870Y72510D01*
X257735Y72771D01*
X221755Y54492D01*
X221202Y53407D01*
X221356Y53255D01*
X221356Y53255D01*
G37*
G36*
X4932Y53056D02*
X5223Y53060D01*
X5223Y53657D01*
X1324Y195820D01*
X1029Y195812D01*
X4932Y53056D01*
X4932Y53056D01*
G37*
G36*
X220590Y52495D02*
X257871Y72512D01*
X257732Y72772D01*
X221294Y53556D01*
X220438Y52700D01*
X220590Y52495D01*
X220590Y52495D01*
G37*
G36*
X14776Y52300D02*
X25231Y53525D01*
X25215Y53803D01*
X14776Y53803D01*
X14776Y52300D01*
X14776Y52300D01*
G37*
G36*
X25223Y52318D02*
X25223Y53821D01*
X14768Y52596D01*
X14784Y52318D01*
X25223Y52318D01*
X25223Y52318D01*
G37*
G36*
X185766Y52132D02*
X185766Y57976D01*
X98691Y60303D01*
X98674Y60018D01*
X185766Y52132D01*
X185766Y52132D01*
G37*
G36*
X14385Y51154D02*
X25230Y52334D01*
X25215Y52613D01*
X14813Y52613D01*
X14385Y51154D01*
X14385Y51154D01*
G37*
G36*
X25608Y51177D02*
X25182Y52626D01*
X14434Y51456D01*
X14449Y51177D01*
X25608Y51177D01*
X25608Y51177D01*
G37*
G36*
X58259Y51081D02*
X84524Y76452D01*
X84469Y76626D01*
X83538Y76774D01*
X58054Y51290D01*
X58259Y51081D01*
X58259Y51081D01*
G37*
G36*
X58256Y51081D02*
X85585Y76628D01*
X85489Y76824D01*
X84287Y76633D01*
X58054Y51293D01*
X58256Y51081D01*
X58256Y51081D01*
G37*
G36*
X58254Y51081D02*
X86545Y77122D01*
X86398Y77333D01*
X85319Y76783D01*
X58054Y51296D01*
X58254Y51081D01*
X58254Y51081D01*
G37*
G36*
X58249Y51082D02*
X99429Y86701D01*
X99251Y86923D01*
X86256Y77257D01*
X58055Y51299D01*
X58249Y51082D01*
X58249Y51082D01*
G37*
G36*
X58246Y51081D02*
X130487Y112768D01*
X130297Y112993D01*
X99129Y86832D01*
X58054Y51304D01*
X58246Y51081D01*
X58246Y51081D01*
G37*
G36*
X2325Y50247D02*
X5225Y53146D01*
X1324Y195819D01*
X1032Y195814D01*
X2143Y50321D01*
X2325Y50247D01*
X2325Y50247D01*
G37*
G36*
X13867Y50169D02*
X25564Y51190D01*
X25552Y51472D01*
X14508Y51472D01*
X13771Y50326D01*
X13867Y50169D01*
X13867Y50169D01*
G37*
G36*
X26141Y50176D02*
X26225Y50330D01*
X25486Y51479D01*
X13792Y50458D01*
X13804Y50176D01*
X26141Y50176D01*
X26141Y50176D01*
G37*
G36*
X53881Y50158D02*
X58423Y51174D01*
X58394Y51437D01*
X54485Y51437D01*
X53768Y50320D01*
X53881Y50158D01*
X53881Y50158D01*
G37*
G36*
X99316Y49773D02*
X185762Y52150D01*
X185771Y52428D01*
X98672Y60314D01*
X99316Y49773D01*
X99316Y49773D01*
G37*
G36*
X98252Y49584D02*
X99611Y49799D01*
X98969Y60301D01*
X98688Y60298D01*
X98252Y49584D01*
X98252Y49584D01*
G37*
G36*
X100494Y49610D02*
X185771Y52151D01*
X185762Y52445D01*
X99316Y50068D01*
X99299Y49799D01*
X100494Y49610D01*
X100494Y49610D01*
G37*
G36*
X12950Y49391D02*
X26205Y50185D01*
X26197Y50471D01*
X13890Y50471D01*
X12870Y49587D01*
X12950Y49391D01*
X12950Y49391D01*
G37*
G36*
X27055Y49397D02*
X27127Y49589D01*
X26105Y50475D01*
X12895Y49683D01*
X12903Y49397D01*
X27055Y49397D01*
X27055Y49397D01*
G37*
G36*
X52978Y49366D02*
X58442Y51193D01*
X58367Y51464D01*
X53877Y50460D01*
X52858Y49577D01*
X52978Y49366D01*
X52978Y49366D01*
G37*
G36*
X97448Y49104D02*
X98551Y49666D01*
X98983Y60287D01*
X98701Y60311D01*
X97303Y49206D01*
X97448Y49104D01*
X97448Y49104D01*
G37*
G36*
X101417Y49127D02*
X185771Y52152D01*
X185762Y52446D01*
X100385Y49902D01*
X100335Y49679D01*
X101417Y49127D01*
X101417Y49127D01*
G37*
G36*
X12008Y48973D02*
X27102Y49401D01*
X27098Y49692D01*
X13014Y49692D01*
X11953Y49208D01*
X12008Y48973D01*
X12008Y48973D01*
G37*
G36*
X27994Y48976D02*
X28044Y49208D01*
X26983Y49693D01*
X11975Y49267D01*
X11979Y48976D01*
X27994Y48976D01*
X27994Y48976D01*
G37*
G36*
X52040Y48937D02*
X58449Y51198D01*
X58354Y51475D01*
X52992Y49682D01*
X51934Y49199D01*
X52040Y48937D01*
X52040Y48937D01*
G37*
G36*
X13016Y48554D02*
X28024Y48980D01*
X28020Y49271D01*
X12005Y49271D01*
X11955Y49039D01*
X13016Y48554D01*
X13016Y48554D01*
G37*
G36*
X26985Y48555D02*
X28046Y49039D01*
X27991Y49275D01*
X12897Y48846D01*
X12901Y48555D01*
X26985Y48555D01*
X26985Y48555D01*
G37*
G36*
X53049Y48539D02*
X58452Y51218D01*
X58344Y51474D01*
X51981Y49230D01*
X51972Y49031D01*
X53049Y48539D01*
X53049Y48539D01*
G37*
G36*
X96738Y48344D02*
X97601Y49208D01*
X98995Y60276D01*
X98711Y60320D01*
X96545Y48445D01*
X96738Y48344D01*
X96738Y48344D01*
G37*
G36*
X102142Y48375D02*
X185772Y52153D01*
X185760Y52447D01*
X101348Y49420D01*
X101277Y49240D01*
X102142Y48375D01*
X102142Y48375D01*
G37*
G36*
X102226Y48151D02*
X185773Y52153D01*
X185759Y52448D01*
X101965Y48663D01*
X102226Y48151D01*
X102226Y48151D01*
G37*
G36*
X189709Y48155D02*
X189784Y48337D01*
X185677Y52444D01*
X102163Y48443D01*
X102170Y48155D01*
X189709Y48155D01*
X189709Y48155D01*
G37*
G36*
X213787Y47887D02*
X218805Y51984D01*
X218755Y52168D01*
X217820Y52316D01*
X213599Y48095D01*
X213787Y47887D01*
X213787Y47887D01*
G37*
G36*
X213770Y47887D02*
X219867Y52150D01*
X219779Y52368D01*
X218575Y52177D01*
X213599Y48114D01*
X213770Y47887D01*
X213770Y47887D01*
G37*
G36*
X213763Y47886D02*
X220830Y52641D01*
X220689Y52880D01*
X219610Y52330D01*
X213598Y48127D01*
X213763Y47886D01*
X213763Y47886D01*
G37*
G36*
X213751Y47892D02*
X257871Y72515D01*
X257730Y72772D01*
X220556Y52812D01*
X213603Y48133D01*
X213751Y47892D01*
X213751Y47892D01*
G37*
G36*
X13894Y47772D02*
X27104Y48564D01*
X27096Y48850D01*
X12944Y48850D01*
X12872Y48658D01*
X13894Y47772D01*
X13894Y47772D01*
G37*
G36*
X26109Y47776D02*
X27129Y48660D01*
X27049Y48856D01*
X13794Y48062D01*
X13802Y47776D01*
X26109Y47776D01*
X26109Y47776D01*
G37*
G36*
X53940Y47732D02*
X58458Y51254D01*
X58316Y51480D01*
X52782Y48736D01*
X53940Y47732D01*
X53940Y47732D01*
G37*
G36*
X255739Y47681D02*
X269899Y112898D01*
X269620Y112967D01*
X259227Y75248D01*
X255459Y47731D01*
X255739Y47681D01*
X255739Y47681D01*
G37*
G36*
X255751Y47685D02*
X259536Y75334D01*
X259269Y75392D01*
X258923Y74215D01*
X255459Y47725D01*
X255751Y47685D01*
X255751Y47685D01*
G37*
G36*
X255752Y47687D02*
X259230Y74283D01*
X259008Y74364D01*
X258343Y73329D01*
X255461Y47722D01*
X255752Y47687D01*
X255752Y47687D01*
G37*
G36*
X255755Y47690D02*
X258643Y73362D01*
X258465Y73456D01*
X257529Y72645D01*
X255465Y47719D01*
X255755Y47690D01*
X255755Y47690D01*
G37*
G36*
X255760Y47703D02*
X257826Y72649D01*
X257677Y72745D01*
X213631Y48163D01*
X213688Y47943D01*
X255760Y47703D01*
X255760Y47703D01*
G37*
G36*
X255771Y47703D02*
X255773Y47998D01*
X213803Y48237D01*
X194267Y48237D01*
X194267Y47943D01*
X255771Y47703D01*
X255771Y47703D01*
G37*
G36*
X254526Y47528D02*
X255782Y47727D01*
X255761Y47998D01*
X194268Y48238D01*
X194266Y47943D01*
X254526Y47528D01*
X254526Y47528D01*
G37*
G36*
X256851Y47508D02*
X269897Y112904D01*
X269611Y112964D01*
X255447Y47730D01*
X256851Y47508D01*
X256851Y47508D01*
G37*
G36*
X96301Y47397D02*
X96851Y48478D01*
X99002Y60269D01*
X98715Y60325D01*
X96057Y47483D01*
X96301Y47397D01*
X96301Y47397D01*
G37*
G36*
X253549Y47018D02*
X254685Y47597D01*
X254632Y47822D01*
X194269Y48238D01*
X194265Y47944D01*
X253549Y47018D01*
X253549Y47018D01*
G37*
G36*
X257844Y46944D02*
X269895Y112907D01*
X269608Y112962D01*
X256567Y47595D01*
X257844Y46944D01*
X257844Y46944D01*
G37*
G36*
X54549Y46711D02*
X58461Y51295D01*
X58277Y51487D01*
X53748Y47957D01*
X54549Y46711D01*
X54549Y46711D01*
G37*
G36*
X54559Y46757D02*
X130487Y112770D01*
X130295Y112993D01*
X58157Y51394D01*
X54364Y46950D01*
X54559Y46757D01*
X54559Y46757D01*
G37*
G36*
X64514Y46811D02*
X130485Y112781D01*
X130290Y112990D01*
X54392Y47002D01*
X54463Y46811D01*
X64514Y46811D01*
X64514Y46811D01*
G37*
G36*
X14513Y46768D02*
X26207Y47789D01*
X26195Y48071D01*
X13858Y48071D01*
X13774Y47917D01*
X14513Y46768D01*
X14513Y46768D01*
G37*
G36*
X25491Y46775D02*
X26228Y47921D01*
X26132Y48078D01*
X14435Y47057D01*
X14447Y46775D01*
X25491Y46775D01*
X25491Y46775D01*
G37*
G36*
X252779Y46222D02*
X253688Y47130D01*
X253614Y47312D01*
X194270Y48240D01*
X194264Y47947D01*
X252779Y46222D01*
X252779Y46222D01*
G37*
G36*
X258488Y46203D02*
X258660Y46258D01*
X269894Y112909D01*
X269605Y112960D01*
X257576Y47116D01*
X258488Y46203D01*
X258488Y46203D01*
G37*
G36*
X14817Y45621D02*
X25565Y46791D01*
X25550Y47070D01*
X14391Y47070D01*
X14817Y45621D01*
X14817Y45621D01*
G37*
G36*
X25186Y45634D02*
X25614Y47093D01*
X14769Y45913D01*
X14784Y45634D01*
X25186Y45634D01*
X25186Y45634D01*
G37*
G36*
X252298Y45219D02*
X252957Y46512D01*
X194273Y48242D01*
X194262Y47949D01*
X252298Y45219D01*
X252298Y45219D01*
G37*
G36*
X258956Y45208D02*
X259168Y45242D01*
X269893Y112911D01*
X269603Y112959D01*
X258375Y46348D01*
X258956Y45208D01*
X258956Y45208D01*
G37*
G36*
X14776Y44426D02*
X25231Y45651D01*
X25215Y45929D01*
X14776Y45929D01*
X14776Y44426D01*
X14776Y44426D01*
G37*
G36*
X25223Y44444D02*
X25223Y45947D01*
X14768Y44722D01*
X14784Y44444D01*
X25223Y44444D01*
X25223Y44444D01*
G37*
G36*
X101959Y44388D02*
X192882Y44612D01*
X192882Y44907D01*
X102223Y44907D01*
X101959Y44388D01*
X101959Y44388D01*
G37*
G36*
X252159Y44105D02*
X252382Y45510D01*
X194276Y48244D01*
X194259Y47952D01*
X252159Y44105D01*
X252159Y44105D01*
G37*
G36*
X259088Y44113D02*
X259341Y44114D01*
X269892Y112912D01*
X269601Y112958D01*
X258889Y45371D01*
X259088Y44113D01*
X259088Y44113D01*
G37*
G36*
X101352Y43637D02*
X192883Y44613D01*
X192881Y44907D01*
X102139Y44684D01*
X101275Y43820D01*
X101352Y43637D01*
X101352Y43637D01*
G37*
G36*
X14385Y43280D02*
X25230Y44460D01*
X25215Y44739D01*
X14813Y44739D01*
X14385Y43280D01*
X14385Y43280D01*
G37*
G36*
X25608Y43303D02*
X25182Y44752D01*
X14434Y43582D01*
X14449Y43303D01*
X25608Y43303D01*
X25608Y43303D01*
G37*
G36*
X100389Y43154D02*
X192884Y44614D01*
X192880Y44909D01*
X101413Y43933D01*
X100332Y43382D01*
X100389Y43154D01*
X100389Y43154D01*
G37*
G36*
X14367Y43090D02*
X25560Y43306D01*
X25557Y43598D01*
X14508Y43598D01*
X14281Y43244D01*
X14367Y43090D01*
X14367Y43090D01*
G37*
G36*
X252385Y42989D02*
X252162Y44401D01*
X194279Y48247D01*
X194256Y47955D01*
X252385Y42989D01*
X252385Y42989D01*
G37*
G36*
X99320Y42988D02*
X192884Y44614D01*
X192879Y44909D01*
X100491Y43451D01*
X99296Y43262D01*
X99320Y42988D01*
X99320Y42988D01*
G37*
G36*
X14648Y42835D02*
X25563Y43309D01*
X25553Y43601D01*
X14352Y43385D01*
X14279Y43204D01*
X14648Y42835D01*
X14648Y42835D01*
G37*
G36*
X25797Y42837D02*
X25881Y42991D01*
X25489Y43602D01*
X14556Y43126D01*
X14562Y42837D01*
X25797Y42837D01*
X25797Y42837D01*
G37*
G36*
X252792Y41995D02*
X252891Y42140D01*
X252304Y43292D01*
X194281Y48249D01*
X194254Y47958D01*
X252792Y41995D01*
X252792Y41995D01*
G37*
G36*
X253602Y41198D02*
X253693Y41387D01*
X252787Y42293D01*
X194284Y48252D01*
X194252Y47960D01*
X253602Y41198D01*
X253602Y41198D01*
G37*
G36*
X254620Y40686D02*
X254692Y40922D01*
X253558Y41501D01*
X194285Y48253D01*
X194251Y47961D01*
X254620Y40686D01*
X254620Y40686D01*
G37*
G36*
X255751Y40507D02*
X255791Y40794D01*
X254536Y40993D01*
X194286Y48254D01*
X194250Y47961D01*
X255751Y40507D01*
X255751Y40507D01*
G37*
G36*
X78932Y40125D02*
X96357Y47474D01*
X98997Y60230D01*
X98804Y60334D01*
X78796Y40326D01*
X78932Y40125D01*
X78932Y40125D01*
G37*
G36*
X78902Y40120D02*
X96194Y46422D01*
X96387Y47642D01*
X96251Y47749D01*
X78796Y40388D01*
X78902Y40120D01*
X78902Y40120D01*
G37*
G36*
X78891Y40125D02*
X96394Y45378D01*
X96180Y46731D01*
X78801Y40398D01*
X78891Y40125D01*
X78891Y40125D01*
G37*
G36*
X78881Y40131D02*
X96927Y44436D01*
X96304Y45659D01*
X78807Y40408D01*
X78881Y40131D01*
X78881Y40131D01*
G37*
G36*
X78872Y40136D02*
X97575Y43657D01*
X97628Y43827D01*
X96756Y44699D01*
X78812Y40418D01*
X78872Y40136D01*
X78872Y40136D01*
G37*
G36*
X78865Y40140D02*
X98535Y43174D01*
X98569Y43387D01*
X97483Y43940D01*
X78816Y40426D01*
X78865Y40140D01*
X78865Y40140D01*
G37*
G36*
X78861Y40142D02*
X99601Y43009D01*
X99604Y43264D01*
X98407Y43453D01*
X78819Y40432D01*
X78861Y40142D01*
X78861Y40142D01*
G37*
G36*
X78852Y40155D02*
X192886Y44618D01*
X192878Y44910D01*
X99444Y43285D01*
X78827Y40435D01*
X78852Y40155D01*
X78852Y40155D01*
G37*
G36*
X79203Y40124D02*
X192887Y44618D01*
X192876Y44913D01*
X78847Y40450D01*
X78831Y40183D01*
X79203Y40124D01*
X79203Y40124D01*
G37*
G36*
X80125Y39641D02*
X192888Y44618D01*
X192876Y44913D01*
X79092Y40415D01*
X79043Y40193D01*
X80125Y39641D01*
X80125Y39641D01*
G37*
G36*
X80850Y38889D02*
X192889Y44619D01*
X192875Y44913D01*
X80055Y39934D01*
X79985Y39754D01*
X80850Y38889D01*
X80850Y38889D01*
G37*
G36*
X80934Y38664D02*
X192889Y44620D01*
X192874Y44914D01*
X80674Y39175D01*
X80934Y38664D01*
X80934Y38664D01*
G37*
G36*
X153699Y38669D02*
X192895Y44635D01*
X192867Y44914D01*
X80871Y38957D01*
X80878Y38669D01*
X153699Y38669D01*
X153699Y38669D01*
G37*
G36*
X2144Y35198D02*
X2438Y35199D01*
X2438Y50421D01*
X1327Y195817D01*
X1032Y195815D01*
X2144Y35198D01*
X2144Y35198D01*
G37*
G36*
X2299Y35145D02*
X2438Y35285D01*
X1327Y195817D01*
X1032Y195815D01*
X2117Y35220D01*
X2299Y35145D01*
X2299Y35145D01*
G37*
G36*
X80667Y34902D02*
X152368Y35126D01*
X152367Y35421D01*
X80931Y35421D01*
X80667Y34902D01*
X80667Y34902D01*
G37*
G36*
X80060Y34151D02*
X152369Y35128D01*
X152366Y35422D01*
X80847Y35198D01*
X79983Y34334D01*
X80060Y34151D01*
X80060Y34151D01*
G37*
G36*
X79097Y33668D02*
X152370Y35129D01*
X152365Y35423D01*
X80121Y34447D01*
X79040Y33896D01*
X79097Y33668D01*
X79097Y33668D01*
G37*
G36*
X78029Y33501D02*
X152371Y35129D01*
X152365Y35424D01*
X79199Y33965D01*
X78004Y33776D01*
X78029Y33501D01*
X78029Y33501D01*
G37*
G36*
X2117Y28720D02*
X2411Y28721D01*
X2411Y35320D01*
X1327Y195817D01*
X1032Y195815D01*
X2117Y28720D01*
X2117Y28720D01*
G37*
G36*
X62799Y23915D02*
X75094Y35944D01*
X75032Y36335D01*
X74860Y36390D01*
X62593Y24123D01*
X62799Y23915D01*
X62799Y23915D01*
G37*
G36*
X62789Y23917D02*
X75602Y35015D01*
X74977Y36243D01*
X62595Y24128D01*
X62789Y23917D01*
X62789Y23917D01*
G37*
G36*
X62777Y23919D02*
X76393Y34285D01*
X75425Y35252D01*
X62596Y24141D01*
X62777Y23919D01*
X62777Y23919D01*
G37*
G36*
X62765Y23920D02*
X77405Y33836D01*
X76153Y34474D01*
X62597Y24153D01*
X62765Y23920D01*
X62765Y23920D01*
G37*
G36*
X62756Y23921D02*
X78328Y33581D01*
X78288Y33782D01*
X77080Y33973D01*
X62598Y24164D01*
X62756Y23921D01*
X62756Y23921D01*
G37*
G36*
X62701Y23962D02*
X152377Y35144D01*
X152357Y35424D01*
X78120Y33799D01*
X62622Y24186D01*
X62701Y23962D01*
X62701Y23962D01*
G37*
G36*
X6409Y20738D02*
X62953Y23984D01*
X62945Y24270D01*
X6880Y24270D01*
X6409Y20738D01*
X6409Y20738D01*
G37*
G36*
X6500Y20731D02*
X6711Y20769D01*
X7165Y24176D01*
X2278Y29063D01*
X2073Y28910D01*
X6500Y20731D01*
X6500Y20731D01*
G37*
G36*
X15925Y20748D02*
X62958Y23986D01*
X62939Y24279D01*
X6427Y21034D01*
X6435Y20748D01*
X15925Y20748D01*
X15925Y20748D01*
G37*
G36*
X82790Y19573D02*
X152390Y35160D01*
X152341Y35437D01*
X62659Y24254D01*
X62648Y24005D01*
X82790Y19573D01*
X82790Y19573D01*
G37*
G36*
X82920Y19574D02*
X82952Y19839D01*
X62812Y24271D01*
X15769Y21033D01*
X15776Y20750D01*
X82920Y19574D01*
X82920Y19574D01*
G37*
G36*
X87227Y19576D02*
X152397Y35164D01*
X152331Y35450D01*
X82628Y19839D01*
X82657Y19576D01*
X87227Y19576D01*
X87227Y19576D01*
G37*
G36*
X92808Y19576D02*
X152399Y35168D01*
X152328Y35451D01*
X87048Y19837D01*
X87078Y19576D01*
X92808Y19576D01*
X92808Y19576D01*
G37*
G36*
X97230Y19576D02*
X152401Y35171D01*
X152324Y35453D01*
X92626Y19834D01*
X92659Y19576D01*
X97230Y19576D01*
X97230Y19576D01*
G37*
G36*
X102812Y19576D02*
X152403Y35176D01*
X152320Y35455D01*
X97046Y19831D01*
X97081Y19576D01*
X102812Y19576D01*
X102812Y19576D01*
G37*
G36*
X107235Y19576D02*
X152406Y35182D01*
X152315Y35458D01*
X102624Y19827D01*
X102663Y19576D01*
X107235Y19576D01*
X107235Y19576D01*
G37*
G36*
X112817Y19576D02*
X152409Y35189D01*
X152308Y35460D01*
X107043Y19823D01*
X107085Y19576D01*
X112817Y19576D01*
X112817Y19576D01*
G37*
G36*
X117241Y19576D02*
X152412Y35197D01*
X152300Y35464D01*
X112621Y19816D01*
X112667Y19576D01*
X117241Y19576D01*
X117241Y19576D01*
G37*
G36*
X122826Y19576D02*
X152415Y35210D01*
X152290Y35466D01*
X117040Y19810D01*
X117090Y19576D01*
X122826Y19576D01*
X122826Y19576D01*
G37*
G36*
X127252Y19576D02*
X152419Y35223D01*
X152277Y35471D01*
X122618Y19800D01*
X122674Y19576D01*
X127252Y19576D01*
X127252Y19576D01*
G37*
G36*
X132841Y19576D02*
X152421Y35245D01*
X152260Y35472D01*
X127037Y19790D01*
X127098Y19576D01*
X132841Y19576D01*
X132841Y19576D01*
G37*
G36*
X137272Y19576D02*
X152422Y35271D01*
X152236Y35475D01*
X132615Y19774D01*
X132685Y19576D01*
X137272Y19576D01*
X137272Y19576D01*
G37*
G36*
X142872Y19576D02*
X152415Y35310D01*
X152205Y35471D01*
X137036Y19756D01*
X137112Y19576D01*
X142872Y19576D01*
X142872Y19576D01*
G37*
G36*
X147317Y19576D02*
X152401Y35353D01*
X152162Y35462D01*
X142618Y19727D01*
X142703Y19576D01*
X147317Y19576D01*
X147317Y19576D01*
G37*
G36*
X152942Y19576D02*
X152363Y35403D01*
X152117Y35437D01*
X147007Y19576D01*
X152942Y19576D01*
X152942Y19576D01*
G37*
G36*
X157412Y19576D02*
X152321Y35441D01*
X152068Y35397D01*
X152647Y19576D01*
X157412Y19576D01*
X157412Y19576D01*
G37*
G36*
X162878Y19576D02*
X162961Y19733D01*
X152270Y35462D01*
X152040Y35350D01*
X157102Y19576D01*
X162878Y19576D01*
X162878Y19576D01*
G37*
G36*
X167307Y19576D02*
X167384Y19756D01*
X152232Y35474D01*
X152022Y35303D01*
X162711Y19576D01*
X167307Y19576D01*
X167307Y19576D01*
G37*
G36*
X172802Y19503D02*
X192912Y44746D01*
X192812Y44920D01*
X153576Y38949D01*
X153519Y38777D01*
X172802Y19503D01*
X172802Y19503D01*
G37*
G36*
X177292Y19576D02*
X192933Y44800D01*
X192705Y44960D01*
X172616Y19743D01*
X172697Y19576D01*
X177292Y19576D01*
X177292Y19576D01*
G37*
G36*
X182889Y19576D02*
X192921Y44830D01*
X192680Y44952D01*
X177039Y19728D01*
X177123Y19576D01*
X182889Y19576D01*
X182889Y19576D01*
G37*
G36*
X187328Y19576D02*
X192908Y44861D01*
X192647Y44940D01*
X182572Y19576D01*
X187328Y19576D01*
X187328Y19576D01*
G37*
G36*
X192937Y19576D02*
X192882Y44892D01*
X192618Y44920D01*
X187026Y19576D01*
X192937Y19576D01*
X192937Y19576D01*
G37*
G36*
X197386Y19576D02*
X192856Y44918D01*
X192586Y44894D01*
X192642Y19576D01*
X197386Y19576D01*
X197386Y19576D01*
G37*
G36*
X203008Y19576D02*
X192822Y44938D01*
X192565Y44865D01*
X197086Y19576D01*
X203008Y19576D01*
X203008Y19576D01*
G37*
G36*
X207295Y19576D02*
X207380Y19724D01*
X192793Y44952D01*
X192546Y44832D01*
X202689Y19576D01*
X207295Y19576D01*
X207295Y19576D01*
G37*
G36*
X212882Y19576D02*
X212963Y19744D01*
X192764Y44958D01*
X192538Y44804D01*
X207125Y19576D01*
X212882Y19576D01*
X212882Y19576D01*
G37*
G36*
X217308Y19576D02*
X217384Y19757D01*
X192742Y44963D01*
X192531Y44777D01*
X212718Y19576D01*
X217308Y19576D01*
X217308Y19576D01*
G37*
G36*
X222742Y19521D02*
X257933Y41306D01*
X257794Y41553D01*
X256661Y40976D01*
X222586Y19771D01*
X222742Y19521D01*
X222742Y19521D01*
G37*
G36*
X222743Y19521D02*
X256914Y40785D01*
X256830Y41012D01*
X255571Y40812D01*
X222586Y19769D01*
X222743Y19521D01*
X222743Y19521D01*
G37*
G36*
X222769Y19536D02*
X255792Y40603D01*
X255745Y40805D01*
X194328Y48249D01*
X194236Y48060D01*
X222769Y19536D01*
X222769Y19536D01*
G37*
G36*
X227257Y19576D02*
X257937Y41319D01*
X257779Y41558D01*
X222617Y19791D01*
X222678Y19576D01*
X227257Y19576D01*
X227257Y19576D01*
G37*
G36*
X232844Y19576D02*
X257938Y41337D01*
X257764Y41559D01*
X227036Y19782D01*
X227102Y19576D01*
X232844Y19576D01*
X232844Y19576D01*
G37*
G36*
X237273Y19576D02*
X257939Y41357D01*
X257744Y41561D01*
X232615Y19768D01*
X232687Y19576D01*
X237273Y19576D01*
X237273Y19576D01*
G37*
G36*
X237215Y19515D02*
X258736Y42155D01*
X258528Y42359D01*
X257629Y41460D01*
X237001Y19718D01*
X237215Y19515D01*
X237215Y19515D01*
G37*
G36*
X242866Y19576D02*
X258728Y42179D01*
X258516Y42352D01*
X237036Y19755D01*
X237112Y19576D01*
X242866Y19576D01*
X242866Y19576D01*
G37*
G36*
X247301Y19576D02*
X258723Y42207D01*
X258487Y42348D01*
X242617Y19735D01*
X242700Y19576D01*
X247301Y19576D01*
X247301Y19576D01*
G37*
G36*
X247275Y19526D02*
X259237Y43217D01*
X258974Y43350D01*
X258397Y42218D01*
X247011Y19659D01*
X247275Y19526D01*
X247275Y19526D01*
G37*
G36*
X252903Y19576D02*
X259216Y43242D01*
X258967Y43337D01*
X246970Y19576D01*
X252903Y19576D01*
X252903Y19576D01*
G37*
G36*
X257346Y19576D02*
X259197Y43275D01*
X258931Y43320D01*
X252597Y19576D01*
X257346Y19576D01*
X257346Y19576D01*
G37*
G36*
X257345Y19565D02*
X259373Y44391D01*
X259091Y44425D01*
X258892Y43169D01*
X257051Y19588D01*
X257345Y19565D01*
X257345Y19565D01*
G37*
G36*
X257337Y19562D02*
X269890Y112915D01*
X269600Y112956D01*
X259068Y44279D01*
X257051Y19593D01*
X257337Y19562D01*
X257337Y19562D01*
G37*
G36*
X262926Y19576D02*
X269882Y112921D01*
X269597Y112951D01*
X257041Y19576D01*
X262926Y19576D01*
X262926Y19576D01*
G37*
G36*
X267353Y19576D02*
X269875Y112929D01*
X269587Y112944D01*
X262630Y19576D01*
X267353Y19576D01*
X267353Y19576D01*
G37*
G36*
X267351Y19571D02*
X274563Y181482D01*
X274272Y181498D01*
X269576Y112796D01*
X267058Y19582D01*
X267351Y19571D01*
X267351Y19571D01*
G37*
G36*
X172785Y19511D02*
X172998Y19724D01*
X153688Y39026D01*
X153479Y38817D01*
X172785Y19511D01*
X172785Y19511D01*
G37*
G36*
X222785Y19511D02*
X222998Y19724D01*
X194415Y48299D01*
X194206Y48090D01*
X222785Y19511D01*
X222785Y19511D01*
G37*
G36*
X170295Y17011D02*
X170483Y17219D01*
X152221Y35481D01*
X152012Y35276D01*
X167110Y19615D01*
X170295Y17011D01*
X170295Y17011D01*
G37*
G36*
X220295Y17011D02*
X220483Y17219D01*
X192735Y44968D01*
X192526Y44761D01*
X217110Y19615D01*
X220295Y17011D01*
X220295Y17011D01*
G37*
G36*
X80333Y17059D02*
X82963Y19689D01*
X82890Y19870D01*
X15778Y21045D01*
X15767Y20756D01*
X80333Y17059D01*
X80333Y17059D01*
G37*
G36*
X89714Y17011D02*
X92963Y19676D01*
X92893Y19872D01*
X87111Y19872D01*
X87036Y19689D01*
X89714Y17011D01*
X89714Y17011D01*
G37*
G36*
X90336Y17062D02*
X92993Y19719D01*
X92804Y19927D01*
X89550Y17258D01*
X89620Y17062D01*
X90336Y17062D01*
X90336Y17062D01*
G37*
G36*
X99714Y17011D02*
X102963Y19676D01*
X102893Y19872D01*
X97111Y19872D01*
X97036Y19689D01*
X99714Y17011D01*
X99714Y17011D01*
G37*
G36*
X100336Y17062D02*
X102993Y19719D01*
X102804Y19927D01*
X99550Y17258D01*
X99620Y17062D01*
X100336Y17062D01*
X100336Y17062D01*
G37*
G36*
X109714Y17011D02*
X112963Y19676D01*
X112893Y19872D01*
X107111Y19872D01*
X107036Y19689D01*
X109714Y17011D01*
X109714Y17011D01*
G37*
G36*
X110336Y17062D02*
X112993Y19719D01*
X112804Y19927D01*
X109550Y17258D01*
X109620Y17062D01*
X110336Y17062D01*
X110336Y17062D01*
G37*
G36*
X119714Y17011D02*
X122963Y19676D01*
X122893Y19872D01*
X117111Y19872D01*
X117036Y19689D01*
X119714Y17011D01*
X119714Y17011D01*
G37*
G36*
X120336Y17062D02*
X122993Y19719D01*
X122804Y19927D01*
X119550Y17258D01*
X119620Y17062D01*
X120336Y17062D01*
X120336Y17062D01*
G37*
G36*
X129714Y17011D02*
X132963Y19676D01*
X132893Y19872D01*
X127111Y19872D01*
X127036Y19689D01*
X129714Y17011D01*
X129714Y17011D01*
G37*
G36*
X130336Y17062D02*
X132993Y19719D01*
X132804Y19927D01*
X129550Y17258D01*
X129620Y17062D01*
X130336Y17062D01*
X130336Y17062D01*
G37*
G36*
X139714Y17011D02*
X142963Y19676D01*
X142893Y19872D01*
X137111Y19872D01*
X137036Y19689D01*
X139714Y17011D01*
X139714Y17011D01*
G37*
G36*
X140336Y17062D02*
X142993Y19719D01*
X142804Y19927D01*
X139550Y17258D01*
X139620Y17062D01*
X140336Y17062D01*
X140336Y17062D01*
G37*
G36*
X149714Y17011D02*
X152963Y19676D01*
X152893Y19872D01*
X147111Y19872D01*
X147036Y19689D01*
X149714Y17011D01*
X149714Y17011D01*
G37*
G36*
X150336Y17062D02*
X152993Y19719D01*
X152804Y19927D01*
X149550Y17258D01*
X149620Y17062D01*
X150336Y17062D01*
X150336Y17062D01*
G37*
G36*
X159714Y17011D02*
X162963Y19676D01*
X162893Y19872D01*
X157111Y19872D01*
X157036Y19689D01*
X159714Y17011D01*
X159714Y17011D01*
G37*
G36*
X160336Y17062D02*
X162993Y19719D01*
X162804Y19927D01*
X159550Y17258D01*
X159620Y17062D01*
X160336Y17062D01*
X160336Y17062D01*
G37*
G36*
X169663Y17062D02*
X170384Y17067D01*
X170453Y17263D01*
X167194Y19927D01*
X167006Y19719D01*
X169663Y17062D01*
X169663Y17062D01*
G37*
G36*
X170336Y17062D02*
X170454Y17180D01*
X170377Y17362D01*
X169576Y17356D01*
X169577Y17062D01*
X170336Y17062D01*
X170336Y17062D01*
G37*
G36*
X179714Y17011D02*
X182963Y19676D01*
X182893Y19872D01*
X177111Y19872D01*
X177036Y19689D01*
X179714Y17011D01*
X179714Y17011D01*
G37*
G36*
X180336Y17062D02*
X182993Y19719D01*
X182804Y19927D01*
X179550Y17258D01*
X179620Y17062D01*
X180336Y17062D01*
X180336Y17062D01*
G37*
G36*
X189714Y17011D02*
X192963Y19676D01*
X192893Y19872D01*
X187111Y19872D01*
X187036Y19689D01*
X189714Y17011D01*
X189714Y17011D01*
G37*
G36*
X190336Y17062D02*
X192993Y19719D01*
X192804Y19927D01*
X189550Y17258D01*
X189620Y17062D01*
X190336Y17062D01*
X190336Y17062D01*
G37*
G36*
X199714Y17011D02*
X202963Y19676D01*
X202893Y19872D01*
X197111Y19872D01*
X197036Y19689D01*
X199714Y17011D01*
X199714Y17011D01*
G37*
G36*
X200336Y17062D02*
X202993Y19719D01*
X202804Y19927D01*
X199550Y17258D01*
X199620Y17062D01*
X200336Y17062D01*
X200336Y17062D01*
G37*
G36*
X209714Y17011D02*
X212963Y19676D01*
X212893Y19872D01*
X207111Y19872D01*
X207036Y19689D01*
X209714Y17011D01*
X209714Y17011D01*
G37*
G36*
X210336Y17062D02*
X212993Y19719D01*
X212804Y19927D01*
X209550Y17258D01*
X209620Y17062D01*
X210336Y17062D01*
X210336Y17062D01*
G37*
G36*
X219663Y17062D02*
X220384Y17067D01*
X220453Y17263D01*
X217194Y19927D01*
X217006Y19719D01*
X219663Y17062D01*
X219663Y17062D01*
G37*
G36*
X220336Y17062D02*
X220454Y17180D01*
X220377Y17362D01*
X219576Y17356D01*
X219577Y17062D01*
X220336Y17062D01*
X220336Y17062D01*
G37*
G36*
X229714Y17011D02*
X232963Y19676D01*
X232893Y19872D01*
X227111Y19872D01*
X227036Y19689D01*
X229714Y17011D01*
X229714Y17011D01*
G37*
G36*
X230336Y17062D02*
X232993Y19719D01*
X232804Y19927D01*
X229550Y17258D01*
X229620Y17062D01*
X230336Y17062D01*
X230336Y17062D01*
G37*
G36*
X239714Y17011D02*
X242963Y19676D01*
X242893Y19872D01*
X237111Y19872D01*
X237036Y19689D01*
X239714Y17011D01*
X239714Y17011D01*
G37*
G36*
X240336Y17062D02*
X242993Y19719D01*
X242804Y19927D01*
X239550Y17258D01*
X239620Y17062D01*
X240336Y17062D01*
X240336Y17062D01*
G37*
G36*
X249714Y17011D02*
X252963Y19676D01*
X252893Y19872D01*
X247111Y19872D01*
X247036Y19689D01*
X249714Y17011D01*
X249714Y17011D01*
G37*
G36*
X250336Y17062D02*
X252993Y19719D01*
X252804Y19927D01*
X249550Y17258D01*
X249620Y17062D01*
X250336Y17062D01*
X250336Y17062D01*
G37*
G36*
X259714Y17011D02*
X262963Y19676D01*
X262893Y19872D01*
X257111Y19872D01*
X257036Y19689D01*
X259714Y17011D01*
X259714Y17011D01*
G37*
G36*
X260336Y17062D02*
X262993Y19719D01*
X262804Y19927D01*
X259550Y17258D01*
X259620Y17062D01*
X260336Y17062D01*
X260336Y17062D01*
G37*
G36*
X269688Y17037D02*
X269869Y17108D01*
X274561Y181485D01*
X274268Y181495D01*
X267059Y19666D01*
X269688Y17037D01*
X269688Y17037D01*
G37*
G36*
X1637Y15744D02*
X6761Y20869D01*
X2340Y29037D01*
X2122Y28988D01*
X1451Y15827D01*
X1637Y15744D01*
X1637Y15744D01*
G37*
G36*
X1744Y15769D02*
X2411Y28865D01*
X1327Y195817D01*
X1033Y195816D01*
X1457Y15776D01*
X1744Y15769D01*
X1744Y15769D01*
G37*
G36*
X20835Y15771D02*
X80420Y17065D01*
X80425Y17349D01*
X15827Y21048D01*
X15744Y20863D01*
X20835Y15771D01*
X20835Y15771D01*
G37*
G36*
X80423Y12634D02*
X80423Y17361D01*
X20750Y16065D01*
X20745Y15780D01*
X80423Y12634D01*
X80423Y12634D01*
G37*
G36*
X89853Y12633D02*
X90442Y17357D01*
X89576Y17357D01*
X89576Y12651D01*
X89853Y12633D01*
X89853Y12633D01*
G37*
G36*
X90423Y12642D02*
X90423Y17348D01*
X90146Y17366D01*
X89557Y12642D01*
X90423Y12642D01*
X90423Y12642D01*
G37*
G36*
X99853Y12633D02*
X100442Y17357D01*
X99576Y17357D01*
X99576Y12651D01*
X99853Y12633D01*
X99853Y12633D01*
G37*
G36*
X100423Y12642D02*
X100423Y17348D01*
X100146Y17366D01*
X99557Y12642D01*
X100423Y12642D01*
X100423Y12642D01*
G37*
G36*
X109853Y12633D02*
X110442Y17357D01*
X109576Y17357D01*
X109576Y12651D01*
X109853Y12633D01*
X109853Y12633D01*
G37*
G36*
X110423Y12642D02*
X110423Y17348D01*
X110146Y17366D01*
X109557Y12642D01*
X110423Y12642D01*
X110423Y12642D01*
G37*
G36*
X119853Y12633D02*
X120442Y17357D01*
X119576Y17357D01*
X119576Y12651D01*
X119853Y12633D01*
X119853Y12633D01*
G37*
G36*
X120423Y12642D02*
X120423Y17348D01*
X120146Y17366D01*
X119557Y12642D01*
X120423Y12642D01*
X120423Y12642D01*
G37*
G36*
X129853Y12633D02*
X130442Y17357D01*
X129576Y17357D01*
X129576Y12651D01*
X129853Y12633D01*
X129853Y12633D01*
G37*
G36*
X130423Y12642D02*
X130423Y17348D01*
X130146Y17366D01*
X129557Y12642D01*
X130423Y12642D01*
X130423Y12642D01*
G37*
G36*
X139853Y12633D02*
X140442Y17357D01*
X139576Y17357D01*
X139576Y12651D01*
X139853Y12633D01*
X139853Y12633D01*
G37*
G36*
X140423Y12642D02*
X140423Y17348D01*
X140146Y17366D01*
X139557Y12642D01*
X140423Y12642D01*
X140423Y12642D01*
G37*
G36*
X149853Y12633D02*
X150442Y17357D01*
X149576Y17357D01*
X149576Y12651D01*
X149853Y12633D01*
X149853Y12633D01*
G37*
G36*
X150423Y12642D02*
X150423Y17348D01*
X150146Y17366D01*
X149557Y12642D01*
X150423Y12642D01*
X150423Y12642D01*
G37*
G36*
X159853Y12633D02*
X160442Y17357D01*
X159576Y17357D01*
X159576Y12651D01*
X159853Y12633D01*
X159853Y12633D01*
G37*
G36*
X160423Y12642D02*
X160423Y17348D01*
X160146Y17366D01*
X159557Y12642D01*
X160423Y12642D01*
X160423Y12642D01*
G37*
G36*
X169853Y12633D02*
X170442Y17357D01*
X169576Y17357D01*
X169576Y12651D01*
X169853Y12633D01*
X169853Y12633D01*
G37*
G36*
X170423Y12642D02*
X170423Y17348D01*
X170146Y17366D01*
X169557Y12642D01*
X170423Y12642D01*
X170423Y12642D01*
G37*
G36*
X179853Y12633D02*
X180442Y17357D01*
X179576Y17357D01*
X179576Y12651D01*
X179853Y12633D01*
X179853Y12633D01*
G37*
G36*
X180423Y12642D02*
X180423Y17348D01*
X180146Y17366D01*
X179557Y12642D01*
X180423Y12642D01*
X180423Y12642D01*
G37*
G36*
X189853Y12633D02*
X190442Y17357D01*
X189576Y17357D01*
X189576Y12651D01*
X189853Y12633D01*
X189853Y12633D01*
G37*
G36*
X190423Y12642D02*
X190423Y17348D01*
X190146Y17366D01*
X189557Y12642D01*
X190423Y12642D01*
X190423Y12642D01*
G37*
G36*
X199853Y12633D02*
X200442Y17357D01*
X199576Y17357D01*
X199576Y12651D01*
X199853Y12633D01*
X199853Y12633D01*
G37*
G36*
X200423Y12642D02*
X200423Y17348D01*
X200146Y17366D01*
X199557Y12642D01*
X200423Y12642D01*
X200423Y12642D01*
G37*
G36*
X209853Y12633D02*
X210442Y17357D01*
X209576Y17357D01*
X209576Y12651D01*
X209853Y12633D01*
X209853Y12633D01*
G37*
G36*
X210423Y12642D02*
X210423Y17348D01*
X210146Y17366D01*
X209557Y12642D01*
X210423Y12642D01*
X210423Y12642D01*
G37*
G36*
X219853Y12633D02*
X220442Y17357D01*
X219576Y17357D01*
X219576Y12651D01*
X219853Y12633D01*
X219853Y12633D01*
G37*
G36*
X220423Y12642D02*
X220423Y17348D01*
X220146Y17366D01*
X219557Y12642D01*
X220423Y12642D01*
X220423Y12642D01*
G37*
G36*
X229853Y12633D02*
X230442Y17357D01*
X229576Y17357D01*
X229576Y12651D01*
X229853Y12633D01*
X229853Y12633D01*
G37*
G36*
X230423Y12642D02*
X230423Y17348D01*
X230146Y17366D01*
X229557Y12642D01*
X230423Y12642D01*
X230423Y12642D01*
G37*
G36*
X239853Y12633D02*
X240442Y17357D01*
X239576Y17357D01*
X239576Y12651D01*
X239853Y12633D01*
X239853Y12633D01*
G37*
G36*
X240423Y12642D02*
X240423Y17348D01*
X240146Y17366D01*
X239557Y12642D01*
X240423Y12642D01*
X240423Y12642D01*
G37*
G36*
X249853Y12633D02*
X250442Y17357D01*
X249576Y17357D01*
X249576Y12651D01*
X249853Y12633D01*
X249853Y12633D01*
G37*
G36*
X250423Y12642D02*
X250423Y17348D01*
X250146Y17366D01*
X249557Y12642D01*
X250423Y12642D01*
X250423Y12642D01*
G37*
G36*
X259853Y12633D02*
X260442Y17357D01*
X259576Y17357D01*
X259576Y12651D01*
X259853Y12633D01*
X259853Y12633D01*
G37*
G36*
X260423Y12642D02*
X260423Y17348D01*
X260146Y17366D01*
X259557Y12642D01*
X260423Y12642D01*
X260423Y12642D01*
G37*
G36*
X269867Y12640D02*
X274561Y181486D01*
X274266Y181494D01*
X269576Y17212D01*
X269576Y12644D01*
X269867Y12640D01*
X269867Y12640D01*
G37*
G36*
X82879Y10119D02*
X82967Y10306D01*
X80339Y12934D01*
X20758Y16075D01*
X20738Y15786D01*
X82879Y10119D01*
X82879Y10119D01*
G37*
G36*
X87195Y10072D02*
X90449Y12741D01*
X90379Y12937D01*
X89663Y12937D01*
X87006Y10280D01*
X87195Y10072D01*
X87195Y10072D01*
G37*
G36*
X92888Y10127D02*
X92963Y10310D01*
X90285Y12988D01*
X87036Y10323D01*
X87106Y10127D01*
X92888Y10127D01*
X92888Y10127D01*
G37*
G36*
X97195Y10072D02*
X100449Y12741D01*
X100379Y12937D01*
X99663Y12937D01*
X97006Y10280D01*
X97195Y10072D01*
X97195Y10072D01*
G37*
G36*
X102888Y10127D02*
X102963Y10310D01*
X100285Y12988D01*
X97036Y10323D01*
X97106Y10127D01*
X102888Y10127D01*
X102888Y10127D01*
G37*
G36*
X107195Y10072D02*
X110449Y12741D01*
X110379Y12937D01*
X109663Y12937D01*
X107006Y10280D01*
X107195Y10072D01*
X107195Y10072D01*
G37*
G36*
X112888Y10127D02*
X112963Y10310D01*
X110285Y12988D01*
X107036Y10323D01*
X107106Y10127D01*
X112888Y10127D01*
X112888Y10127D01*
G37*
G36*
X117195Y10072D02*
X120449Y12741D01*
X120379Y12937D01*
X119663Y12937D01*
X117006Y10280D01*
X117195Y10072D01*
X117195Y10072D01*
G37*
G36*
X122888Y10127D02*
X122963Y10310D01*
X120285Y12988D01*
X117036Y10323D01*
X117106Y10127D01*
X122888Y10127D01*
X122888Y10127D01*
G37*
G36*
X127195Y10072D02*
X130449Y12741D01*
X130379Y12937D01*
X129663Y12937D01*
X127006Y10280D01*
X127195Y10072D01*
X127195Y10072D01*
G37*
G36*
X132888Y10127D02*
X132963Y10310D01*
X130285Y12988D01*
X127036Y10323D01*
X127106Y10127D01*
X132888Y10127D01*
X132888Y10127D01*
G37*
G36*
X137195Y10072D02*
X140449Y12741D01*
X140379Y12937D01*
X139663Y12937D01*
X137006Y10280D01*
X137195Y10072D01*
X137195Y10072D01*
G37*
G36*
X142888Y10127D02*
X142963Y10310D01*
X140285Y12988D01*
X137036Y10323D01*
X137106Y10127D01*
X142888Y10127D01*
X142888Y10127D01*
G37*
G36*
X147195Y10072D02*
X150449Y12741D01*
X150379Y12937D01*
X149663Y12937D01*
X147006Y10280D01*
X147195Y10072D01*
X147195Y10072D01*
G37*
G36*
X152888Y10127D02*
X152963Y10310D01*
X150285Y12988D01*
X147036Y10323D01*
X147106Y10127D01*
X152888Y10127D01*
X152888Y10127D01*
G37*
G36*
X157195Y10072D02*
X160449Y12741D01*
X160379Y12937D01*
X159663Y12937D01*
X157006Y10280D01*
X157195Y10072D01*
X157195Y10072D01*
G37*
G36*
X162888Y10127D02*
X162963Y10310D01*
X160285Y12988D01*
X157036Y10323D01*
X157106Y10127D01*
X162888Y10127D01*
X162888Y10127D01*
G37*
G36*
X167195Y10072D02*
X170449Y12741D01*
X170379Y12937D01*
X169663Y12937D01*
X167006Y10280D01*
X167195Y10072D01*
X167195Y10072D01*
G37*
G36*
X172888Y10127D02*
X172963Y10310D01*
X170285Y12988D01*
X167036Y10323D01*
X167106Y10127D01*
X172888Y10127D01*
X172888Y10127D01*
G37*
G36*
X177195Y10072D02*
X180449Y12741D01*
X180379Y12937D01*
X179663Y12937D01*
X177006Y10280D01*
X177195Y10072D01*
X177195Y10072D01*
G37*
G36*
X182888Y10127D02*
X182963Y10310D01*
X180285Y12988D01*
X177036Y10323D01*
X177106Y10127D01*
X182888Y10127D01*
X182888Y10127D01*
G37*
G36*
X187195Y10072D02*
X190449Y12741D01*
X190379Y12937D01*
X189663Y12937D01*
X187006Y10280D01*
X187195Y10072D01*
X187195Y10072D01*
G37*
G36*
X192888Y10127D02*
X192963Y10310D01*
X190285Y12988D01*
X187036Y10323D01*
X187106Y10127D01*
X192888Y10127D01*
X192888Y10127D01*
G37*
G36*
X197195Y10072D02*
X200449Y12741D01*
X200379Y12937D01*
X199663Y12937D01*
X197006Y10280D01*
X197195Y10072D01*
X197195Y10072D01*
G37*
G36*
X202888Y10127D02*
X202963Y10310D01*
X200285Y12988D01*
X197036Y10323D01*
X197106Y10127D01*
X202888Y10127D01*
X202888Y10127D01*
G37*
G36*
X207195Y10072D02*
X210449Y12741D01*
X210379Y12937D01*
X209663Y12937D01*
X207006Y10280D01*
X207195Y10072D01*
X207195Y10072D01*
G37*
G36*
X212888Y10127D02*
X212963Y10310D01*
X210285Y12988D01*
X207036Y10323D01*
X207106Y10127D01*
X212888Y10127D01*
X212888Y10127D01*
G37*
G36*
X217195Y10072D02*
X220449Y12741D01*
X220379Y12937D01*
X219663Y12937D01*
X217006Y10280D01*
X217195Y10072D01*
X217195Y10072D01*
G37*
G36*
X222888Y10127D02*
X222963Y10310D01*
X220285Y12988D01*
X217036Y10323D01*
X217106Y10127D01*
X222888Y10127D01*
X222888Y10127D01*
G37*
G36*
X227195Y10072D02*
X230449Y12741D01*
X230379Y12937D01*
X229663Y12937D01*
X227006Y10280D01*
X227195Y10072D01*
X227195Y10072D01*
G37*
G36*
X232888Y10127D02*
X232963Y10310D01*
X230285Y12988D01*
X227036Y10323D01*
X227106Y10127D01*
X232888Y10127D01*
X232888Y10127D01*
G37*
G36*
X237195Y10072D02*
X240449Y12741D01*
X240379Y12937D01*
X239663Y12937D01*
X237006Y10280D01*
X237195Y10072D01*
X237195Y10072D01*
G37*
G36*
X242888Y10127D02*
X242963Y10310D01*
X240285Y12988D01*
X237036Y10323D01*
X237106Y10127D01*
X242888Y10127D01*
X242888Y10127D01*
G37*
G36*
X247195Y10072D02*
X250449Y12741D01*
X250379Y12937D01*
X249663Y12937D01*
X247006Y10280D01*
X247195Y10072D01*
X247195Y10072D01*
G37*
G36*
X252888Y10127D02*
X252963Y10310D01*
X250285Y12988D01*
X247036Y10323D01*
X247106Y10127D01*
X252888Y10127D01*
X252888Y10127D01*
G37*
G36*
X257195Y10072D02*
X260449Y12741D01*
X260379Y12937D01*
X259663Y12937D01*
X257006Y10280D01*
X257195Y10072D01*
X257195Y10072D01*
G37*
G36*
X262888Y10127D02*
X262963Y10310D01*
X260285Y12988D01*
X257036Y10323D01*
X257106Y10127D01*
X262888Y10127D01*
X262888Y10127D01*
G37*
G36*
X1457Y6431D02*
X1751Y6431D01*
X1751Y15921D01*
X1328Y195817D01*
X1033Y195816D01*
X1457Y6431D01*
X1457Y6431D01*
G37*
G36*
X20748Y6422D02*
X82935Y10136D01*
X82939Y10410D01*
X20748Y16082D01*
X20748Y6422D01*
X20748Y6422D01*
G37*
G36*
X20753Y6429D02*
X267358Y10130D01*
X267356Y10423D01*
X82785Y10423D01*
X20742Y6717D01*
X20753Y6429D01*
X20753Y6429D01*
G37*
G36*
X15825Y1453D02*
X267361Y10133D01*
X267354Y10425D01*
X20833Y6725D01*
X15745Y1637D01*
X15825Y1453D01*
X15825Y1453D01*
G37*
G36*
X1317Y1028D02*
X1751Y6573D01*
X1328Y195817D01*
X1033Y195816D01*
X1033Y1039D01*
X1317Y1028D01*
X1317Y1028D01*
G37*
G36*
X1020Y1020D02*
X6684Y1464D01*
X6750Y1641D01*
X1641Y6750D01*
X1464Y6684D01*
X1020Y1020D01*
X1020Y1020D01*
G37*
G36*
X1041Y1029D02*
X16070Y1460D01*
X16066Y1751D01*
X6573Y1751D01*
X1025Y1317D01*
X1041Y1029D01*
X1041Y1029D01*
G37*
G36*
X274556Y1033D02*
X274557Y1328D01*
X15918Y1751D01*
X1031Y1324D01*
X1035Y1033D01*
X274556Y1033D01*
X274556Y1033D01*
G37*
G36*
X274501Y1033D02*
X274582Y1200D01*
X267279Y10425D01*
X15770Y1746D01*
X15775Y1456D01*
X274501Y1033D01*
X274501Y1033D01*
G37*
G36*
X274373Y989D02*
X274594Y1117D01*
X269777Y13051D01*
X267012Y10287D01*
X274373Y989D01*
X274373Y989D01*
G37*
G36*
X274318Y1012D02*
X274557Y1059D01*
X274557Y181488D01*
X274265Y181492D01*
X269575Y12763D01*
X274318Y1012D01*
X274318Y1012D01*
G37*
G36*
X103564Y166650D02*
X103797Y166883D01*
X103721Y167065D01*
X96960Y167065D01*
X96957Y166773D01*
X103564Y166650D01*
X103564Y166650D01*
G37*
G36*
X103104Y165688D02*
X103743Y166942D01*
X96972Y167068D01*
X96946Y166796D01*
X103104Y165688D01*
X103104Y165688D01*
G37*
G36*
X94953Y164691D02*
X103167Y165722D01*
X103173Y165976D01*
X97056Y167077D01*
X94860Y164880D01*
X94953Y164691D01*
X94953Y164691D01*
G37*
G36*
X102982Y164656D02*
X103199Y166024D01*
X94883Y164980D01*
X94900Y164704D01*
X102982Y164656D01*
X102982Y164656D01*
G37*
G36*
X103199Y163583D02*
X102983Y164952D01*
X94901Y164999D01*
X94882Y164723D01*
X103199Y163583D01*
X103199Y163583D01*
G37*
G36*
X103562Y162644D02*
X103679Y162793D01*
X103119Y163892D01*
X94920Y165016D01*
X94868Y164740D01*
X103562Y162644D01*
X103562Y162644D01*
G37*
G36*
X103958Y162255D02*
X104072Y162451D01*
X103579Y162944D01*
X94932Y165028D01*
X94860Y164747D01*
X103958Y162255D01*
X103958Y162255D01*
G37*
G36*
X95068Y154139D02*
X104051Y162377D01*
X104010Y162547D01*
X94891Y165044D01*
X94891Y154216D01*
X95068Y154139D01*
X95068Y154139D01*
G37*
G36*
X95632Y153756D02*
X104093Y162427D01*
X103893Y162633D01*
X94798Y154292D01*
X95632Y153756D01*
X95632Y153756D01*
G37*
G36*
X96394Y152816D02*
X104090Y162445D01*
X103880Y162631D01*
X95410Y153951D01*
X96394Y152816D01*
X96394Y152816D01*
G37*
G36*
X96958Y151810D02*
X104089Y162463D01*
X103860Y162630D01*
X96217Y153068D01*
X96785Y151824D01*
X96958Y151810D01*
X96958Y151810D01*
G37*
G36*
X97121Y150664D02*
X104087Y162476D01*
X103844Y162629D01*
X96729Y151999D01*
X96915Y150705D01*
X97121Y150664D01*
X97121Y150664D01*
G37*
G36*
X97125Y148999D02*
X104084Y162487D01*
X103833Y162626D01*
X96899Y150869D01*
X96899Y149054D01*
X97125Y148999D01*
X97125Y148999D01*
G37*
G36*
X96961Y147856D02*
X104084Y162494D01*
X103823Y162625D01*
X96904Y149215D01*
X96719Y147931D01*
X96961Y147856D01*
X96961Y147856D01*
G37*
G36*
X104035Y147701D02*
X104035Y162545D01*
X103806Y162597D01*
X96650Y147893D01*
X104035Y147701D01*
X104035Y147701D01*
G37*
G36*
X81713Y146805D02*
X81157Y148022D01*
X80968Y148022D01*
X80412Y146805D01*
X81713Y146805D01*
X81713Y146805D01*
G37*
G36*
X89587Y146805D02*
X89031Y148022D01*
X88842Y148022D01*
X88286Y146805D01*
X89587Y146805D01*
X89587Y146805D01*
G37*
G36*
X96321Y146796D02*
X104041Y147723D01*
X104028Y147997D01*
X96790Y148185D01*
X96219Y146935D01*
X96321Y146796D01*
X96321Y146796D01*
G37*
G36*
X79826Y145864D02*
X81655Y146879D01*
X81598Y147100D01*
X80574Y147100D01*
X79670Y146057D01*
X79826Y145864D01*
X79826Y145864D01*
G37*
G36*
X82358Y145906D02*
X82436Y146079D01*
X81517Y147140D01*
X79691Y146127D01*
X79748Y145906D01*
X82358Y145906D01*
X82358Y145906D01*
G37*
G36*
X87700Y145864D02*
X89529Y146879D01*
X89472Y147100D01*
X88448Y147100D01*
X87544Y146057D01*
X87700Y145864D01*
X87700Y145864D01*
G37*
G36*
X90232Y145906D02*
X90310Y146079D01*
X89391Y147140D01*
X87565Y146127D01*
X87622Y145906D01*
X90232Y145906D01*
X90232Y145906D01*
G37*
G36*
X95538Y145887D02*
X104056Y147739D01*
X104010Y148016D01*
X96315Y147092D01*
X95429Y146070D01*
X95538Y145887D01*
X95538Y145887D01*
G37*
G36*
X79446Y145697D02*
X82415Y145917D01*
X82405Y146201D01*
X79819Y146201D01*
X79373Y145914D01*
X79446Y145697D01*
X79446Y145697D01*
G37*
G36*
X83363Y145250D02*
X83442Y145471D01*
X82301Y146204D01*
X79405Y145990D01*
X79399Y145722D01*
X83363Y145250D01*
X83363Y145250D01*
G37*
G36*
X86644Y145243D02*
X90296Y145934D01*
X90271Y146201D01*
X87693Y146201D01*
X86553Y145469D01*
X86644Y145243D01*
X86644Y145243D01*
G37*
G36*
X91248Y145263D02*
X91310Y145475D01*
X90167Y146210D01*
X86576Y145531D01*
X86601Y145263D01*
X91248Y145263D01*
X91248Y145263D01*
G37*
G36*
X94525Y145236D02*
X104065Y147747D01*
X103997Y148028D01*
X95553Y146192D01*
X94424Y145466D01*
X94525Y145236D01*
X94525Y145236D01*
G37*
G36*
X84518Y144908D02*
X84579Y145178D01*
X83293Y145556D01*
X79423Y146016D01*
X79383Y145729D01*
X84518Y144908D01*
X84518Y144908D01*
G37*
G36*
X85472Y144920D02*
X91289Y145272D01*
X91281Y145558D01*
X86714Y145558D01*
X85426Y145180D01*
X85472Y144920D01*
X85472Y144920D01*
G37*
G36*
X92407Y144928D02*
X92443Y145181D01*
X91154Y145559D01*
X85442Y145214D01*
X85451Y144928D01*
X92407Y144928D01*
X92407Y144928D01*
G37*
G36*
X93365Y144895D02*
X104068Y147748D01*
X103992Y148033D01*
X94570Y145553D01*
X93287Y145176D01*
X93365Y144895D01*
X93365Y144895D01*
G37*
G36*
X79402Y142623D02*
X84566Y144987D01*
X84536Y145204D01*
X79402Y146025D01*
X79402Y142623D01*
X79402Y142623D01*
G37*
G36*
X79445Y142687D02*
X93626Y144951D01*
X93605Y145223D01*
X84373Y145223D01*
X79371Y142934D01*
X79445Y142687D01*
X79445Y142687D01*
G37*
G36*
X82825Y139368D02*
X93648Y145002D01*
X93569Y145241D01*
X79437Y142984D01*
X79381Y142812D01*
X82825Y139368D01*
X82825Y139368D01*
G37*
G36*
X82777Y139360D02*
X104071Y147767D01*
X103984Y148032D01*
X93415Y145214D01*
X82660Y139615D01*
X82777Y139360D01*
X82777Y139360D01*
G37*
G36*
X95645Y139402D02*
X104077Y147834D01*
X103945Y148034D01*
X82685Y139642D01*
X82731Y139402D01*
X95645Y139402D01*
X95645Y139402D01*
G37*
G36*
X160167Y141074D02*
X165673Y141851D01*
X165653Y142125D01*
X160167Y142125D01*
X160167Y141074D01*
X160167Y141074D01*
G37*
G36*
X152593Y138287D02*
X152668Y138469D01*
X150000Y141138D01*
X147331Y138469D01*
X147406Y138287D01*
X152593Y138287D01*
X152593Y138287D01*
G37*
G36*
X157453Y138250D02*
X165693Y141895D01*
X165622Y142142D01*
X160245Y141383D01*
X157314Y138452D01*
X157453Y138250D01*
X157453Y138250D01*
G37*
G36*
X126617Y131987D02*
X139832Y141167D01*
X139832Y145325D01*
X139650Y145400D01*
X126444Y132194D01*
X126617Y131987D01*
X126617Y131987D01*
G37*
G36*
X126575Y131999D02*
X142758Y138380D01*
X139702Y141436D01*
X126451Y132231D01*
X126575Y131999D01*
X126575Y131999D01*
G37*
G36*
X126540Y132013D02*
X157665Y138316D01*
X157639Y138582D01*
X142466Y138582D01*
X126464Y132273D01*
X126540Y132013D01*
X126540Y132013D01*
G37*
G36*
X142794Y119522D02*
X165707Y141959D01*
X165569Y142163D01*
X157412Y138555D01*
X142588Y119706D01*
X142794Y119522D01*
X142794Y119522D01*
G37*
G36*
X142815Y119518D02*
X157685Y138424D01*
X157577Y138600D01*
X126521Y132311D01*
X126478Y132126D01*
X142815Y119518D01*
X142815Y119518D01*
G37*
G36*
X147279Y119576D02*
X165719Y141992D01*
X165512Y142181D01*
X142615Y119760D01*
X142690Y119576D01*
X147279Y119576D01*
X147279Y119576D01*
G37*
G36*
X152875Y119576D02*
X165711Y142022D01*
X165488Y142176D01*
X147036Y119745D01*
X147116Y119576D01*
X152875Y119576D01*
X152875Y119576D01*
G37*
G36*
X157312Y119576D02*
X165702Y142054D01*
X165455Y142169D01*
X152535Y119576D01*
X157312Y119576D01*
X157312Y119576D01*
G37*
G36*
X162920Y119576D02*
X165678Y142090D01*
X165423Y142152D01*
X156997Y119576D01*
X162920Y119576D01*
X162920Y119576D01*
G37*
G36*
X167369Y119576D02*
X165653Y142122D01*
X165385Y142129D01*
X162622Y119576D01*
X167369Y119576D01*
X167369Y119576D01*
G37*
G36*
X172993Y119576D02*
X165615Y142148D01*
X165359Y142097D01*
X167073Y119576D01*
X172993Y119576D01*
X172993Y119576D01*
G37*
G36*
X177454Y119576D02*
X165583Y142167D01*
X165333Y142061D01*
X172682Y119576D01*
X177454Y119576D01*
X177454Y119576D01*
G37*
G36*
X182881Y119576D02*
X182962Y119742D01*
X165549Y142175D01*
X165322Y142029D01*
X177121Y119576D01*
X182881Y119576D01*
X182881Y119576D01*
G37*
G36*
X187308Y119576D02*
X187384Y119757D01*
X165524Y142181D01*
X165313Y141998D01*
X182717Y119576D01*
X187308Y119576D01*
X187308Y119576D01*
G37*
G36*
X140947Y117673D02*
X143012Y119738D01*
X126624Y132386D01*
X126441Y132178D01*
X140947Y117673D01*
X140947Y117673D01*
G37*
G36*
X190295Y117011D02*
X190483Y117219D01*
X165516Y142186D01*
X165308Y141980D01*
X187110Y119615D01*
X190295Y117011D01*
X190295Y117011D01*
G37*
G36*
X149714Y117011D02*
X152963Y119676D01*
X152893Y119872D01*
X147111Y119872D01*
X147036Y119689D01*
X149714Y117011D01*
X149714Y117011D01*
G37*
G36*
X150336Y117062D02*
X152993Y119719D01*
X152804Y119927D01*
X149550Y117258D01*
X149620Y117062D01*
X150336Y117062D01*
X150336Y117062D01*
G37*
G36*
X159714Y117011D02*
X162963Y119676D01*
X162893Y119872D01*
X157111Y119872D01*
X157036Y119689D01*
X159714Y117011D01*
X159714Y117011D01*
G37*
G36*
X160336Y117062D02*
X162993Y119719D01*
X162804Y119927D01*
X159550Y117258D01*
X159620Y117062D01*
X160336Y117062D01*
X160336Y117062D01*
G37*
G36*
X169714Y117011D02*
X172963Y119676D01*
X172893Y119872D01*
X167111Y119872D01*
X167036Y119689D01*
X169714Y117011D01*
X169714Y117011D01*
G37*
G36*
X170336Y117062D02*
X172993Y119719D01*
X172804Y119927D01*
X169550Y117258D01*
X169620Y117062D01*
X170336Y117062D01*
X170336Y117062D01*
G37*
G36*
X179714Y117011D02*
X182963Y119676D01*
X182893Y119872D01*
X177111Y119872D01*
X177036Y119689D01*
X179714Y117011D01*
X179714Y117011D01*
G37*
G36*
X180336Y117062D02*
X182993Y119719D01*
X182804Y119927D01*
X179550Y117258D01*
X179620Y117062D01*
X180336Y117062D01*
X180336Y117062D01*
G37*
G36*
X189663Y117062D02*
X190384Y117067D01*
X190453Y117263D01*
X187194Y119927D01*
X187006Y119719D01*
X189663Y117062D01*
X189663Y117062D01*
G37*
G36*
X190336Y117062D02*
X190454Y117180D01*
X190377Y117362D01*
X189576Y117356D01*
X189577Y117062D01*
X190336Y117062D01*
X190336Y117062D01*
G37*
G36*
X149853Y112633D02*
X150442Y117357D01*
X149576Y117357D01*
X149576Y112651D01*
X149853Y112633D01*
X149853Y112633D01*
G37*
G36*
X150423Y112642D02*
X150423Y117348D01*
X150146Y117366D01*
X149557Y112642D01*
X150423Y112642D01*
X150423Y112642D01*
G37*
G36*
X159853Y112633D02*
X160442Y117357D01*
X159576Y117357D01*
X159576Y112651D01*
X159853Y112633D01*
X159853Y112633D01*
G37*
G36*
X160423Y112642D02*
X160423Y117348D01*
X160146Y117366D01*
X159557Y112642D01*
X160423Y112642D01*
X160423Y112642D01*
G37*
G36*
X169853Y112633D02*
X170442Y117357D01*
X169576Y117357D01*
X169576Y112651D01*
X169853Y112633D01*
X169853Y112633D01*
G37*
G36*
X170423Y112642D02*
X170423Y117348D01*
X170146Y117366D01*
X169557Y112642D01*
X170423Y112642D01*
X170423Y112642D01*
G37*
G36*
X179853Y112633D02*
X180442Y117357D01*
X179576Y117357D01*
X179576Y112651D01*
X179853Y112633D01*
X179853Y112633D01*
G37*
G36*
X180423Y112642D02*
X180423Y117348D01*
X180146Y117366D01*
X179557Y112642D01*
X180423Y112642D01*
X180423Y112642D01*
G37*
G36*
X189853Y112633D02*
X190442Y117357D01*
X189576Y117357D01*
X189576Y112651D01*
X189853Y112633D01*
X189853Y112633D01*
G37*
G36*
X190423Y112642D02*
X190423Y117348D01*
X190146Y117366D01*
X189557Y112642D01*
X190423Y112642D01*
X190423Y112642D01*
G37*
G36*
X169622Y112637D02*
X170423Y112643D01*
X170422Y112937D01*
X169663Y112937D01*
X169545Y112819D01*
X169622Y112637D01*
X169622Y112637D01*
G37*
G36*
X147195Y110072D02*
X150449Y112741D01*
X150379Y112937D01*
X149663Y112937D01*
X147006Y110280D01*
X147195Y110072D01*
X147195Y110072D01*
G37*
G36*
X152888Y110127D02*
X152963Y110310D01*
X150285Y112988D01*
X147036Y110323D01*
X147106Y110127D01*
X152888Y110127D01*
X152888Y110127D01*
G37*
G36*
X157195Y110072D02*
X160449Y112741D01*
X160379Y112937D01*
X159663Y112937D01*
X157006Y110280D01*
X157195Y110072D01*
X157195Y110072D01*
G37*
G36*
X162888Y110127D02*
X162963Y110310D01*
X160285Y112988D01*
X157036Y110323D01*
X157106Y110127D01*
X162888Y110127D01*
X162888Y110127D01*
G37*
G36*
X172805Y110072D02*
X172993Y110280D01*
X170336Y112937D01*
X169615Y112932D01*
X169546Y112736D01*
X172805Y110072D01*
X172805Y110072D01*
G37*
G36*
X177195Y110072D02*
X180449Y112741D01*
X180379Y112937D01*
X179663Y112937D01*
X177006Y110280D01*
X177195Y110072D01*
X177195Y110072D01*
G37*
G36*
X182888Y110127D02*
X182963Y110310D01*
X180285Y112988D01*
X177036Y110323D01*
X177106Y110127D01*
X182888Y110127D01*
X182888Y110127D01*
G37*
G36*
X187195Y110072D02*
X190449Y112741D01*
X190379Y112937D01*
X189663Y112937D01*
X187006Y110280D01*
X187195Y110072D01*
X187195Y110072D01*
G37*
G36*
X192888Y110127D02*
X192963Y110310D01*
X190285Y112988D01*
X187036Y110323D01*
X187106Y110127D01*
X192888Y110127D01*
X192888Y110127D01*
G37*
G36*
X147127Y109973D02*
X153377Y110131D01*
X153374Y110423D01*
X146898Y110423D01*
X147127Y109973D01*
X147127Y109973D01*
G37*
G36*
X140804Y109682D02*
X140896Y109871D01*
X138747Y112021D01*
X137040Y110314D01*
X137100Y110140D01*
X140804Y109682D01*
X140804Y109682D01*
G37*
G36*
X140852Y109686D02*
X140877Y109970D01*
X137219Y110423D01*
X132646Y110423D01*
X132638Y110136D01*
X140852Y109686D01*
X140852Y109686D01*
G37*
G36*
X140719Y108906D02*
X140889Y109979D01*
X132657Y110430D01*
X132628Y110151D01*
X140719Y108906D01*
X140719Y108906D01*
G37*
G36*
X147261Y108899D02*
X153390Y110158D01*
X153359Y110426D01*
X147044Y110267D01*
X147261Y108899D01*
X147261Y108899D01*
G37*
G36*
X140944Y107821D02*
X140725Y109204D01*
X132674Y110442D01*
X132616Y110171D01*
X140944Y107821D01*
X140944Y107821D01*
G37*
G36*
X147031Y107799D02*
X153408Y110185D01*
X153332Y110447D01*
X147253Y109199D01*
X147031Y107799D01*
X147031Y107799D01*
G37*
G36*
X198131Y107262D02*
X198375Y107304D01*
X198375Y111392D01*
X198193Y111467D01*
X197039Y110313D01*
X198131Y107262D01*
X198131Y107262D01*
G37*
G36*
X198278Y107264D02*
X198397Y107395D01*
X197314Y110423D01*
X186640Y110423D01*
X186609Y110163D01*
X198278Y107264D01*
X198278Y107264D01*
G37*
G36*
X141287Y106906D02*
X141422Y107057D01*
X140864Y108151D01*
X132693Y110456D01*
X132605Y110187D01*
X141287Y106906D01*
X141287Y106906D01*
G37*
G36*
X146704Y106901D02*
X153419Y110205D01*
X153308Y110463D01*
X147111Y108144D01*
X146555Y107052D01*
X146704Y106901D01*
X146704Y106901D01*
G37*
G36*
X142049Y106146D02*
X142185Y106348D01*
X141326Y107207D01*
X132706Y110464D01*
X132598Y110196D01*
X142049Y106146D01*
X142049Y106146D01*
G37*
G36*
X145942Y106139D02*
X153425Y110215D01*
X153292Y110471D01*
X146647Y107202D01*
X145789Y106344D01*
X145942Y106139D01*
X145942Y106139D01*
G37*
G36*
X143013Y105655D02*
X143135Y105914D01*
X142057Y106463D01*
X132712Y110469D01*
X132595Y110199D01*
X143013Y105655D01*
X143013Y105655D01*
G37*
G36*
X180795Y101500D02*
X181004Y101702D01*
X172890Y110383D01*
X169704Y112988D01*
X169516Y112780D01*
X180795Y101500D01*
X180795Y101500D01*
G37*
G36*
X180748Y101544D02*
X180916Y101584D01*
X183423Y110423D01*
X172692Y110423D01*
X172615Y110245D01*
X180748Y101544D01*
X180748Y101544D01*
G37*
G36*
X156802Y100269D02*
X167384Y110236D01*
X167310Y110423D01*
X156624Y110423D01*
X156624Y100346D01*
X156802Y100269D01*
X156802Y100269D01*
G37*
G36*
X157783Y100115D02*
X167421Y110284D01*
X167213Y110487D01*
X167104Y110378D01*
X157569Y100318D01*
X157783Y100115D01*
X157783Y100115D01*
G37*
G36*
X157834Y100168D02*
X167416Y110278D01*
X167213Y110481D01*
X156601Y100486D01*
X156660Y100307D01*
X157834Y100168D01*
X157834Y100168D01*
G37*
G36*
X177352Y100092D02*
X177428Y100274D01*
X167211Y110491D01*
X157604Y100355D01*
X157680Y100177D01*
X177352Y100092D01*
X177352Y100092D01*
G37*
G36*
X156960Y100045D02*
X157928Y100198D01*
X157923Y100455D01*
X156684Y100602D01*
X156592Y100413D01*
X156960Y100045D01*
X156960Y100045D01*
G37*
G36*
X158815Y100010D02*
X177401Y100093D01*
X177401Y100387D01*
X157642Y100472D01*
X157620Y100199D01*
X158815Y100010D01*
X158815Y100010D01*
G37*
G36*
X159739Y99527D02*
X177404Y100097D01*
X177399Y100388D01*
X158710Y100305D01*
X158656Y100079D01*
X159739Y99527D01*
X159739Y99527D01*
G37*
G36*
X153192Y98801D02*
X153375Y98876D01*
X153375Y110524D01*
X145741Y106366D01*
X153192Y98801D01*
X153192Y98801D01*
G37*
G36*
X153241Y98772D02*
X153432Y98978D01*
X146013Y106510D01*
X144772Y105878D01*
X153241Y98772D01*
X153241Y98772D01*
G37*
G36*
X153256Y98772D02*
X153432Y98997D01*
X145081Y106004D01*
X143869Y105812D01*
X143823Y105620D01*
X153256Y98772D01*
X153256Y98772D01*
G37*
G36*
X153266Y98772D02*
X153432Y99010D01*
X144047Y105822D01*
X142847Y106012D01*
X142760Y105791D01*
X153266Y98772D01*
X153266Y98772D01*
G37*
G36*
X153280Y98777D02*
X153428Y99019D01*
X143012Y105978D01*
X132719Y110467D01*
X132595Y110214D01*
X153280Y98777D01*
X153280Y98777D01*
G37*
G36*
X160467Y98773D02*
X177409Y100104D01*
X177393Y100392D01*
X159671Y99820D01*
X159599Y99640D01*
X160467Y98773D01*
X160467Y98773D01*
G37*
G36*
X160921Y97818D02*
X177416Y100113D01*
X177385Y100398D01*
X160291Y99055D01*
X160921Y97818D01*
X160921Y97818D01*
G37*
G36*
X154544Y97504D02*
X154702Y97710D01*
X153318Y99094D01*
X132733Y110475D01*
X132589Y110221D01*
X154544Y97504D01*
X154544Y97504D01*
G37*
G36*
X154496Y96688D02*
X154668Y97774D01*
X132737Y110476D01*
X132588Y110226D01*
X154496Y96688D01*
X154496Y96688D01*
G37*
G36*
X161049Y96755D02*
X177424Y100124D01*
X177375Y100406D01*
X160836Y98105D01*
X161049Y96755D01*
X161049Y96755D01*
G37*
G36*
X186806Y95797D02*
X198393Y107385D01*
X198347Y107551D01*
X186624Y110464D01*
X186624Y95873D01*
X186806Y95797D01*
X186806Y95797D01*
G37*
G36*
X154550Y95706D02*
X154712Y95810D01*
X154520Y97021D01*
X132743Y110477D01*
X132587Y110232D01*
X154550Y95706D01*
X154550Y95706D01*
G37*
G36*
X160824Y95681D02*
X177431Y100134D01*
X177364Y100413D01*
X161041Y97055D01*
X160824Y95681D01*
X160824Y95681D01*
G37*
G36*
X177401Y95382D02*
X177401Y100432D01*
X160843Y95991D01*
X160874Y95737D01*
X177401Y95382D01*
X177401Y95382D01*
G37*
G36*
X180921Y95375D02*
X183396Y110389D01*
X183124Y110450D01*
X180649Y101728D01*
X180649Y95397D01*
X180921Y95375D01*
X180921Y95375D01*
G37*
G36*
X177064Y95271D02*
X177423Y95454D01*
X177372Y95678D01*
X160861Y96033D01*
X160854Y95739D01*
X177064Y95271D01*
X177064Y95271D01*
G37*
G36*
X181136Y95195D02*
X183395Y110398D01*
X183106Y110444D01*
X180634Y95450D01*
X181136Y95195D01*
X181136Y95195D01*
G37*
G36*
X155044Y94749D02*
X155216Y94901D01*
X154665Y95984D01*
X132749Y110479D01*
X132585Y110237D01*
X155044Y94749D01*
X155044Y94749D01*
G37*
G36*
X160278Y94781D02*
X177179Y95276D01*
X177179Y95563D01*
X160916Y96032D01*
X160278Y94781D01*
X160278Y94781D01*
G37*
G36*
X183375Y94495D02*
X183375Y110412D01*
X183102Y110432D01*
X180856Y95318D01*
X183375Y94495D01*
X183375Y94495D01*
G37*
G36*
X176340Y94520D02*
X177206Y95386D01*
X177127Y95570D01*
X160374Y95079D01*
X160376Y94791D01*
X176340Y94520D01*
X176340Y94520D01*
G37*
G36*
X181711Y94520D02*
X183356Y94553D01*
X183392Y94800D01*
X180955Y95596D01*
X180833Y95397D01*
X181711Y94520D01*
X181711Y94520D01*
G37*
G36*
X155810Y93987D02*
X155983Y94194D01*
X155128Y95050D01*
X132752Y110480D01*
X132584Y110238D01*
X155810Y93987D01*
X155810Y93987D01*
G37*
G36*
X159676Y94035D02*
X176429Y94525D01*
X176427Y94814D01*
X160463Y95085D01*
X159597Y94219D01*
X159676Y94035D01*
X159676Y94035D01*
G37*
G36*
X182213Y93475D02*
X183403Y94664D01*
X183325Y94848D01*
X181532Y94812D01*
X182213Y93475D01*
X182213Y93475D01*
G37*
G36*
X175888Y93573D02*
X176525Y94824D01*
X159625Y94329D01*
X159625Y94042D01*
X175888Y93573D01*
X175888Y93573D01*
G37*
G36*
X158710Y93556D02*
X175944Y93575D01*
X175948Y93866D01*
X159739Y94334D01*
X158656Y93782D01*
X158710Y93556D01*
X158710Y93556D01*
G37*
G36*
X157642Y93388D02*
X175947Y93577D01*
X175945Y93871D01*
X158815Y93851D01*
X157619Y93662D01*
X157642Y93388D01*
X157642Y93388D01*
G37*
G36*
X175757Y92520D02*
X175972Y93872D01*
X157633Y93684D01*
X157628Y93397D01*
X175757Y92520D01*
X175757Y92520D01*
G37*
G36*
X175974Y91459D02*
X175759Y92816D01*
X157642Y93692D01*
X157620Y93406D01*
X175974Y91459D01*
X175974Y91459D01*
G37*
G36*
X176347Y90520D02*
X176453Y90666D01*
X175894Y91764D01*
X157650Y93699D01*
X157613Y93414D01*
X176347Y90520D01*
X176347Y90520D01*
G37*
G36*
X177111Y89764D02*
X177212Y89957D01*
X176351Y90818D01*
X157657Y93706D01*
X157608Y93419D01*
X177111Y89764D01*
X177111Y89764D01*
G37*
G36*
X177149Y89757D02*
X177203Y90047D01*
X157803Y93683D01*
X156609Y93872D01*
X156559Y93585D01*
X177149Y89757D01*
X177149Y89757D01*
G37*
G36*
X178074Y89277D02*
X178159Y89520D01*
X177079Y90070D01*
X156612Y93875D01*
X156557Y93588D01*
X178074Y89277D01*
X178074Y89277D01*
G37*
G36*
X171351Y86284D02*
X178136Y89357D01*
X178111Y89571D01*
X156631Y93874D01*
X156548Y93629D01*
X171351Y86284D01*
X171351Y86284D01*
G37*
G36*
X170278Y86127D02*
X171483Y86318D01*
X171516Y86531D01*
X156665Y93900D01*
X156531Y93643D01*
X170278Y86127D01*
X170278Y86127D01*
G37*
G36*
X170364Y86081D02*
X170505Y86340D01*
X156798Y93834D01*
X155721Y94383D01*
X155585Y94125D01*
X170364Y86081D01*
X170364Y86081D01*
G37*
G36*
X172430Y86127D02*
X178172Y89389D01*
X178044Y89640D01*
X171192Y86536D01*
X171222Y86318D01*
X172430Y86127D01*
X172430Y86127D01*
G37*
G36*
X169352Y85630D02*
X170451Y86190D01*
X170454Y86368D01*
X155728Y94384D01*
X155584Y94135D01*
X169352Y85630D01*
X169352Y85630D01*
G37*
G36*
X173365Y85625D02*
X178176Y89416D01*
X178023Y89643D01*
X172252Y86366D01*
X172256Y86189D01*
X173365Y85625D01*
X173365Y85625D01*
G37*
G36*
X173838Y85100D02*
X178180Y89441D01*
X177995Y89649D01*
X173126Y85812D01*
X173838Y85100D01*
X173838Y85100D01*
G37*
G36*
X168624Y84856D02*
X169595Y85827D01*
X155739Y94386D01*
X155581Y94148D01*
X168624Y84856D01*
X168624Y84856D01*
G37*
G36*
X168644Y84843D02*
X168814Y85083D01*
X155869Y94306D01*
X132753Y110481D01*
X132584Y110239D01*
X168644Y84843D01*
X168644Y84843D01*
G37*
G36*
X168179Y83880D02*
X168798Y85095D01*
X132755Y110480D01*
X132584Y110243D01*
X168179Y83880D01*
X168179Y83880D01*
G37*
G36*
X168067Y82784D02*
X168286Y84168D01*
X132760Y110481D01*
X132583Y110248D01*
X168067Y82784D01*
X168067Y82784D01*
G37*
G36*
X144904Y82704D02*
X168067Y82907D01*
X168134Y83106D01*
X132789Y110462D01*
X132608Y110320D01*
X144904Y82704D01*
X144904Y82704D01*
G37*
G36*
X144925Y82658D02*
X145194Y82778D01*
X132913Y110360D01*
X132803Y110471D01*
X132600Y110332D01*
X144925Y82658D01*
X144925Y82658D01*
G37*
G36*
X143858Y82522D02*
X145213Y82737D01*
X132861Y110472D01*
X132594Y110359D01*
X143858Y82522D01*
X143858Y82522D01*
G37*
G36*
X146038Y82539D02*
X168110Y82909D01*
X168106Y83203D01*
X144862Y82999D01*
X144842Y82728D01*
X146038Y82539D01*
X146038Y82539D01*
G37*
G36*
X142923Y81997D02*
X144139Y82616D01*
X132867Y110469D01*
X132597Y110365D01*
X142923Y81997D01*
X142923Y81997D01*
G37*
G36*
X146961Y82055D02*
X168112Y82912D01*
X168104Y83204D01*
X145930Y82832D01*
X145878Y82607D01*
X146961Y82055D01*
X146961Y82055D01*
G37*
G36*
X168299Y81856D02*
X168086Y83207D01*
X146844Y82346D01*
X146849Y82058D01*
X168299Y81856D01*
X168299Y81856D01*
G37*
G36*
X142189Y81180D02*
X143176Y82167D01*
X132874Y110466D01*
X132599Y110371D01*
X142189Y81180D01*
X142189Y81180D01*
G37*
G36*
X147685Y81305D02*
X168275Y81862D01*
X168273Y82152D01*
X146896Y82353D01*
X146819Y82170D01*
X147685Y81305D01*
X147685Y81305D01*
G37*
G36*
X147769Y81080D02*
X168279Y81863D01*
X168269Y82157D01*
X147507Y81595D01*
X147769Y81080D01*
X147769Y81080D01*
G37*
G36*
X168762Y81083D02*
X168215Y82156D01*
X147708Y81373D01*
X147713Y81083D01*
X168762Y81083D01*
X168762Y81083D01*
G37*
G36*
X141859Y80352D02*
X142414Y81442D01*
X132880Y110464D01*
X132601Y110376D01*
X141660Y80370D01*
X141859Y80352D01*
X141859Y80352D01*
G37*
G36*
X141497Y79305D02*
X141734Y79319D01*
X141924Y80518D01*
X132884Y110462D01*
X132603Y110380D01*
X141497Y79305D01*
X141497Y79305D01*
G37*
G36*
X141668Y78237D02*
X141940Y78296D01*
X141751Y79491D01*
X132886Y110462D01*
X132603Y110381D01*
X141668Y78237D01*
X141668Y78237D01*
G37*
G36*
X147499Y77308D02*
X154175Y77545D01*
X154170Y77835D01*
X147768Y77835D01*
X147499Y77308D01*
X147499Y77308D01*
G37*
G36*
X153156Y77079D02*
X154198Y77610D01*
X154138Y77839D01*
X147598Y77607D01*
X147596Y77324D01*
X153156Y77079D01*
X153156Y77079D01*
G37*
G36*
X146903Y76558D02*
X153273Y77093D01*
X153268Y77370D01*
X147686Y77615D01*
X146817Y76746D01*
X146903Y76558D01*
X146903Y76558D01*
G37*
G36*
X152431Y76327D02*
X153300Y77197D01*
X153214Y77384D01*
X146844Y76850D01*
X146849Y76573D01*
X152431Y76327D01*
X152431Y76327D01*
G37*
G36*
X145935Y76080D02*
X152520Y76335D01*
X152520Y76619D01*
X146962Y76863D01*
X145875Y76310D01*
X145935Y76080D01*
X145935Y76080D01*
G37*
G36*
X144868Y75911D02*
X152527Y76338D01*
X152513Y76631D01*
X146034Y76379D01*
X144838Y76190D01*
X144868Y75911D01*
X144868Y75911D01*
G37*
G36*
X151977Y75377D02*
X152543Y76487D01*
X152450Y76630D01*
X144853Y76206D01*
X144850Y75930D01*
X151977Y75377D01*
X151977Y75377D01*
G37*
G36*
X151845Y74303D02*
X152061Y75666D01*
X144875Y76224D01*
X144833Y75954D01*
X151845Y74303D01*
X151845Y74303D01*
G37*
G36*
X151835Y74307D02*
X151901Y74593D01*
X145028Y76211D01*
X143833Y76400D01*
X143779Y76120D01*
X151835Y74307D01*
X151835Y74307D01*
G37*
G36*
X152075Y73213D02*
X151855Y74605D01*
X143848Y76407D01*
X143771Y76139D01*
X152075Y73213D01*
X152075Y73213D01*
G37*
G36*
X152408Y72311D02*
X152551Y72463D01*
X151995Y73554D01*
X143866Y76419D01*
X143761Y76155D01*
X152408Y72311D01*
X152408Y72311D01*
G37*
G36*
X157620Y72337D02*
X171999Y72566D01*
X171997Y72859D01*
X157886Y72859D01*
X157620Y72337D01*
X157620Y72337D01*
G37*
G36*
X153171Y71550D02*
X153316Y71754D01*
X152457Y72612D01*
X143879Y76426D01*
X143756Y76163D01*
X153171Y71550D01*
X153171Y71550D01*
G37*
G36*
X157020Y71584D02*
X172003Y72573D01*
X171992Y72861D01*
X157801Y72635D01*
X156935Y71770D01*
X157020Y71584D01*
X157020Y71584D01*
G37*
G36*
X154135Y71059D02*
X154267Y71321D01*
X153189Y71870D01*
X143883Y76430D01*
X143753Y76165D01*
X154135Y71059D01*
X154135Y71059D01*
G37*
G36*
X156058Y71098D02*
X172009Y72578D01*
X171986Y72868D01*
X157072Y71883D01*
X155990Y71332D01*
X156058Y71098D01*
X156058Y71098D01*
G37*
G36*
X154989Y70929D02*
X172011Y72579D01*
X171983Y72872D01*
X156148Y71402D01*
X154953Y71213D01*
X154989Y70929D01*
X154989Y70929D01*
G37*
G36*
X95273Y69921D02*
X155255Y70944D01*
X155274Y71214D01*
X154079Y71404D01*
X95267Y70216D01*
X95273Y69921D01*
X95273Y69921D01*
G37*
G36*
X95281Y69921D02*
X154188Y71111D01*
X154238Y71337D01*
X143976Y76384D01*
X95260Y70200D01*
X95281Y69921D01*
X95281Y69921D01*
G37*
G36*
X95291Y69906D02*
X144078Y76100D01*
X144115Y76314D01*
X143031Y76867D01*
X95252Y70197D01*
X95291Y69906D01*
X95291Y69906D01*
G37*
G36*
X95293Y69905D02*
X143116Y76581D01*
X143174Y76754D01*
X142306Y77622D01*
X95250Y70194D01*
X95293Y69905D01*
X95293Y69905D01*
G37*
G36*
X95296Y69903D02*
X142478Y77351D01*
X141854Y78576D01*
X95248Y70191D01*
X95296Y69903D01*
X95296Y69903D01*
G37*
G36*
X95339Y69907D02*
X141959Y78294D01*
X132904Y110403D01*
X132736Y110443D01*
X95237Y70094D01*
X95339Y69907D01*
X95339Y69907D01*
G37*
G36*
X169352Y69924D02*
X169363Y70208D01*
X155122Y71238D01*
X95269Y70216D01*
X95271Y69924D01*
X169352Y69924D01*
X169352Y69924D01*
G37*
G36*
X169267Y69919D02*
X172028Y72680D01*
X171939Y72868D01*
X154968Y71224D01*
X154972Y70952D01*
X169267Y69919D01*
X169267Y69919D01*
G37*
G36*
X65913Y43209D02*
X95521Y69966D01*
X132992Y110285D01*
X132783Y110486D01*
X65714Y43417D01*
X65913Y43209D01*
X65913Y43209D01*
G37*
G36*
X54206Y42834D02*
X66071Y43273D01*
X66065Y43562D01*
X54485Y43562D01*
X54117Y42989D01*
X54206Y42834D01*
X54206Y42834D01*
G37*
G36*
X68467Y42837D02*
X68490Y43107D01*
X65931Y43563D01*
X54139Y43127D01*
X54145Y42837D01*
X68467Y42837D01*
X68467Y42837D01*
G37*
G36*
X68381Y42826D02*
X95624Y70069D01*
X95425Y70277D01*
X65753Y43463D01*
X65804Y43286D01*
X68381Y42826D01*
X68381Y42826D01*
G37*
M02*
