<?xml version="1.0" encoding="UTF-8" standalone="no"?>
<svg
   xmlns:dc="http://purl.org/dc/elements/1.1/"
   xmlns:cc="http://creativecommons.org/ns#"
   xmlns:rdf="http://www.w3.org/1999/02/22-rdf-syntax-ns#"
   xmlns:svg="http://www.w3.org/2000/svg"
   xmlns="http://www.w3.org/2000/svg"
   xmlns:sodipodi="http://sodipodi.sourceforge.net/DTD/sodipodi-0.dtd"
   xmlns:inkscape="http://www.inkscape.org/namespaces/inkscape"
   width="297mm"
   height="210mm"
   viewBox="0 0 297 210"
   version="1.1"
   id="svg8"
   inkscape:version="1.0.1 (3bc2e813f5, 2020-09-07)"
   sodipodi:docname="BFKDO.svg">
  <defs
     id="defs2" />
  <sodipodi:namedview
     id="base"
     pagecolor="#ffffff"
     bordercolor="#666666"
     borderopacity="1.0"
     inkscape:pageopacity="0.0"
     inkscape:pageshadow="2"
     inkscape:zoom="0.35"
     inkscape:cx="400"
     inkscape:cy="560"
     inkscape:document-units="mm"
     inkscape:current-layer="layer1"
     inkscape:document-rotation="0"
     showgrid="false"
     inkscape:window-width="1920"
     inkscape:window-height="1017"
     inkscape:window-x="-8"
     inkscape:window-y="-8"
     inkscape:window-maximized="1" />
  <metadata
     id="metadata5">
    <rdf:RDF>
      <cc:Work
         rdf:about="">
        <dc:format>image/svg+xml</dc:format>
        <dc:type
           rdf:resource="http://purl.org/dc/dcmitype/StillImage" />
        <dc:title></dc:title>
      </cc:Work>
    </rdf:RDF>
  </metadata>
  <g
     inkscape:label="Ebene 1"
     inkscape:groupmode="layer"
     id="layer1">
    <g
       aria-label="BFKDO SCHÄRDING"
       id="text1919"
       style="font-size:7.7611px;line-height:1.25;font-family:'DIN Schablonierschrift';-inkscape-font-specification:'DIN Schablonierschrift';letter-spacing:0px;word-spacing:0px;stroke-width:0.264583"
       transform="matrix(0.93750882,0,0,0.93750882,-37.419994,-77.438616)">
      <path
         d="m 42.651837,106.58929 h -2.539998 q -0.197555,0 -0.197555,-0.16934 V 87.031302 q 0,-0.197555 0.169333,-0.197555 h 2.596443 q 0.169333,0 0.169333,0.141111 v 19.416872 q 0,0.19756 -0.197556,0.19756 z m 2.737554,-8.494886 h -1.100666 q -0.197555,0 -0.197555,-0.197555 v -2.370665 q 0,-0.197555 0.197555,-0.197555 h 1.128888 q 1.298221,0 2.173109,-0.874888 0.790222,-0.818444 0.790222,-1.975554 0,-1.241777 -0.790222,-2.003777 -0.761999,-0.790221 -2.173109,-0.790221 h -1.128888 q -0.197555,0 -0.197555,-0.169333 V 87.00308 q 0,-0.169333 0.169333,-0.169333 h 1.213554 q 2.596443,0 4.148664,1.552221 1.552221,1.552221 1.552221,4.063996 0,2.793998 -1.806221,4.346219 1.806221,1.806221 1.806221,4.120437 0,2.65289 -1.523999,4.17689 -1.523999,1.49578 -4.092219,1.49578 h -1.269999 q -0.197555,0 -0.197555,-0.19756 v -2.45533 q 0,-0.19756 0.197555,-0.19756 h 1.100666 q 1.41111,0 2.229554,-0.81844 0.761999,-0.73378 0.761999,-1.97555 0,-1.24178 -0.818444,-2.032002 -0.818444,-0.818444 -2.173109,-0.818444 z"
         style="font-size:28.2222px;stroke-width:0.264583"
         id="path1923" />
      <path
         d="m 57.863591,106.58929 h -2.539998 q -0.197555,0 -0.197555,-0.16934 V 87.031302 q 0,-0.197555 0.169333,-0.197555 h 2.596442 q 0.169334,0 0.169334,0.141111 v 19.416872 q 0,0.19756 -0.197556,0.19756 z m 1.439332,-17.159101 v -2.398887 q 0,-0.197555 0.169334,-0.197555 h 6.745105 q 0.197556,0 0.197556,0.169333 v 2.455331 q 0,0.169333 -0.141111,0.169333 h -6.80155 q -0.169334,0 -0.169334,-0.197555 z m 0,8.523104 v -2.398887 q 0,-0.197555 0.169334,-0.197555 h 4.543774 q 0.197555,0 0.197555,0.169333 v 2.455332 q 0,0.169333 -0.141111,0.169333 h -4.600218 q -0.169334,0 -0.169334,-0.197556 z"
         style="font-size:28.2222px;stroke-width:0.264583"
         id="path1925" />
      <path
         d="m 72.877798,106.58929 h -2.455332 q -0.197555,0 -0.197555,-0.16934 V 87.031302 q 0,-0.197555 0.169333,-0.197555 h 2.511776 q 0.169333,0 0.169333,0.141111 v 19.416872 q 0,0.19756 -0.197555,0.19756 z m 8.46666,0 h -2.850442 q -0.05644,-0.0282 -0.08467,-0.11289 l -3.697108,-8.212662 q -0.112889,0.141111 -0.197556,0.141111 -0.08467,0 -0.08467,-0.141111 v -4.938885 l 3.866441,-6.40644 q 0.05645,-0.08467 0.08467,-0.08467 h 2.935109 q 0.282222,0 0.08467,0.310444 l -4.938885,8.184438 5.023552,11.091325 q 0.05644,0.16934 -0.141111,0.16934 z"
         style="font-size:28.2222px;stroke-width:0.264583"
         id="path1927" />
      <path
         d="m 90.657743,89.655967 h -1.100666 q -0.197555,0 -0.197555,-0.197556 v -2.427109 q 0,-0.197555 0.197555,-0.197555 h 1.269999 q 2.737553,0 4.289774,1.693332 1.382888,1.523998 1.382888,3.894663 v 8.523108 q 0,2.59644 -1.608665,4.12044 -1.608666,1.524 -4.063997,1.524 h -1.269999 q -0.197555,0 -0.197555,-0.19756 v -2.42711 q 0,-0.19755 0.197555,-0.19755 h 1.100666 q 1.298221,0 2.088443,-0.79022 0.818443,-0.79023 0.818443,-2.00378 l 0.02822,-8.494883 q 0,-1.128888 -0.733778,-1.91911 -0.818443,-0.90311 -2.201331,-0.90311 z M 88.033078,106.58929 H 85.49308 q -0.197555,0 -0.197555,-0.16934 V 87.031302 q 0,-0.197555 0.169333,-0.197555 H 88.0613 q 0.169334,0 0.169334,0.141111 v 19.416872 q 0,0.19756 -0.197556,0.19756 z"
         style="font-size:28.2222px;stroke-width:0.264583"
         id="path1929" />
      <path
         d="m 104.99461,89.655967 q -1.91911,0.451555 -1.91911,2.991553 v 8.12799 q 0,2.56822 1.91911,2.99156 0.19755,0.0564 0.19755,0.19755 v 2.45533 q 0,0.19756 -0.19755,0.16934 -4.85422,-0.64911 -4.85422,-5.95489 v -7.845769 q 0,-2.539998 1.24178,-4.092219 1.24177,-1.580443 3.61244,-1.862665 0.19755,-0.02822 0.19755,0.169333 v 2.455331 q 0,0.141111 -0.19755,0.197556 z m 1.69333,-0.02822 q -0.19756,-0.05644 -0.19756,-0.197555 v -2.455331 q 0,-0.197556 0.19756,-0.169334 2.37067,0.282222 3.61244,1.862666 1.24178,1.552221 1.24178,4.092219 v 7.845768 q 0,5.30577 -4.85422,5.95488 -0.19756,0.0282 -0.19756,-0.16933 v -2.45533 q 0,-0.14111 0.19756,-0.19756 1.91911,-0.42333 1.91911,-2.99155 v -8.127989 q 0,-2.539998 -1.91911,-2.991554 z"
         style="font-size:28.2222px;stroke-width:0.264583"
         id="path1931" />
      <path
         d="m 136.49056,100.8884 q 0,2.37067 -1.66511,4.12044 -1.524,1.58045 -3.24555,1.58045 -0.14112,0 -0.14112,-0.0847 v -2.56822 q 0,-0.22578 0.14112,-0.22578 0.84666,-0.19755 1.43933,-0.87489 0.67733,-0.79022 0.67733,-1.97555 0,-2.060221 -3.07622,-2.737553 -2.37066,-0.282222 -3.86644,-1.749777 -1.60867,-1.552221 -1.60867,-3.951108 0,-2.652887 1.83445,-4.289774 1.46755,-1.298221 3.01977,-1.298221 0.19756,0 0.19756,0.112888 v 2.596443 q 0,0.141111 -0.16934,0.141111 -0.64911,0.141111 -1.24177,0.705555 -0.81845,0.790221 -0.81845,2.003776 0,1.326443 0.95956,2.060221 0.70555,0.564444 2.25777,0.959554 2.20134,0.310445 3.61245,1.552221 1.69333,1.467555 1.69333,3.922884 z m -6.57577,5.70089 q -3.07622,-0.22578 -4.76956,-2.65289 -0.0282,-0.0282 -0.0282,-0.0847 0,-0.0564 0.0282,-0.0847 l 1.97556,-1.58045 q 0.0847,-0.0564 0.14111,0 1.016,1.29822 2.62466,1.524 0.16934,0 0.19756,0.22578 v 2.56822 q 0,0.0847 -0.16933,0.0847 z m 1.72155,-19.755543 q 3.07622,0.253999 4.76955,2.596442 0.0847,0.08467 0,0.169333 l -1.94733,1.636888 q -0.14111,0.05644 -0.19756,0 -0.90311,-1.326444 -2.59644,-1.580443 -0.16933,0 -0.19755,-0.225778 v -2.511776 q 0,-0.08467 0.16933,-0.08467 z"
         style="font-size:28.2222px;stroke-width:0.264583"
         id="path1933" />
      <path
         d="m 144.98541,89.655967 q -1.91911,0.451555 -1.91911,2.991553 v 8.12799 q 0,2.56822 1.91911,2.99156 0.19755,0.0564 0.19755,0.19755 v 2.45533 q 0,0.19756 -0.19755,0.16934 -4.85422,-0.64911 -4.85422,-5.95489 v -7.845769 q 0,-2.539998 1.24178,-4.092219 1.24177,-1.580443 3.61244,-1.862665 0.19755,-0.02822 0.19755,0.169333 v 2.455331 q 0,0.141111 -0.19755,0.197556 z m 1.69333,-0.02822 q -0.19756,-0.02822 -0.19756,-0.197555 v -2.455331 q 0,-0.197556 0.19756,-0.169334 2.37066,0.282222 3.66889,1.890888 1.18533,1.495776 1.18533,3.668886 0,0.169333 -0.16934,0.169333 h -2.56822 q -0.19755,0 -0.19755,-0.169333 -0.0564,-2.342443 -1.91911,-2.737554 z m 0,14.111093 q 1.86266,-0.39511 1.91911,-2.73755 0,-0.16933 0.19755,-0.16933 h 2.56822 q 0.16934,0 0.16934,0.16933 0,2.17311 -1.18533,3.66889 -1.29823,1.60866 -3.66889,1.89088 -0.19756,0.0282 -0.19756,-0.16933 v -2.45533 q 0,-0.16933 0.19756,-0.19756 z"
         style="font-size:28.2222px;stroke-width:0.264583"
         id="path1935" />
      <path
         d="m 158.3345,106.58929 h -2.54 q -0.19755,0 -0.19755,-0.16934 V 87.031302 q 0,-0.197555 0.16933,-0.197555 h 2.59644 q 0.16934,0 0.16934,0.141111 v 19.416872 q 0,0.19756 -0.19756,0.19756 z m 1.32644,-8.579552 v -2.398887 q 0,-0.197556 0.16934,-0.197556 h 2.68111 q 0.19755,0 0.19755,0.169334 v 2.455331 q 0,0.169333 -0.14111,0.169333 h -2.73755 q -0.16934,0 -0.16934,-0.197555 z m 6.99911,8.579552 h -2.54 q -0.19755,0 -0.19755,-0.16934 V 87.031302 q 0,-0.197555 0.16933,-0.197555 h 2.59644 q 0.16933,0 0.16933,0.141111 v 19.416872 q 0,0.19756 -0.19755,0.19756 z"
         style="font-size:28.2222px;stroke-width:0.264583"
         id="path1937" />
      <path
         d="m 185.0327,106.58929 h -3.01977 q -0.0282,-0.0282 -0.0847,-0.11289 l -5.55977,-19.416876 q -0.0565,-0.225777 0.0847,-0.225777 h 2.73756 q 0.0564,0 0.11289,0.112888 l 5.75732,19.501545 q 0.0282,0.14111 -0.0282,0.14111 z m -11.48643,0 h -2.68111 q -0.19756,0 -0.19756,-0.16934 l 4.76955,-16.84865 q 0.0282,-0.08467 0.11289,-0.08467 0.0847,0 0.11289,0.08467 l 1.35467,4.910663 -1.41111,5.051774 h 2.96333 q 0.0282,0 0.0847,0.05644 l 0.73378,2.794003 q 0.0282,0.11289 -0.0847,0.11289 h -4.572 l -1.07244,4.03577 q -0.0282,0.0565 -0.11289,0.0565 z m 2.87866,-21.166653 h -2.59644 q -0.11289,0 -0.11289,-0.112889 v -2.624665 q 0,-0.08467 0.0847,-0.08467 h 2.62466 q 0.11289,0 0.11289,0.08467 v 2.624665 q 0,0.112889 -0.11289,0.112889 z m 4.99533,0 h -2.59644 q -0.11289,0 -0.11289,-0.112889 v -2.624665 q 0,-0.08467 0.0847,-0.08467 h 2.62466 q 0.11289,0 0.11289,0.08467 v 2.624665 q 0,0.112889 -0.11289,0.112889 z"
         style="font-size:28.2222px;stroke-width:0.264583"
         id="path1939" />
      <path
         d="m 191.63665,106.58929 h -2.53999 q -0.19756,0 -0.19756,-0.16934 V 87.031302 q 0,-0.197555 0.16933,-0.197555 h 2.59645 q 0.16933,0 0.16933,0.141111 v 19.416872 q 0,0.19756 -0.19756,0.19756 z m 2.794,-16.933323 h -1.10066 q -0.19756,0 -0.19756,-0.197556 V 87.00308 q 0,-0.197556 0.19756,-0.197556 h 1.12888 q 2.45534,0 4.09222,1.439333 1.72156,1.552221 1.72156,4.120441 0,1.947332 -0.98778,3.414886 -0.84666,1.269999 -2.286,1.91911 l 3.27378,8.607766 q 0.14111,0.28223 -0.16934,0.28223 h -2.82222 q -0.0847,0 -0.11288,-0.11289 l -2.794,-8.212662 h -1.04422 q -0.19756,0 -0.19756,-0.197556 v -2.427109 q 0,-0.197555 0.19756,-0.197555 h 1.10066 q 1.27,0 2.08845,-0.874889 0.84666,-0.874888 0.84666,-2.088442 0,-1.185333 -0.79022,-2.003777 -0.79022,-0.818443 -2.14489,-0.818443 z"
         style="font-size:28.2222px;stroke-width:0.264583"
         id="path1941" />
      <path
         d="m 209.61416,89.655967 h -1.10066 q -0.19756,0 -0.19756,-0.197556 v -2.427109 q 0,-0.197555 0.19756,-0.197555 h 1.27 q 2.73755,0 4.28977,1.693332 1.38289,1.523998 1.38289,3.894663 v 8.523108 q 0,2.59644 -1.60867,4.12044 -1.60866,1.524 -4.06399,1.524 h -1.27 q -0.19756,0 -0.19756,-0.19756 v -2.42711 q 0,-0.19755 0.19756,-0.19755 h 1.10066 q 1.29822,0 2.08845,-0.79022 0.81844,-0.79023 0.81844,-2.00378 l 0.0282,-8.494883 q 0,-1.128888 -0.73377,-1.91911 -0.81845,-0.90311 -2.20134,-0.90311 z m -2.62466,16.933323 h -2.54 q -0.19755,0 -0.19755,-0.16934 V 87.031302 q 0,-0.197555 0.16933,-0.197555 h 2.59644 q 0.16933,0 0.16933,0.141111 v 19.416872 q 0,0.19756 -0.19755,0.19756 z"
         style="font-size:28.2222px;stroke-width:0.264583"
         id="path1943" />
      <path
         d="m 222.00369,106.58929 h -2.54 q -0.19755,0 -0.19755,-0.16934 V 87.031302 q 0,-0.197555 0.16933,-0.197555 h 2.59644 q 0.16934,0 0.16934,0.141111 v 19.416872 q 0,0.19756 -0.19756,0.19756 z"
         style="font-size:28.2222px;stroke-width:0.264583"
         id="path1945" />
      <path
         d="m 229.03102,106.58929 h -2.37066 q -0.19756,0 -0.19756,-0.16934 V 91.264632 q 0,-0.197555 0.11289,-0.225778 0.11289,0 0.16933,0.141111 l 2.48356,5.870218 v 9.313327 q 0,0.22578 -0.19756,0.22578 z m 6.12422,-19.755543 h 2.37066 q 0.19756,0 0.19756,0.169333 v 15.15532 q 0,0.19756 -0.11289,0.22578 -0.11289,0 -0.16933,-0.14111 l -2.48356,-5.87022 v -9.313326 q 0,-0.225777 0.19756,-0.225777 z m 2.48355,19.755543 h -2.85044 q -0.0564,-0.0282 -0.0847,-0.11289 L 226.4628,87.031302 q -0.0847,-0.197555 0.11289,-0.197555 h 2.794 q 0.11289,0 0.16933,0.112888 l 8.24088,19.473315 q 0.0847,0.16934 -0.14111,0.16934 z"
         style="font-size:28.2222px;stroke-width:0.264583"
         id="path1947" />
      <path
         d="m 246.69806,89.655967 q -1.91911,0.451555 -1.91911,2.991553 v 8.12799 q 0,2.56822 1.91911,2.99156 0.19756,0.0564 0.19756,0.19755 v 2.45533 q 0,0.19756 -0.19756,0.16934 -4.85422,-0.64911 -4.85422,-5.95489 v -7.845769 q 0,-2.539998 1.24178,-4.092219 1.24178,-1.580443 3.61244,-1.862665 0.19756,-0.02822 0.19756,0.169333 v 2.455331 q 0,0.141111 -0.19756,0.197556 z m 1.69333,-0.02822 q -0.19755,-0.02822 -0.19755,-0.197555 v -2.455331 q 0,-0.197556 0.19755,-0.169334 2.37067,0.282222 3.66889,1.890888 1.18533,1.495776 1.18533,3.668886 0,0.169333 -0.16933,0.169333 h -2.56822 q -0.19756,0 -0.19756,-0.169333 -0.0564,-2.342443 -1.91911,-2.737554 z m 0,14.111093 q 0.90311,-0.19755 1.41111,-0.95955 0.508,-0.762 0.508,-1.80622 v -2.793996 h -2.59644 q -0.16933,0 -0.16933,-0.169333 v -2.342443 q 0,-0.169333 0.16933,-0.169333 h 5.39044 q 0.14111,0 0.14111,0.169333 v 5.333992 q 0,2.17311 -1.18533,3.66889 -1.29822,1.60866 -3.66889,1.89088 -0.19755,0.0282 -0.19755,-0.16933 v -2.45533 q 0,-0.16933 0.19755,-0.19756 z"
         style="font-size:28.2222px;stroke-width:0.264583"
         id="path1949" />
    </g>
  </g>
</svg>
